/* XPM */
static char *_525ce700a6d4c7d90bece1542f5424a5Fx5EdySv3bPNwoR[] = {
/* columns rows colors chars-per-pixel */
"80 80 169 2 ",
"   c #2E1E16",
".  c #3C230E",
"X  c #2E2017",
"o  c #352215",
"O  c #3C2515",
"+  c #3E2915",
"@  c #35231B",
"#  c #3A261B",
"$  c #3D291C",
"%  c #352622",
"&  c #3A2720",
"*  c #3D2A22",
"=  c #41250F",
"-  c #412614",
";  c #442A15",
":  c #4A2E16",
">  c #412719",
",  c #442C1B",
"<  c #4A2E1A",
"1  c #4D3116",
"2  c #47301D",
"3  c #4D321C",
"4  c #513117",
"5  c #53351C",
"6  c #59361D",
"7  c #56381E",
"8  c #5A391E",
"9  c #613B1D",
"0  c #432E22",
"q  c #492F21",
"w  c #463124",
"e  c #4C3323",
"r  c #4E3826",
"t  c #463228",
"y  c #4C3629",
"u  c #4E392A",
"i  c #533622",
"p  c #593721",
"a  c #553923",
"s  c #5B3C24",
"d  c #513729",
"f  c #543B2B",
"g  c #5C3E2A",
"h  c #543E31",
"j  c #5A3F31",
"k  c #613E25",
"l  c #623E29",
"z  c #64401E",
"x  c #68401D",
"c  c #5E4026",
"v  c #56402E",
"b  c #5E412C",
"n  c #574031",
"m  c #5C4333",
"M  c #5D463A",
"N  c #5E483B",
"B  c #634126",
"V  c #6A4525",
"C  c #6F4925",
"Z  c #63432B",
"A  c #69462C",
"S  c #67492F",
"D  c #6C4A2D",
"F  c #714C2E",
"G  c #644632",
"H  c #6A4631",
"J  c #654934",
"K  c #6E4B35",
"L  c #6F4B35",
"P  c #6E4A34",
"I  c #6C4936",
"U  c #6D4A36",
"Y  c #6E4B37",
"T  c #6C4935",
"R  c #6F4D34",
"E  c #6C4C37",
"W  c #6F4C36",
"Q  c #6C4A33",
"!  c #674738",
"~  c #67473A",
"^  c #624739",
"/  c #654838",
"(  c #654B3A",
")  c #684839",
"_  c #6A4A3B",
"`  c #6F4C38",
"'  c #6F4C39",
"]  c #6A4E3B",
"[  c #704A35",
"{  c #704D37",
"}  c #714D37",
"|  c #714F36",
" . c #714D34",
".. c #704D39",
"X. c #714E38",
"o. c #724E38",
"O. c #724F39",
"+. c #734F39",
"@. c #714C3A",
"#. c #724D3B",
"$. c #714E3A",
"%. c #734E3B",
"&. c #724F3B",
"*. c #744E39",
"=. c #754F3A",
"-. c #714C3C",
";. c #734E3C",
":. c #744F3C",
">. c #754F3C",
",. c #724D3A",
"<. c #6C513E",
"1. c #705037",
"2. c #745135",
"3. c #785237",
"4. c #735138",
"5. c #73503A",
"6. c #745038",
"7. c #745239",
"8. c #75513B",
"9. c #74513B",
"0. c #73503C",
"q. c #73503D",
"w. c #74513D",
"e. c #75503D",
"r. c #77533D",
"t. c #76533D",
"y. c #75503E",
"u. c #77513E",
"i. c #77523F",
"p. c #77543E",
"a. c #75513D",
"s. c #79533F",
"d. c #78543C",
"f. c #79553F",
"g. c #654C41",
"h. c #694E41",
"j. c #6D5342",
"k. c #775240",
"l. c #715644",
"z. c #785340",
"x. c #795341",
"c. c #795441",
"v. c #7A5441",
"b. c #7A5542",
"n. c #7A5543",
"m. c #7B5443",
"M. c #7B5643",
"N. c #7C5643",
"B. c #7B5644",
"V. c #7C5744",
"C. c #7D5744",
"Z. c #7E5746",
"A. c #7A5542",
"S. c #735946",
"D. c #7C5842",
"F. c #7E5843",
"G. c #7D5845",
"H. c #7E5845",
"J. c #7E5946",
"K. c #7E5947",
"L. c #7F5A47",
"P. c #7D5844",
"I. c #725749",
"U. c #755A4A",
"Y. c #7F5A48",
"T. c #795D4D",
"R. c #7B5F51",
"E. c #805948",
"W. c #815B49",
/* pixels */
"0 r g f g m m m G b m g m m m m b b m m g b f d y * # 0 d a f d d r u u r w w e w e u d f d u w w w y f u & h Q / ! ) ) ^ ! ~ ~ ! ^ ^ ^ ^ G m m m j f f u y 0 & ",
"u A Z Z Z A A A D P A Z Z A Z Z A Q G Z Z Q Q Z Z f & g B s g g Z Z A D G Z A B Z Z s s k k s k s Z Z p 5 e Y ;.[ :.z.=.:.t.s.s.t.:.O.O.O.Y Y P H A Z Z Z Z Z a ",
"f P 1.O.=.;.9.t.t.t.O.O.O.O.Y Q Y H Z Z k s s s p p * p s s s s s s B B g l B k s Z Z Z b Z s s s p 8 p i i 9.F.m.z.c.c.J.m.V.V.c.k.k.c.F.z.t.=.| E Y Q H Z Z s ",
"g d.:.q.9.p.9.4.t.t.q.q.O.q.q.t.:.O.' O.| G Z | E s , a k k s c g Z Z Z Z A A Z Z Z Z Z b Z Z Z Z B B Z s 3 :.W.W.Y.J.W.W.V.Y.c.B.c.z.c.d.d.9.O.O.Y Y Y G Z A g ",
"g 4.O.=.=.O.9.O.;.O.O.O.O.Y O.' O.Y E E Y P Q R R g , 5 p p s s s g s g g Z B b Z Z Z k Z Z Z Z g k k B p 2 t.J.V.J.J.J.J.J.V.V.c.c.c.c.t.z.O.O.' Y Q H Q Z Z a ",
"f | 3.O.' O.O.E O.O.Y ' O.Y O.' ' ' Q R Q Q J H H Z , 5 p p a p s p s B s s s k g k s s B s c s s s s s p 3 t.c.V.F.J.c.V.V.c.c.c.z.t.t.t.9.O.O.Y Y Y P H Z a e ",
"g Q Q ' Y { | E E Y E E Q Y Q G Q G G Z J G Q A Z Z , 3 p 5 p s k s s p k s p k s s s s s s s s s s s s 7 e t.c.c.c.c.c.c.c.c.z.c.c.t.t.t.O.' Y Y P Q Z g a i $ ",
"f Q Q Q P | | | Y G Q Q G G Z Z Z Z Z b Z b Z Z Z Z , 3 7 6 5 7 8 p s 8 s p s s p s s s a s s p s s p s 5 e t.t.t.t.:.c.c.t.t.t.:.:.:.9.4.O.' O.Y G g a e e r 0 ",
"d Q E P H Q H G G G Z G Z G Z Z b b g g g g Z g c Z < < 7 5 5 7 8 5 5 5 5 5 5 8 s s p 8 p p 6 s p p s p 5 e :.q.q.:.:.t.t.:.:.t.t.t.O.| O.| H G g a e e g Z H G ",
"i Z G Z Z Z b Z b Z A Z g g b g g g g g g g s s a s < < 7 1 4 : : < : < < < 3 5 3 5 8 7 8 p a p p p a p 4 , Y t.:.t.q.O.Y Q G m ! ) Y Y G g g f i 0 i l A H H s ",
"e Z b Z Z b g Z Z b b g g g g g g g a a g s s s s a 2 ; : + ; ; ; ; : ; : < < < < 2 < 3 5 p 5 5 5 i 3 5 1 , l ! G ! Z b g g f f f f f g i a g e , a k Z Z A Z i ",
"0 s Z Z Z b Z Z Z Z s g b g s g g g c s s p a p a 4 < , 1 ; ; ; ; : ; : : : < 1 < < < < < 5 5 3 5 3 5 5 1 * g g g g g Z g g g g g g f i s k < < s p s B s g g i ",
"& # , , i i 3 < < 3 < , < , < ; , < < 1 3 < ; , , - # @ - - - + + - > + + o + - - - ; - - - : - ; - ; + o @ , i 5 e < , e i a i a i i i s < # 4 1 3 3 < < 2 , # ",
"f d d e i i i i r f d r 0 % @ w u u u d i u u d f f h f y t w w w 0 e e w w e & # w u d f j f d d d d u f d y w w 0 w 0 w w w 0 0 0 # $ e 0 w 0 0 0 w w w w r d ",
"B s 8 8 8 8 s 8 s 8 8 s Z , e Z B A P R Q Y H A H Q Y P P Y P Y Q Q P Z Z B A a d | Y P [ { O.{ {  . .Y Y P P H A Z A P Q G Z Z Z Z e i s s s s k s B B Z b B b ",
"Z s g s s s s s s s 5 4 7 e 5 8 s s Z k s Z A H H P D Z G Z Z l l s s p i 6 6 5 g B l H [ O.t.:.t.t.=.t.O.O.{ Y H Y H Z Z Z s s s p d i p p s p s s s c s s s g ",
"l s s s s s s p p s s 7 7 , i Z Z Z Z A Q A P R P [ Y Q | | Q Y P A Z G Z Z Z 5 s Z O.t.t.t.=.;.q.t.O.O.:.{ Y Y P Q H Z A Z Z Z g s 2 3 s s s s s c g s s s s s ",
"s s s s s p p p 7 p a a 7 ; p B s Z g Z Z Z Z A G H H H H P H J Z Z Z Z Z Z Z i i Z { O.O.O.:.O.O.9.| { { Y A H A P Z Z Z s l B g s , < p p p s s s s s s s s s ",
"B k 8 8 8 p s 8 s s 5 5 5 , 8 s k g g Z Z Z Z Z Z Z Z A A Z Z G Z Z Z Z Z c B 3 s P { | { Y { ;.Y Y Y | Y Y H G A H Z Z Z g s g s s , ; 6 8 8 a p p p p p p p p ",
"s 8 8 8 8 p 8 p 5 8 8 8 5 < 8 s s p s s B Z Z Z Z Z Z Z Z Z Z Z Z Z Z c g s k ; g [ Y | Y Y H [ Y Y T T H P P D H Z Z l Z s s p a 5 , < 8 5 5 5 7 7 p 8 8 p 5 7 ",
"s 5 p 8 5 7 7 5 8 s 8 7 1 ; 5 8 p p p s s g s s g Z A B Z Z Z B c s Z B s g s , g P T H H Q Q Q T P H G G A [ D Z Z Z g g s a 5 3 4 , < 7 7 5 5 7 8 8 8 8 5 5 5 ",
"i 3 5 5 5 5 5 7 5 5 3 < < , 5 a 7 7 8 p s k k k k B c g g s Z s Z k s s a a a $ a P G G Q H H H Z H H H A Z Z Z s g s s s a 5 3 5 4 $ < 7 5 5 7 5 7 7 5 7 5 5 5 ",
"3 < < < < 3 3 3 < < : , : , 3 5 a a a 7 p p p s s p p s s s B p p s i i i 3 a , a Z l Z Z Z H A A Z Z H Z Z Z Z l s s s 5 3 3 3 < 1 # < 4 1 5 4 3 3 1 3 1 3 3 1 ",
"3 < < < < 1 < : < 3 : : < $ 3 1 5 a a 7 p 8 8 p p a p s s 8 8 i i 8 i 3 3 3 3 , i s g g s s Z Z Z l Z Z Z s s s s s a 5 3 3 3 3 1 : # ; 1 3 3 < 1 5 3 1 < 1 < < ",
"< : < : : ; ; ; : ; ; : , # 4 3 1 5 5 3 5 5 5 i i 5 i p 5 3 e 3 5 3 e 3 3 3 5 # e B B a g l s s s s a i a i i i i 3 5 3 1 < < : 4 - % , 1 < 1 < < < < < : < ; < ",
"3 : : : : : : : : : : ; # * + 1 1 1 4 4 < 1 7 5 3 5 7 5 5 3 3 1 3 1 : < 4 1 + # , s s s k s s s p p 5 i i 5 p i 6 5 4 4 1 : : : 1 $ @ $ 1 < : : : : : : 1 4 < 1 ",
"0 , , , , , , , , , $ $ 0 0 @ o # o o + 3 3 3 < , o o o o # # # # # o # $ # o 0 * o # $ # # , , , , , , < , # o o o @ @ @ # O # o $ $ & # $ $ $ $ # # # # $ $ , ",
"d b b b b g b b Z Z b b s g p 5 i a , # l Z b b g e @ & 3 a 5 3 i i a a i a s a a a i r r w $ @ @ @ @ @ @ @ w d d g g b g g G b b Z b Z b b b b g g g d r 0 # @ ",
"a k k c B Z Z A Z Z Z Z Z Z s B s a s a $ s s l Z k e 0 8 p 6 7 8 p p p 8 p s a s 5 5 7 8 s s g a a u 0 # 0 B k s k s l Z k B c k s s s s p 8 5 4 4 p s s b a $ ",
"d G Q Q P Q Q R R | R Q Q E E E E J s 7 e $ s Z Z Z , $ s Z Z b b Z Z b Z Z b Z Z Z g s p 3 7 7 a s p s e , s s g Z Z Z Z Z Z Z Z Z Z Z Z g g s 8 s a 7 5 5 7 e ",
"d Z Z P R Z G Z G H R P Q Q R Q J J E c 5 2 , 5 5 a , , c s s g b b Z s s Z Z s b B b g g g s 5 1 1 < 4 5 q k s s g g Z Z g g Z g Z g Z Z s c B Z g B s s 5 1 3 ",
"d B Z A A Z S Z G Z A P J J Z J J J Z G Z 8 < , 1 , , < B g b s Z Z g s s Z k g s s k c s k s s p 5 4 4 : < s p s s k B s g Z l g g b s g g k s s s s s s s 5 , ",
"e c Z Z Z Z Z Z Z Z G A A H S Q A A G Z Q G p 3 $ ; $ 3 c s s s s c s s c s s s l s s s s s s p a p a a 3 , 5 p p p k s s s s s s s s s s p s s s s p s s a p < ",
"2 i b Z Z Z Z Z S A Z Z G A D P A Z Z b Z Z Z s 1 ; # e Z s p s s s s s s s s s s s s p a a i 3 5 a 5 5 3 ; < i s p p s s s s p s p p p 8 s p a s s a p a p p < ",
"e 1 i a b Z Z Z Z A Z Z G Z Z Z g a a r e i a Z Z 8 , 3 s s c s p s s p s s a a a i i i 5 3 3 3 3 1 5 5 3 ; < < 5 5 8 8 8 6 7 p p p p p s s p p s 8 p p a a 7 < ",
"0 4 i 3 i a Z Z Z Z Z Z g a d i i i i e i e e e i s , 2 s s s p a s p a a a a i 5 5 i 5 3 3 5 3 1 3 1 5 < < < - - ; 3 3 i 8 7 5 8 8 7 7 a a p a 5 7 a a a 5 5 < ",
"* : 3 i 5 3 i a b a i e e e e e e i e e e e e e e 3 $ < i 5 i 5 3 3 i a i a i i 5 i 3 < 3 2 3 3 < 3 5 1 1 < : - ; ; - - ; < 3 1 3 5 5 a 7 7 a a 5 i 5 5 5 5 3 < ",
"0 : 3 3 5 3 e 2 3 2 e 3 3 e e e e e e e e e 2 2 q 2 , < 5 5 1 3 3 3 5 3 3 3 5 3 3 3 3 3 < 3 5 < < 1 1 3 : , : - - - + + - - - - ; ; : < 3 3 5 5 i 5 5 1 1 3 < $ ",
"0 , 4 3 3 i 3 i 3 e 5 e e e 3 e 3 3 2 e 2 2 e 3 , 2 , < 1 3 3 5 3 3 1 1 1 1 4 : : : 4 : 4 1 1 < : < < ; , , 4 1 : : - ; ; - - - - - - - , ; : ; < : : : : ; : , ",
"* @ + - $ + ; - - - + > , - ; < 2 e , , , , , ; , # @ @ o + o o o o # o o o o o o o @ o o o o + $ $ - + o # # # , + # # + + + o + - - , + + o + + o o o o @ @ @ ",
"g.( ( ( g.N N M M m h y @ 0 g g p s s s s s g a a a f d r i w w 0 * & @ @ @ @ % * n m m M m ( ( ( ( ( m N ( ( M m n h h h f f h y @ @ & M N M N N M ( g.( ( g.( ",
"l.j.U.I.S.S.S.l.S.U.S.T.* a B p k Z Z Z Z Z Z A Z Z Z Z Z Z Z k s g b a g d r , u J m J J ( ] ] / ] ] ] ] / / ( J b b b m b Z Z G u @ m l.j.S.l.j.j.l.l.l.l.l.j.",
"T.U.I.I.I.l.l.l.l.j.j.j.t 3 s Q E Q E E ' 1.9.O.' ' 4.<.' ' E E P Z s k s p l e w ] <.j.<.j.<.j.l.j.<.] j.] ] <.<.] ] J / J G G c c w m <.j.l.j.l.S.l.j.I.I.I.I.",
"l.S.U.U.U.l.l.S.l.l.l.<.* < Z J Q Q Q Q E E | E Y E E E ' Q E q.4.<.4.Q D Z 4 q w ] ] ] ) ] ] <.<.j.<.<.] <.] ] ] ( / J J J G G G b 0 n j.j.l.j.j.l.l.l.l.l.l.S.",
"l.l.S.l.l.I.l.l.l.j.j.j.y 3 Z G A A S S Q Q E E E Q Q 1.| E | 4.E Q | | R E A ; u <.( ] ] ] ) <.] ( J / <.J J ( ] ( J J J G m b b m 0 n <.] ] <.j.j.j.j.l.j.j.j.",
"l.l.S.l.j.j.l.l.j.j.j.j.n 2 S G Z Q Q J Q Q E P Q Q Q E E | | E R  .Q Q Q J R , d <.J J ] J J ( ( J ( / / J J J J G G G G b b b g b , n j.] ] ] j.j.j.j.j.j.j.j.",
"j.j.j.j.j.l.l.j.<.<.<.] m 3 A A Z S Z J J J J J Z Q P Q E | P Q | Q Q Q Q J Z , r G J J J ] ] ] J J J G J J J J G m b b Z b b c g s , f ] ] ] ( ] ] j.j.j.j.j.j.",
"l.<.l.j.<.<.<.( ( ( ^ ( m 3 G Z Z Z Z J J Z Q Q Q Q Q P Y Q Q Q Y Q J Q Q G A $ w f g f g b m b J J G G G G G G m b b Z Z b g g s g , f ( / / ] ] j.<.<.<.<.j.j.",
"j.q.( ^ / ^ m m m m m m m 2 Z Z G Z Z G Z J Q Q Q Q Q E J Z G Z Q J J Z J G Z $ e d r f a d e r g b m Z b b Z Z b b b b b b s g a a , v J J ( ] ( ] ] / / ( h.] ",
"( m m m m m m m m n m m f 2 g Z G G G Z Z Z Z Z b g b g s g g f Z A Q Q G Q b # e r e r d r r r r u f b Z Z b b g g b g g g a a 2 1 $ d m m / / / ] ( J J ] ] ( ",
"m m m m m m m f n n m b h , a s s g s a f a a a a d a a a g g s d f Z Z Z Z s # 2 e e e e e e e e e w r a b g g a a d a a i i 2 < 2 $ f m h j m m J / J ^ m m m ",
"m m m m m g n n n j f g n , a a a a a a f a a a f d f g a a f f a s a s a g i @ , 3 < 5 5 3 e e e e e e e 2 e e e e 3 2 1 3 3 1 1 ; # e Z b b f v v b v m m b n ",
"b f g f f d u u u u f d w @ - < < 3 3 3 3 3 1 5 1 3 i i 5 3 3 3 3 e 2 2 2 < o @ @     @ + - ; , , , , , , , , , , , , ; ; - O O o @ @ @ # e d d d f f f f f f f ",
"& e Z b b Z b g a e w e r d , , , , , 2 2 , < 2 2 o o + e a i a a i f d r r u f d d u w 0 0 $ $ , , , , $ @ 0 f a a f g g f d i d d y w e 0 0 * * * $ * & # # @ ",
"d C B V V C V V C V V A V F D D D D D F F D F D F s $ Z Q A s k Z Z A Z Z Z Z Z Z Z Z Z Z B s 8 p 8 p c g 0 s s s 8 p s s s s Z B Z s s p p 8 7 8 a a a i i e , ",
"s z B B B B B V V V V A V V C V B B B B k 8 9 9 9 x a b p k Z Z Z A Z Z Z Z g Z B Z g g s s s s s 8 8 7 1 2 p p s s s l g s s s s p p p s s 5 4 1 1 4 4 5 5 4 2 ",
"a D D F F F  . .3.3.2.2.3.3.3.3.3.2. . .D D D D V 9 i 5 p Z G Z Z Z Z A Z Z Z Z g b Z Z g s s s p p 5 5 4 3 s s s s s s s s s b s B b b b b s s p 8 5 p g s c 3 ",
"a D D D D D D D  . . . .F F F  . .F  . .F  . . .F V 3 5 l Z Z Z Z Z Z Z Z Z Z s s s l Z s s p a p 5 5 5 7 1 5 p p s p p s s s s s s s s s s s s s s s s s s s 5 ",
"i D D D D D D D R F  .R D  . .D R  .D F F F D F [ A 5 s Z s s Z B B Z B Z Z g b B s s s s p p a 7 5 7 5 5 1 7 5 5 5 4 p s s p p p s p p p s s p s s s p p s s 5 ",
"i A D A A A A D D D R R D D D D P D D D D D D F A B 3 s B k g s l g s s Z s s s s s s s p 5 6 5 5 5 5 5 5 < < 5 7 5 5 5 8 8 p 8 8 p 8 p p a a a s s s s s p s 3 ",
"w B Z Z A A A D D D D D D D D D D D D D D A D V Z B 2 p s s s s s k k s p p p s p s s s p 8 5 5 5 7 5 4 4 3 ; ; < < 1 5 7 7 7 5 5 7 7 5 5 5 5 7 a a a 7 p p 7 < ",
"w B Z Z A A Z Z D D D D D D A A Z B Z Z B Z B A A A , 5 p s s s s s s p p p 7 7 a 5 5 4 3 3 1 4 5 5 5 5 5 3 ; ; - - - : < 1 5 5 5 5 a 5 a i 5 5 5 5 a a p i , ; ",
"0 8 Z B Z Z Z Z A A B Z s s s a i i a a 5 i 5 s Z V , 5 8 p a 5 p 5 5 1 5 3 3 < < : ; , ; , ; : 3 5 3 1 4 < - - - - - - - ; ; 1 5 5 5 a a i i a 5 i 7 a 3 ; ; ; ",
"* 8 B B B B s s s a i i i i i i i i a 5 i i 5 5 a 3 # ; < 3 , , , < ; , ; ; ; , : : : : ; ; ; - ; : < 1 4 < - - - - - - - - - + - < 3 5 5 5 5 5 5 5 5 3 - $ : , ",
"0 8 k s 5 i i 3 i 5 i 5 i 3 i i i i 3 3 e i 3 5 6 < % , - ; ; ; ; ; : 3 : 1 < < < < : < : - - - - + - - : , - O O O O O + + + + + o + O + - - - ; , - - : : 4 , ",
"* - 5 4 1 3 3 3 3 1 5 5 5 3 5 4 5 5 3 1 1 1 5 5 4 , @ - < ; ; , : < : ; < 1 1 : : ; ; < 1 : ; ; - - ; - - # + = O - - O O . O O . O - - - O O O O - ; : ; - O # ",
"u 0 , e 2 , 0 0 , , , # # + # , , $ $ $ , , , , # # &   o + # @ @ @ @ @ @ @   X   X @ @ @ @ @ o o o @ o   @ & $ $ $ , , $ , $ $ $ , # $ # $ $ , 0 , , , 0 0 0 u ",
"Z s g g Z b g g g s b g $ & M g.h.( ] h.j.j.j.j.j.h.( g.h.j.I.j.j.j.j.l.j.j.n * & f H Z Z g g b g g g 0 f G Z Z Z Z l g l Z Z Z Z G f * g s p s p s p p k k s k ",
"b s s s s s s p a p 5 8 s u U.U.U.U.T.U.j.l.l.j.j.h.j.<.l.j.j.j.j.<._ <.( / j.u e A A A A Z Z s 5 p i g k s k k k l l l l l k l l Z Z d s 8 8 p s s s s s s p s ",
"Z g Z s s s k s s a p 5 1 f U.T.T.R.T.T.T.T.T.U.U.S.j.<.] ] ] ( ] ( ^ J G m ^ u s A Z Z Z s i i i 5 i 6 8 Z Z Z Z Z G A H Q H G H H Z 3 p s s s g g b b s Z l g ",
"c s s p s p p p p 7 5 a 4 f U.U.T.U.U.T.T.U.U.U.U.U.U.l.l.S.l.l.j.j.<.] ] ( m w i s s p i i e 5 5 4 a s s B Z Z Z Z Z Z Z Z Z Z Z Z k 1 p 7 p s s k g s s s s g ",
"s s s p s p p 8 i 7 5 5 4 g I.S.U.U.U.U.U.S.U.U.S.S.l.j.S.l.j.j.] <.] ] ( / ^ w 3 3 < < ; < 1 4 5 s s s s s B b Z g Z Z Z Z Z Z Z Z s 1 5 7 p s a p s s s p s s ",
"s p a i a 5 5 5 5 7 5 5 1 d S.l.S.l.S.l.j.U.S.S.l.l.j.j.j.j.j.j.] <.( ] ( J G 0 # < 4 4 5 5 8 8 p s s s s s s s Z b c s Z g g s l B a 1 5 5 7 5 7 5 5 p p p p p ",
"p 5 5 5 5 4 5 5 5 5 5 4 : d l.j.l.j.j.l.l.l.l.l.j.l.j.j.j.<.<.<.] ( J / / J J w < 7 7 5 5 5 7 5 i p p p s s s s s s s a a s i i a a i 1 5 5 5 5 5 5 5 7 7 5 a 5 ",
"8 7 5 5 5 5 5 5 4 3 1 4 : d l.j.j.l.j.j.j.j.j.j.<.<.j.<.<.<.] ] ( ( J ^ J ^ G e < 4 4 4 4 5 7 5 5 s 8 8 s p p i 5 i i i i i i a i i 5 < 7 5 5 5 7 7 5 5 5 5 5 5 ",
"a 5 5 1 1 < 1 5 4 4 4 4 < u ( j.<.<.<.<.j.<.j.j.j.<.j.<.( / ] / J ^ J ^ J b b w < 4 1 < 4 5 5 4 5 5 5 5 p 5 5 3 3 5 i 5 3 i i 5 5 i 3 , 1 5 5 5 7 5 5 7 4 5 4 4 ",
"3 : < : : ; : ; : 3 < < ; d m ^ <.j.j.] <.<.<.] / ] ( / / J J / J J G b f r e w : : : 1 4 1 4 5 4 4 5 4 3 3 1 1 < 1 3 3 e 3 3 5 5 3 3 , 1 3 3 4 5 1 1 1 < 3 < < ",
"< ; < ; ; ; < ; ; ; - ; - f m m n m ( J ( ] ] ] J J J ] ( J G J J m u e w w e e < ; : < : : 1 : 4 : : : : < 1 3 < < < 1 1 < < < < 5 < & 1 < : : < : ; : ; : ; < ",
": ; - ; ; ; ; ; - - ; : @ 0 v d d d d f f d f v b b m m G m m f r e e e e e d w : ; : : - - ; ; ; < : : ; : : : : : : < < 1 1 < 1 7 , @ : : ; ; ; : : ; : < ; ; ",
"2 , , , , , , , , ; , * * * t u u u u u u u u y y y y t y e u e t r e w w e e * * , , , , , , , , , , , , , < , , < < < 2 < 3 2 < 2 0 * $ , , , ; < < , , , , , "
};
