/* XPM */
static char *crosshair[] = {
/* columns rows colors chars-per-pixel */
"25 25 2 1",
"  c None",
"# c white",
/* pixels */
"            #            ",
"            #            ",
"            #            ",
"            #            ",
"            #            ",
"            #            ",
"            #            ",
"            #            ",
"            #            ",
"            #            ",
"            #            ",
"            #            ",
"#########################",
"            #            ",
"            #            ",
"            #            ",
"            #            ",
"            #            ",
"            #            ",
"            #            ",
"            #            ",
"            #            ",
"            #            ",
"            #            ",
"            #            "
};