/* XPM */
static char *result[] = {
/* columns rows colors chars-per-pixel */
"128 128 26 1 ",
"  c #32080F",
". c #370910",
"X c #3C0A11",
"o c #430B13",
"O c #4B0C16",
"+ c #4B0F18",
"@ c #510D17",
"# c #540D19",
"$ c #5B0F1A",
"% c #4F1019",
"& c #5F101C",
"* c #620F1C",
"= c #6B0E1C",
"- c #720E1E",
"; c #790F1F",
": c #65101D",
"> c #6A111F",
", c #71101F",
"< c #790F20",
"1 c #6E1120",
"2 c #741222",
"3 c #7B1424",
"4 c #821526",
"5 c #881527",
"6 c #871528",
"7 c #891628",
/* pixels */
"O##$$$$$#$#@#$$$$&$##$##$$$#####%%%%%%&%&%$$&%&%X#%#&&$&:::>>>>:%&%&&&$&$&&%%&&#&&&&&&&&$&&#&&&:&&&&&$$&$$$$$::::::$::$::::1>$$$",
"3223343444433444444332343444332223332333332,2233o233443;33334333332343334343;44474744443333443322>,222>>333322112333433333333644",
"333333334344343333333333332232223333233323333222o>323332332222223333333334444333334434333333333,23233223323332322321333232221133",
"233444444744444444444434444434343333343333333333o>333333333333333333444445444455444747744444444343433333333333323333333333333323",
"444444777777777444444444444443447373737334344444o,444444434443433444545555755555647767455444444434343344434334433444634444443443",
"444444664444447444444443343333333333373743444444%;444344444344444445454454554554644444443434433333334333433333334336444443434346",
"443444344444444444344434343333333373333333333333%,343434434434444434444434444444443544644433333333333333333333333333333443444434",
"333344444444444334444443433333333333333334333344%;334344433343333334444444434444447444444444333333333343333433333333444443343343",
"443343434443434434434333333332333333333334433334%;4;3433333333334334434444443444344344433343333322333333333333333333443333333333",
"334334444444444443434344343232233333333333333333%,3333333333323333334443344443444444444344344322122322232332<3233333333333323333",
"343444444444433333333322322221122222233333233332%,333323333333333434344445443333333333333222222>1222222122222323<323232333332333",
"333333333333333222222222222222223222222232222222+,222323,,3333333343333433333333232223322222222222222222222222111223233333233333",
"3233333333,3;33222232222222112122222232322211222+=2212223,3222323233333233233233333333333222211212121222112211111111221232222323",
"232222333444333223222222221222222222212232222112o=2,,>,>2221212>22222233334434322233232,2222212222221222122222211112111222221121",
"333333333433333332222222221222121221232222222222+=,222222,,222322323333333333333233332222222222211221212221112121231222222222222",
"333232333333333322322222222222111>22222212112112+=;,2222233332333332232333332333332232322223222221112221223112211133233223333333",
"3333322323333323222222222222221212211121>121,2>1+>22322,3,2332322222322323232323322222222222222222112111212211122133332333233323",
"22322333322222212111>221122111122221222222223233+,332333333322333223233222222222222222222122222212222222222233222323333333333223",
"22223222222222221111>121112112222222223323323233+,323223332223322222322232322222322222222222222233223312223232222332322223222333",
"2332323<2332332221212222221212222232223332322333@,323323223322,33223223323223323232223223333322233333232333323323323333<32332222",
">:>::::>>>>:11::::*>:>*>:&::111::::1>1>::>>>,2,,+=,,,2>,,>2>,,>>1>>:>>::1::>>>1>>>:>>:>>>>:&&::>1&&&&1111&&&1&111>111>1>>1>>1111",
"ooooooooooOooooooXoXXoXX..XXXXX...Xoooooo++oo+++oO@+++++%O++O++++oooooooooooXo.XXXXXXXXXXXX ...............XX. . XXoXXoooXooooOX",
"211122211332233<22223222111>122222,2333>23333333333,2221,,>,>,22,>>222,>223222332223233333222>122333211333123323X>21211111111212",
"1212222<332223221212222222211112233223432223333323322,>>2,23322222,222233322333222222323222323221222332233331333o>32211112323222",
"32222222223222212112122212222233322223323333322332333333333322232,3222323223222232232332332232333333332232333223o:33333333232222",
"3223233222233222222122222222322223333223232333332322222222,2,22232322322222323332,222323233333333333333333233332o122222222222223",
"22223232322223222222222223233333323333333333233233,32332,2222222322322223222223232322223343333333333333333333332o*22333222222223",
"3332223333233222212222333333333333333333433333333333333333332333232232332323322323233233333334433333333333433333o>3333333<332322",
"32223233322222222122222<33233333343344433434343333333333322232223,2332332223222222322332323333333333334443443333o=43333323233223",
"3333333232233322222212222222223333333333343343433333333333322233333333323223332222223223232233333333333333333333o=33333332322323",
"233223333223332222222211122112222233333333323333333233333,,32233323223333223333233332332222222222333333333333323o=33233332323233",
"2233222322222222212111121212222222222,,3233232232232223232332332223232233,2222233223222>222222222222222222223322o:32323223322232",
"2232323321223322212122111122111111122222323323222222222222222222223223<222222333323222222321<2212211111222222223X:22222222222222",
"21223<1322233222111111111111>>1111>1111112122212111211>>>:>:>>>22222222223233222222221211111111>1111111111112221X:12111>>::>:112",
">111211111111111>>>>=:::>:>>:>>1>>>::>>11111111111=11>>>>::>:>>11>:122111111211<211>111>>>>>>11>11111&11:1:111>1.#11>>>>>::>::>1",
">>>111111111111>>:>>:>>>>>>>>>11>>>1>>>11111111111111>111111>>:>>>111111111111111111>111>111>11111111111:1111>>>X&11111>11211:>>",
"11122212112121111>>111111111111211212222222211222222211211>22211111221211122112112121111112221222212122212222211o:222>2111>22111",
"1221221<212<22221111211111111222222212222222222222>2222211122122222122222<1222222212<212122121111222111122222222o:22221211122222",
"21211221121111111>=111111111111212122222222222222222222222222222222112221121111121111112121211112122122222322122o*2,2,2222222212",
"3232222222222211111111111112222222222223333323322332333333223222222222222221212212121212112121222222323222333333o>33333333223322",
"33323333323<3311211111121122222333333336333433333343443333223333333233323222322322222222222223233333333333343434+,43434333223333",
"34333233332333232221222233<33333334443336636666446444444443>233334333333323333322<222222222232233334444344434444+;444444433>,333",
"XXXX.XXXXXXXoXXXXooXXXooOoooOoOO+##########%####+#####OOOOOOoOooOOOOOooXXXXXXX..XX.X.XXX.XoXooOooo%o+oo+OOOoOooo.O+oooooooooXoXX",
">::::::::::>>>>>::::=:=>::>:*>>11221221111111111o=2211<111,>>>>>1:>>>1111111::::::::::::1111>>::11111:11>>>>>>>>>>>2,>>>>>>>>>>>",
"3323333333322222121<222<223223232323223323322232+-33332333333333332323232<2333<222222223232223232332333223232322,233323323333333",
"23233<221213322221222212122122323222222222222222+=23223323322333223232222122222222222222311<222<22232222222221222222322333323332",
"321231211<122212111211111112223<2212122222222232+=223222232222222222222112222212222222222112222222222211>22222222223233222232222",
"221322322122222111211111112221122212222222222222+=11222222222232322232222222222222221222121122222222222222,222>111,>2,2222222232",
"222112122211211111121111111221122212222111212111+*11112222221222222222222121121112211222121211121121212221111111>>11>22222221122",
"22211222222=12>11111111<1>112211222211>>11221111+:2112321>>112222221121222111<11112211212<11112221<222111>111211>112>222>>:22222",
"3312222222211211111111112111122<22211>>111121&11+:122233322222223222222222211211=12212112211212222222111>>11112:>122222232232222",
"22222222212,222111122212<11112111112221121121111+:11121122222232222222221221222122222<221222121212121221111111=111>>222222222322",
"212111<12222222222222212222222212222222222222111+12111<12221222,212121222222112223222222222222222222222221222221222>2,1222222222",
"222232222222223222112222221122<11122121222222233+1212221222222222222222222223323233322223222212221111111111<1121222222,222222222",
"332323332323332222222223222222222222222212221222+1323233232323333323233223323332223233332232222222222211122222222222222323323323",
"323233323233233222233323232222222222222232223223O-3<223232333232323233233223<233323333333333322212222232222221222232233232232233",
"333333332<33323232232233322222222222222222222222O1<2222233323233233333333333<3323333333323332221222222222222>2>2,,32232223233233",
"222333323333332333233332333223222232222232232232+13<3232222332233233233323333333333333333333333233222222222222222322323322232323",
"323333333333333333333333232323332323233232322323O<2333232223233222323333333333333343333333333233332223223222222223222232322232,3",
"33333<444333433323<32323332323333232232323222232O12223223232323333333334343334333333333333233333<3322223232222222232232223323233",
"33<333434434433332323232233323332222233223322222+12323233223333333333333443363333333333<33333<3333322222222222222222233333223333",
"333333344464664443333333333433333332333333332323O<232223323333334333344444666664444444443333<43333333333333333222323232222333333",
"644664446647674466645644646444446443464634443333+<333333333333334446434446466666676677666666666444644344444444344334333433343334",
"$##@+@OOOOOO+O@#+@#$$$$##$##################$$:*o$*$$**$&$$$&&&::*$$*:$$:*$*$$##$$$$$$#$$###+#OOOOOOOO###@@@#@######@#####@@@@@&",
"++O+@Oo+OOOoo+++O%%%%%%%%%%%%%%%@O++@%#%@@#%##&&&&$&::&&&&&>::&&##$*::&:&&$#$$##%&%$%$$%%&%#%%++oooo++o%%%%%OO%% O#@&%O@###$$###",
"3;,3;444444343444443333444542222,332,333333222333433332333343444322233344344334445774443;34343;3,,2232>,33332222X,32433343334444",
"33333333344443433333333333322233332323333333322233223232222>222233333333344444343343333333;4333,3322322333333223X=32333222221222",
"2;3444444454444434444434444443434333433333333333333333333333333;333444444444444454455775444444443443333333333333o>33333334433333",
"4444445555555545444545454444333444444444334544343444434453444344344464646666675575555555544444443434334444333443o,44434444433443",
"4444444545444454444443334333333333433444344344444344444444344344444664644646445444543443343433333333433334334333O>44444443444364",
"3434444444444444344434343333333333334333333343433333433444444444443444344464444445434444443333333333333333333323o=34343434444444",
"4433444444444433334444434433333333343343443333333433434433334333333444444434444434545445444433333333334333333333o=33434443343333",
"3333444344434334434334333333333343333333333434334333433433333333343334443444334444444443433433332233333333333333o=43333333233333",
"4343343444444444433443343343222333333334333333333333333333333333433343434444444443344444334333322223222233322333o>33333333333333",
"34344444443443333333333222222>222222223333333232332323333233333333444344444433343333333333222211>,22222222222323o*23333333333333",
"3333334333433333,2,2,22,222222222222322222222222,2223322322333333333434333;3333333222322222222222222222222222212X=23232223233333",
"233233233233332233233322222>22222,322322,22211211,12,212222222223232333223333332333333233232211222222222,2221111X$1<212222222222",
"22222333343433332222,22222222233332222,3322222221122,22122222,22,32222333434333322332232223221233223222222222221o*21221222221222",
"3333333334433333322332222323322222232322232222222222222222222233333323333433333323233333322323222222222222222211o*22222222223223",
"3333223334333333233233333332233223323323223222222232222232233333333333343343333333333333233333332222223222222222X*33222232323233",
"333333333343334333333333333332223322232,2232,32>2,32333223233333333333333333343433334433333333333232222222222222o=23233233233233",
"2323333333334333333343323333333232333233232332332333233333232322,33333333443333344433334333333332222222223232223o*33333233333332",
"33333233333333443333333333333333222333332,3233323223222223333333343333333323434533333333323333333222233223222222o=22222223323333",
"333344333344443333333333233333333233323233332223,33,3333332,3444323334333345443333444333333333333332232122222322X>32333323223444",
":&>>>>>222222>>2>>>>>:>>>>>>22>>>::::&:>>:::::>:>>>>>22,:::>2,2>>>2,>:>2,23,2,,>2>22>>,>:::>:>>1111111&111111111X*1*22211:11111&",
"X.X.XXXooooooooooX+oo.+Xoo.ooo.X..X..........XXX XoXooXXXoooooo+OoO+OOoOO%OO+oooXXoXX+o..X.X...X.XX.XX.X..XXXX..XXXXXXoXXXXoXXXX",
"433333324444333433343233233333>33232,;333,332333o:333333333332343433333354443344334324432333333332232332223222232333333323333233",
"333433333334433333333333333333333334433343333333o>233333343433333333333333334433343343333333333333322333333333333223333343333333",
"333333333443343433733334333733337333343333343343o=223333334333433333433343434443434334433433343433333333333333333223333333343334",
"444444334444444343373744737373733373333743433443o>3,,333333333434434333444444434444444445344434343434333333333333322223333333334",
"334343444444443444437733373337377443443333434334o>323222232333333334444444444444444444444444444344443433343333333222322332323233",
"333343444444544437777374737373734437433734343434o>322223233323334333344444444445445777544455444443344443334334333332222323333333",
"433434445555445447774777777437473734373337334347o,332323333434333433444477474474545555545775554547444434333334334433232333333433",
"344443343433434437444444737477434334733333334333o>433333343444434344333444443434434544444444444543333333333333333333333343443434",
"333334333334343333374474444433373433333333333337o>333333333433333343333;;3334433334344454454444333343333333233333333333333343334",
"343433344443433437334334443337333337333333333333o:232233233333333434433444433344444434333434333333333333333322232222233233333333",
"333333334443343343444443433434333333333333333233o:23333333333333;333333334344343444443434334333333332332333323232233332333333233",
"333234443333334443333333333333343333333322323223o>333333333223433333334433333344333434333333333333332332232222322323333333323333",
"22234443,344433233443434333322322232222222222323o:,2,322211333332,,3544323344332333343344333332232222212112222222212232321123363",
"3223334322343333433333323222133112,2221123322333X:223343221123343332334322433333433433333222222232111111111232232222333332212333",
"334433444333433433222,22232333332232222333233332X>333343333322233333333443334344443332222222333233213231223332322333343433333222",
"333333334433334434433333334333322323333332322323o:323233333333333333334344334334433434333334433333222233332222222222332333333433",
"334333343343444343344433333333333333333332333232o>333333343334434434344333434343333433333333232323333323322233232233333333333334",
"433444344344433333333333333333343333333333333333o>323323334343343333434344444333443333333333333333323323233322323332232333433443",
"453444444444444434;44343343333333333343432333333o>333333444344445434444444444344344433433433333333333233333232333333333444446444",
"444444444455444444444444434343443343343333333223o:333333344444334444445444644443443444444343343333333323333223223333333334343434",
"oXoooooooo%%++%%%%%%%%%%%%%%%%%OoOOOOooXXoXXXXXo XXooXoooooXXoooooXooooooooXooXooXooXo+++OOOO+oO++%+#+#O@OOOOO++ooooOOOoooXXXooo",
"12222222222>2>222;3333323322232,2222222211222111212>11>>11111111222222221233223222222,2,121221222223222223112221O>212>1111121111",
"3333334344434334343444343433344334334333233333333333322322333323333333333444434334333343343333333333333333222223+;33332223233333",
"3322333233334333333333333333333333333333222223333332222232223222333233332333333333333333233332333322322232222223+,23222332333222",
"2222222223233333232222222,,22222233223323232233223232222222222222,2222222323333223222222211111122222222212222233+,32222222222212",
"12112>221222222>>>,,,>>,>>,>222222222222222222122>,>222>121211122111111212122322122>22>>11>>>111122122221<111212O>,,122111112112",
"122111112>111211,,2,>1>>2>>,1112>211222111121>1111111,>22>211112122>>11>2>2>211112211211111111111111111211111111o=>,111212111122",
"222-22<1222>121>>>111>2,,>>22,,>21221>>:122211>1111=1222>>>22222222222222211>21>>112112221111112222122111&121111+*,,122211122221",
"22222222222222211>>1>2>2211,,22,222>1>>12112:1>11122222332222223222222222221122211221111221211122122211111111111o=22222222222222",
"232222222212121221>22,2>1,2>22122122211211111>>11211122222222222222,2221221222122222223<212222222112122111112111o>1>222222222222",
"211<1,2112222222222>22222212222222,22222222221212222112122212,22222212222222222223232223222222222222122212222212+=22111221122222",
"222222232222223222222222212212,>22212,22222222222222222,22222222222222222222222322322222232221222111121111111222+-2222222<222222",
"3223323323233332222222322,,22232,22221222222222222222223232323333322232223233332233232322232221<2122222122222212O=32222223233233",
"33232323323333222223323333322,2222322222222222233322323322333232323333333232323332333333333333222222222222222222%=23233323233323",
"333233232333322233233233322222222232,222222222222222323232333233333333333333332333333333233331212222222222221222+=32322223333233",
"2232333333333333223323233332233222222232223222332323323222233232223223332333332333333333333333333222222222222212O,23323332232332",
"3233333343333333333232332232233222322332323223222222322223223222323333333343433333343433333332323322232232222222%=22222222222222",
"333333333433333333332323332333333232322323222222232323,323333;33333333333333333333333333333323333332232223222222+=23233223323333",
"333333344444443332233223233333322222233,23,3,2223222232323223333333334344444443333333333333233333323222222222222+=32323332323333",
"4333434344447444333333333333333333333333333333322232322232233333333433434444454444444434344333333333333332333323%-32222223233333",
"4444644444447644447774735447434444434444434443334333333434333334444444444444545766766766666646644444333433434334+;33333334333344",
"*$$#$$$$&#&&&&&&&&&&&&&&&&&&&$&&&#$#&&$$&&#&#$&$$&&&#&#&$#:&:::>&$$$$$$$*$#&&&&&$:::$:**$$$:>:::::::>*::1*:&::::o$>*::::***$$$$$"
};
