/* XPM */
static char *result[] = {
/* columns rows colors chars-per-pixel */
"128 128 42 1 ",
"  c #3E2718",
". c #3F2818",
"X c #462C1B",
"o c #4A2E1C",
"O c #4E311E",
"+ c #51331F",
"@ c #4F3421",
"# c #553521",
"$ c #583721",
"% c #573924",
"& c #5C3A24",
"* c #5E3E28",
"= c #623E26",
"- c #603F29",
"; c #664027",
": c #694127",
"> c #654129",
", c #6C4429",
"< c #714427",
"1 c #71472B",
"2 c #74492D",
"3 c #7B4D2D",
"4 c #7E4F30",
"5 c #7E5031",
"6 c #824E2C",
"7 c #86502D",
"8 c #8A532E",
"9 c #804F31",
"0 c #845332",
"q c #8A5634",
"w c #8E5936",
"e c #8F5A38",
"r c #905731",
"t c #915B37",
"y c #945D39",
"u c #985F3A",
"i c #97603A",
"p c #9B623C",
"a c #A1663E",
"s c #A3683F",
"d c #A46940",
"f c #A86C42",
/* pixels */
"==,,21:1:,,==1,,1,1,,,,,,,,,:::::::=::,::,,,,,,,o=,,12,443405544,,1121,2,1:=:1,11211,11,11122222211221,22221222334225423444051,,",
"ywtypaipapppipapaapiyyupppppiywwtyywqyppiyteqeyi#0iyppyypiiipppiywtypaipppaiuipppdddadiyiiaiiiiyeqettt0qyuyyttqweiutpiyyiyiipddp",
"yyiuyyyupppppiiuyyyyyyyyyyutttetytttwyyyyyyyyeey#4ywyyytttwwqeetyiyuuyyipppppipiiipiiiiiiiuyuyyytyuttettytyytttttyteyyyyyteqqwwt",
"tyippaappadpaaapppaspaipppappipppiuuiiiiyyyuuuui#6iyuiyyuiuiiyyyyyipppapaaaaapadapasdddaappapaipiiiuyyuuiuyyyyyyuytyiiyyyiuiuyyy",
"ppdpaaadasddaaaddaaapaaaappppiipppppppappippapda$qpdppapppppppapipdpdaadadddddadassdssasdpdppppiiiiiiipppppiuppuippdppapapppippp",
"appdaapdddaaadaappaapippipiiuuupiipppppapippppia&tppppidapppppppappdaaaaaaadaadaaaapapapiiiaiiuyiyiyipiiiiiiupuupppppppdppppippd",
"ppipppppappapaapppppppiiiiuuyyuiiupiipipiuuuiiip-qippipppppppppppppppppppppppappsapppaappiiiiuuyuyuuuiiuuuyuyyyyyuuipipppppppppp",
"iiiidpdpppapppppipppapppppiuiyuuyupipiiipiuiiipp=qpipppppipippppiiippaapapdppappppaaappapdaipuuyyuiuyiiiyiiiuuyuyuiipppppuuppipi",
"ppuippappapppppppppiipiiuuiiiyyiiiiiiiiipiiiiiip>8piipiiiyyuiiyiiiuiipaippppppppppapappppiipiiyyttyiuyyyyyyuyuyyuiiippiiiuyuuuyi",
"iiiippipppapppappppppipiipiteqwyyityyiiiiiiyyiii=qiuuiuuuuyuiyyipiiuppiipppdpppdapppapppippipyyqqetyttyyyyyyyyyyyyuyiiyiuuyuyyii",
"iippppappappppiyyyyyuuytyyeeqqqttqwetttyyyyyyyyi=8yyyttyyyyyyyuiuiiapaaaadippiiiyiiyuiyyutttttwqqqwwwwwweweettwttttyyyiytyuyyyuu",
"iuipuiiiipiiiyytttwttwqwwqqwqwtteetttwttyttwwwet*6ttytyttyyyyyyyiiiiuuiiiiiiiyiyttyyttytwtwwwwwwwwwtwwtwwwwwtwqwwttytytttyyyyyyu",
"yyyyyyyyyyttyytytttytttwtwwqqqqwwwwtttttewwwqqee&3qwqqqeetettwwttttyyyyyyyytyyyyuyyyyyytyttwwqqqqqqqwwwwwwwwqqq0qqqqqwwettteewey",
"wttttyyiipapiuitttttwwwwwqqweetteewwwwwttwwwwwqe*6wwqqqqqewwwqwweteeetyuippaiiyyttyyyytwwwwwwqqtytwwwqqwqqwwwwqq0qqqqqqqwewqwqqw",
"yyyyyyyiiiiiuyyytttwwwwwwwqwtqqqqqwqttwwqwwwwqwe&6ewwwwweeqwwwtytyyyuyyiuiiiyyyytttyyttttwwttwww0qqqqqwewqwqqwqqqwtwweweeeqeeqey",
"yuuyyyyiiiiuuiiytwtttwwtwwwwwwq00qwwwwwqwqqwqqww&6tetwwwtttyytyyutyyttyyyuyiyyyiyytytyttwttttwwqqqqqqwqqwwwwqqwqqttytttittyiiyii",
"yyyyyytyytttyytttwwwwwwwtwwwwwqqqwqqqqqqqqqqwqwe&7wytyttywyyyttytetttttttttttyyyyywtttttewwtytwwwwqqwqqqqqqqqwwqwwtyiyiyyyyyyyyy",
"ttytyyytttttytwqqqq0qwqqqqqqqqqqqweqqqweqwwewwey*7yeyyyyyyyyttyyteyttyytttetttwwtwwwwqqqwwwwwwwwqqwwewqwetttwewwwtyyyyiyiyyyytyy",
"ttttttyttytttwwwq00qq0qqqqqqqwewwttwqeeyteywyeyi-qiyytrtyyywwtttetettytttttttwwtttwqwwwwqwwwwwwtyttyywwwetyyytettyytytteyyytwyty",
"ytyttttyyttyyytwwqwwwwwttwqqqwwwettteyiiyyeyyiii>7ytyyyyttyytttyyttttttyyyttyytytyttytytyuiyttwtyyyyyyyyuiiyttttyyyyyityytytttyt",
"009999999999099433303003333400553300qq544000weww%6qqqqqqqqq0wqqqq09994490040900090005005003,1345532223405122245q0000000000000000",
"o+++++#+###$#####OOOOOoXXXXOOOOXXXo#@#OO##$#+$&$#$***&&&*$&&$$$$###O####+O+++oO+OoXoooOoOoXXXXoooXXXXXoXoXXooXXo XOOOOoOO+O+++##",
"qqqqwwwqwtyytyytwwwtyytq00000wwwwqqweyyqwyiytiiyiytwwqqqqqqqqqwtwqqqwwqqwyytwtiitwwttyyiiywqqqqqtytytwwyyy0wyyey+7ywqqqqq0q0qwqt",
"wwqwwtwtyytttytqqwwwwwtwwttw00qwwyyttyiuywtyiiiiyittwqq0qwttytwwwqwwwwwtuyttyytwwwtwtytyeyeyeytqqwwwyytyyiiteyyi+3ytwqqqqtyyttww",
"wwwwtwwtteetetwwqqqwqwwtwqqwyyyttttttyyyiyyyytyytyytyiyiyyyywwtttttwetwttwtyeewtttwtwyyyyyywttyuiiuyyyytyyyyyyyy+3yyyyyiiyyytwwt",
"yttytyyteettttwwwwwqwwwttywywewtyyyyyyyeyyyyyyytytytttwttwwwwwwttttttyywtteytttytwwtyttytyyyiyyuytyyyyuyyttyuyty+3yeyttttwwwwwtt",
"ttttywytywtttttewwqwwwttyytyyyyyytyttyuuiyyyyyyyyyttyyyteeeetttttttyttyyywwtttytytytewtyiiiuuuiiiiiiyyyyuuuiyuyy+3yyytyttwewttty",
"yytywyyyuytttytewwwwtttyyyiiiyiiiiyuuiuuiiiyuiiuyiiuyyyyyutyyetyyyttetyyyttyytttttytyytiyyuipppiiipiiuiiiipiiyyi+7iyiyyyyytyttey",
"ytetyyyyttttttwqqwwwtwttyyttyyyiiipipppppppipiiiiiiuiyiytttttttyyttttyyyttwytwewtttttyytyyyyyyyuuipiipppppppiiii#7piiiiyyttttttt",
"ytyiyiyyttwuuytwwqqwwwwwtttwytyyiyiuiiiiipuipppiyyyyyyiiutytttyyyyyyuuyyyttiyytwwtyytttttyytyytyyuiyiiupiiiiiiyi#4iyyyuuyttettti",
"ytiteiyyutttyytttwtwwqqqqwqqwwwtttytyyyyyuytyiiyyyyyyyiiyttyttyyytyttyyuywtyyyyyytyttytwwwwwttttetyyyytyyyyyiyty+3iyyyyityyytyiy",
"ttttteeytwwtwtwtwwqq0qqwqqwwwwwtwwttttttyyyytttyttttyttyytytyttttttytttyywwwtytyyytytteqwetwtttwettwwttywtteyytyO3ieytttytyttttt",
"twttttttttwtttyttwqqqwwwqwtwqqqwqqqqtwwttttyttttttwwwtwwwqwwwwwttttyytttttttyeyyyytyttwttwtttwwwqwwqqwwwwwwwttty#2ytttwtwwqwewtw",
"wwwtttttwtwtyttwqqqqq0q0096q000q0000qwqqwqwttewwwqqq0q00064000qqqwqytttttttttyettwtwwqqwq8qq9qq00qq00000q0qqqwwwO1qq0q00990990qw",
"000qqqqqqq0qwqq9q9q0634409904900099999909qqqq00qq000000004404400000qqqq0qq0qqqq0qqq90q0999990qq900qq009909000q00o<00000003994490",
"00000qqq0qqqqq0q99999900090007qq00000009q900000q00q0q00q00qq06000990q0qq9qqqqqqqq00q9qq90qq0q0000q0000q000000000o<0q0q00qqqq0000",
"qqqqwqqqqqqqqqqqq6909qq0qqqqqqqqwwwwwwwwqwqwqqwwwtwwwwwqqqqwwwq0q0qwqtqqqqqqqqqwqqqqqqqqwwqwqwqqqwwwwwwwqwwwqqqw#3tewwqqqqqwwwqq",
"wwtqqtwwqqttwqwqwqqqwwqqqqqqqqqwwwwqqwttttttteewwwqwwqqqq00qwqwqtttqtttqqtttwwwtwwwtqqqwqqqqwqqqwwwwwwqqwwtweeey+2wwwwwqq9qqwqqq",
"qwwqqtwqqqqqqqqqq9q9qq0qq009qqqqqwqqqwwttwtwtewqwwwwwwttwwqttwwwttqqqqwqqqqqqqqqqqqq0qqwqwwqq0qwwqwwwwqwwwttwwqe+2twwwtwwqqttqqq",
"tttttrwwqttqqqqq9qq0q0q0qqqwqqwtwtwttwtyuyyyyyttyyyyyyiyyyettyttttttwttqwtqqwqqqqqqqwqqqqqqwwqwtwwwtttwtwyyyyyui#6uyyyyyyytyyyty",
"yuuyuyyytytyyyttwqqqqqqwqwwteetiyuuyyuipipiippiiiipippipiiywyuyutuuyyuyyyytyyytyyttwqwqtwwwwtttyyyuyiiiiiippppii&8pipppiuuywyyyy",
"iiiyyyyyutyyyyttwwqqwqwwtytitiipiipappppuadppaapapapapppppiqquuuuupuuyuyyytyyyyettttttqtttttyyyyuupppppppppipppd*rdappapapy0qyuu",
"OoXooooXooooo#oOoOo+o++####++&$$*=,>::=:::>====,=;:::;*&&&###%#$$$$$##@OOOOooXXXXXXooXooo+OO####$$$$$$$$$#&$###$o+$$$+#++++OOOOo",
"04443443444000999993499957544707qqwqqqq0qqq0qqqw$3wwwqqq0qq00000900000000q9943433442244990069964000000000700000400000q0090000000",
"yyyyyyuyyttttttwqqqtwweewetwtttyyytettyytyytyyty*7yyyyyyyyiyyuuyyytyyyyyttttytttettwtttttttytytttyyyyyttyyyyyyttwtiiyyyyyyiyyyii",
"yttyyttttwttttewq0qrwwwqqwwwtytyyetwtwwwwtewewty*6tyyyyweyyyttyyyytyttewtqtttttttwttttttwwwqttwttttttwwwqqwewqqwqqwtytytyyyttyty",
"ttqetwwwqqqwewwqqqqqqq0qqqwqqqtttwqqqqwwwtwwwttt*6ywetyyyyywtwtttwqwtwwqqqqwttqwqqtwqwqtwqqwwwwwtwttqwqqqqeqwwwwwqettytttytttttt",
"twwttwwtwwwwewqwqqqqq0qq0qwweqwwwwqwwwtwwwwwqwee*3qqwqqwqwwwewttttwttttwttwwwttwqttqttrqwqqqqwwwwwwwwwwwwwwwqwq0qqqqqwwwwwtwwwtt",
"wetwqqwwwqwqwqqqq7qqqqqqqqqqqqqewqqwwqwqq9qqqqqt&3q00qwtwwwqqqwwwwwwqqwqtqqqqqqqqwwwwwwqwwqwqqqwqqqerqqwqwq9qqqq00qq0wwwwwwqqwww",
"ttwqqqqwwwq0qwq0q0qqq0qqq0qqqwqwqweeqq00qwtt099w&6wqqwttq90qqewwttwqqqwwwww9qtq900wwqwqwqwqqqqqteqtqwwqq009qqqq900qqqtttq90qwwww",
"ttwwtttwtwwqqwqqq00q0qqqqqqqqtqwewwqq000wqqq99qq&6qqwwtuttttetttttwwttttttwqqttq0wwwqqqqwwqqqqwwewwwqtq099qq8qq400qwwwtyttewtwtt",
"ttwwwwtqwqqwqwqqq0qwqqqqqqqqqqqqqqqqqqqqqqqqq99q&9q0qwwwwttwwtttttwwwrqqqwqwqqwqwwwwqwwwwwqwwqqqeqqwqqqqwwqqqqq9qq0qqwwwtetwwttt",
"qqwqqqqqwwwwwtwwwwwwtwwwwwwqqwwwwwwwwwwtwtwwqqqw=6wqqqqqqqwqwwwwwqqqqqqwwqtwtttttyytwewewttwwwwwwwwwqtttwqwwwwwqqwwqqqwqqwqwwwww",
"twwttttttwwttttetqwqwwtwwwqwwwwqqqwwwqqwwwwtteey=9ywwwwwttttwweetwttttttttqtttttttytttwettttwwwwwqqqqqq0qqqqqwwwwwwwwwwwwtwttwww",
"yytttyytyttyyyywwwtttttttwwwwwwwwwwwwwwwwwwwweet*9ytttttyytytyyyytyytyyytytyyyteytyytyyyttytwtttwwwqtwqqqwwwwqwwwttttttttytytyyy",
"yyyyyyyytyyyyyttttytyyyytyywwwewtwttttttttttttey=7ytytyttyyyyttyytytyyyyyyyyyyyytyyyyyyuyyyytttwwewetttwtttwwwwwtttttttyytyyyyty",
"yyyyyuyyyyuyyyytttttyweyyttewwwwttttwwettwttewty-7ywttyttttyuyyyyyyyyuyutyuyytuyyyyyiuuyyyyyytwweewweerwwwwwqwwqwwtwtttttyttytyy",
"ttyyyyyyyyyyyyyyyyyyiyyiittewtyywttteeewtwttwtty-7ywtyyttttttteyeyyytyyuyyyuyytyyyiiuuiyyiyiyyttueewttwwwtwwwwwwwyttyyyttttytyyy",
"tyyuyiiiiiuiiiuyuyyyyyyyittttiiytytttyytytteetey-7yyttttttytttttyeyyuuiiuuuiiiuiiipiiiiuiiiyyyyyutttuttettttwtwwwtttttttttttyttt",
"yyuyuipppiiupiyuyyyytyyyiitieyiyttyttyyyttteeeey=7yeyyttttytyyyyiyuyyuipuuuuiiiuuyiiiiuyyyyyytyytuuteteeyttwtwqwtwtwtyyttyttyyyy",
"uyyyyuipppipppuyyyttttyeetyytyitytttttttttyyewet-9tteyyyyyttuuuuyuyyuuiipiiipiiiiyiiuiiyyyyyyyyytyttrwwtyewtetwttwywtyytyyttiyiy",
"iuuuippppdapddpuuuuuiuyyiippiiiiuyyuyuutyyyuytyi=7ytettttttuyyiiiiiiuuippadpdddppaapppipipiipuuuuuuyuyyuiyyyyytttyyyttttytyyyiip",
"dpaddpppadpaddaaadadddddssapppppaappaapdapapiiii-rpuuuuuuuuiiiipppdpdpppddaaddddddfffdddddddpdaaappduupapaapppipiiyiuyipipipiipp",
",,===&=&=&&=&&=====,,,:,:::,,;,,=:==::,::::>,124#=31122121,11124432222224222,,::,,1,,,,,::>>===&=&&=====:====::>,::>;::;:====;:,",
"$&$===$=$&$##=&&&=&====>:::;=======&========:,,12311321221244322::,243,3,2,,,1,>,,:::>>>>:::**&$##++$$$======*== ===,>==>:,,,:>=",
"uttyippppapiupppaapuyyiiipiiutqwtyywwypppiyeqyyyypytpityiiiiiappittyiiiaiapiippppddddaiyyipipiiytwttyyqqyuyyetweO9uyppyupiiiaadp",
"yuiiiyiippppppuiyyyyytuyuyyyttyttttttyyyyyuyytttyiytytyyyeyqqwttyuuuuyyuiipipiipyupiiuiuyyiiyiyytyyyttwtyyueytyy#3ytyeyyyteqweet",
"tyiapppppddapaapppaaappppaappipppiiuuuuuyuiiiyiiiyyyiyiiiiiiyyiytuiipapiaddadpdddpaadddaaaaaaapiyipiyyuuuiieyyyu#4uyuuuiuiiuytut",
"ppaaapsddsssaaddasaaapadaaiapppippppppaapppaappapppaapppppppppppiadpdaddpdddddpddaddddadaadppappiipiiipppppipppp#9apappadpppippp",
"pppassspsspaadappppaapiiiiuuiyuiippippppiippppppippppppaapppapapiapdaaaaddpdpddpadpapapiiippuuiiiyiyipipuuuipipp#9dppppppppipppa",
"ppppppapapapapapipupiiiiiiyiyiyiiuppipiiiuiiiiiiiiipppppppppppppipppippippdppdpddppppppdpippiyuyyiiiiiiuiiiieeyu#6iiipuppupaappp",
"piiipsppppapppppuipaapapiiiuiyiyyupipiipipiiiuiiiiiiippppiiipipipiipapaapppppppuipdpdapdappiuuuyyyyuiiiyeiipuiui#6iipppppuiiiipp",
"puuippppppappppppipuuiiiiiiiuyyuiiyyiiiiipiipiiipiuipipiiuyiiiiipiyipppppdippppdpppapapppipiiiuyttyiuyyyyyyyyuyu#7pipiiiiuyyiiyi",
"iuiipppppppapppppppppuppiupywwwtyyyyiyiiiyuuyuuyiyyyuuyuyyyyuyyiiippppppppdpppapappppppppppiiutwwwyttttyyyyyyyyu#3iiiiiiuuuyyuuu",
"iippppapapppppiuyyyyyyytwtwwqqqttwtwtttyytyyyytyyttyyyyyyyyyyyiiiipppppapdiiiuuiiyyyiyyuytwttew0qwwwwwwwwwtteteyO3ittiityyyyyyyu",
"iiiiuuipiiiiiiyttwtttwqwwwwwwwettttttttttttwwwtwttwttytyttyyyyyiuiypupiiiiuuuuuytyyyytytwtwwwwwwqwwtwwwwqwwtwtqe+2yttttteyyyyyyi",
"ttyyyyyyyyyyttyttytyytttttwqqwqwwwtttttttewwqwwwqqqqwwqwwttwtwtyeyytyyyyyyeyyyytyyyyyyyyyttewqqqqwwwwwwwwwtrqqqqO2qqqwqeeeeyeyey",
"wttwtyyupppppiitttttwwwwewqwyyyyttttttwttttwwwqqqqwwqqqwwwwwqqwwweyqeyyuuppaiiuyttyyyyyttttttwtyyttttwwwwwqtqwqqO2trqqqwwwqqqqqq",
"yyyyyyyipiiiiiyyytytttttyttyywttytytytttttttwwwtqwttwwewtwwwtwyyyyuyyyyuuiiiiuuyyyiyyyyyyyytytyttwtwwttttwwwtqqw+2ywqtweewqwwwyy",
"iuuytyyiiiiiiiiiyyyyyyyyyyyttytyttytyytttttwwwtwwwttttwtytyyyyyipyuyyyypipiiiiiiiyyyyiuyyyiyuyttttttttttwttqwtwtO3itetttttyyyyiy",
"uyiiiyyiiuiuiiiiyuuuuuyiiiyyyyttytytttttttyttttwwwtyyyttyyyyiyyyuyuuiyyiiiiuuiipiuiiiiipiiiiuyyytttttettwwwwwewyO2yyitttyiyiytii",
"ttyyyyyiiiiiiiiipuiyipyyuyyyyyyttyyttyyytttyyttytyyytiyyyytyyyyteyyyyuyyiiipiiuippappiuiiyyyyuiyyttttttttttteeey+3iutiiytttititw",
"iiuyyyiipuyypippyyyueyyyyuiiiuyetytyyyyyyttttytyyytttttttyityyyiiiiuyyipiiyuiipaiuuyiiuyiyyyiiiiytttettttyttwttt+3yrqteeiiittyyi",
"itiipiiiyipaapiuuiuyiyyyyyuiiyyyyyyuyyytyyyyyytytytwtiiyyyttipaiueuiiiuuyippdipuiiippyyiyiyyyiiiuyytttttwtwttttt+3ittiiittwtiaap",
"3300500qwwtewqqqq00009090000qq0043433234533333090q04qqwq7440qqq045ww040wewteq0qq0qeeq0q42434434099q9400390q00400X2040ee004900005",
"oXXooOOOO@##oOOOo@#@@o@@@@o@@ooooXXXXXXoXoXoXooo.XOOOOOOOO++O#&&$#$&&%#%&&&&##@#oO#oO#@oXoooXXooXo@ooooXooOoOoooX+OOOOOOoOOOXXOo",
"iiyyyiyypaapiyipieuauqeeeuyyuyeyytyyettyeyyyyyyy@3iyiyyyyiiiyyippiuyipyydaddiippiipyyipywytiyyyuyetteyewettttytwyyriiittyiiiyyii",
"yuipyyiyiiiipiiieyuiuipiyiiiuyyyyyiiiiiiiiiiyyii#3yeiiiiiipiyuyyiipiiyyyiyyippuuiiiuiiipuiiuiipiuuyyyyyuuuuuyyyyyytyiiiiiiiiiyyy",
"iuuiiyyipppiipppppppippipppppppppppyippiiipipppp#3ytyiyiippiupiuiuyiuuyippipippppippppppippippppyipiuuyuiuyyyiiiitttyiiiiipiipiu",
"pppppppppappappippppapapppppppppppppiipiiiipiipp+3ytwyyyyyyyyippapppppipdppppdpidippppapapppppippppiiiuuiiiuyiiyyytttttiyuuyyipp",
"iiiippppppapdppppapppppppppppapapaapppppiipipppp#3yttttyyyyyyyyuiuiipppapppdppppppadapppppaapippppppapiiipiyiuuyitttytttyytyyyuu",
"uuipppppapaspapdpaddaaaddaapappppppppipppiippppp#4iywwwyyyyyyyyyuuuppippaapddpdddapdddfaadaaaappapppiiiuiipiiiiiiiytwwttyyyyyyyy",
"ppippppaddddaddpaaadaadaaadaaaaapaapiippiiaipppa#0iyttyyyiipppiuippppppaddddpddddpddddapdddaadpdadiipaiiiiiiiiipiiiytyiyiiiippii",
"pipppippipupiiipppaappaaaaaappppppippppiiiiipyia#7iiyuiiippppppppppppppppipiuupppupapadpppaadpaaipiuiiiiiyyyyiiiiiiyyiiippppippp",
"pipiiiuuuuiuipiippppaaaapaappipiipppipiyiyiiiyii+6iyyyuyyuupiiiiiipiuiuuuipuupiuuppppppaaaapppppiuuiuyuuiyywyyyyyyyytyuiiiipiuip",
"upppiiupppppppppppppiiiapippppppipppppiiyyyyyeii+3yttyytyyyyyyuuippiiiupppppiippppapppppipppiiiiiuyuiiuuyyyyyytttttytyytyyyyyyuu",
"yuuiuyuipppiipppppppipaipiiiuiiiyiiiiuyuyyyyyeyy@3iyyiyyiiuyyyyiyuuuuyuupppippppppppppppiiiiiiiiyiyyyyyyiyytyyyytttyyyyuiiyyyyyi",
"iuyyiiapiyiiippipiippiuyuuuuiiiiiyyyyyyyyttyyeyi#3iyyyiiiiytyypiiuyyupppiyiiippppppiupiiiuiyyyiyyyyyyetetttttwttttyyuyuiiuywyipi",
"wewtpppyqyippiyyuippuiiiiiuyytyyywttwwwwwttweyey+2ywwytyqqqtuipiwwtypppywypppiyyuuuippipppiiiyyeeeewwwwqqqwwtwttwwwwttyywqqtuupu",
"ytttupaiwyppiyyiiiyiuyuyyeewwytqqqwwtwwqwyyteiiyO2tryyiitqqwttiiytttupdiwtppyyiiiiiiuyytytwewwqqyeqq0qqwqqqtywetwwwwyiuieqqwtyii",
"iippyyipppiipppppiytwwwqeyyyyyyewttwteyyyytyiiyy#3iiiiiiiyuyywwtyippyyppiiyippppappiytewwwwyuyiyyytwtewwwtitytttttiiiiiiiyyytwwt",
"uyyuippppppiiippiipiuuuiipiiuyyyyyyyyyiiyyyyyyyi@3ytyyyyyuyiiiiiyyyipiupppppiippippiiiiiuiiipiuyyttttyyttytetttttttwyytyyuyuuiuu",
"ipppppiipippppppiiiiiiiiiiyyyyiuuyyyyiyyyyuyyyyy+3iyiiyuiiiiiiiipppppppiipppppppipipuuuiiiuyyyyyyiyyyyittyytyyyttyyyiyyiipiuuiii",
"iuipppppppppppppuuuuuyuuyiyyuuiiuiiuiiyyyyyyyyyu#6yyyyyyuipiippiiiiipppppppppippiiiuuuyuyyyyyyyyyiytiiytyywytttyytyyytyyiiipippp",
"dppppapppppppppppiiippiiiiiiiiiiiiiuiiiiyytyyyyu#4iiyyiippppsppsaapppppppsppppspppppippipiiiiiyiyiiyyyyyyitttyyyyuuyyuipppppaapa",
"papappsassddspspaappappipiiiiippiiiiipuyyuuyytyuO3iyiyiiippppppppappaaddpssapapppppiappppipiiiiiiiiyyyyyiyyyytttyyyiupiiippipppi",
"@###+++++#&*&&&&*==>>;;===*==&=&&$$&&%#@O@#ooOoO.XOOOOO+O@##OO+O###@+@@+O+++++O+#@##@#%&%&&$&%&%$*======;&&&**&&##&$$$$##@O@OO#O",
"qqqqwwwtqwwqqqtewtyyyyyyyyteeyeqqqweeqqq00qqqqq0qqqqqq00000qq00qqqqqqqwwweeeqweeeqqqqqqwwwqwwqqqwywwwwwtqeqqqwww&30qq0000q0qq00q",
"yiiiiiiupppppipiippppppipiiuuiiiipiiiiiuttuuuuuuiiitiyttyytiyyyyiiuiiiiupppppipipiiiiiiiiiiiiiuiiiyyyytyiitwttyi*8yyyytttyyyyyyy",
"yytwyyytyiippiiiyyyiyyiiiiyyyuiuyuiuyyiyttteetutyiieewwtywtyytwtytttyyyttiiiiiiyyyyyuyyutyyyytytyytttyttetwwwwty-qyttwttytttyett",
"wwqwtwttttttiitttttwwwqwwqqwetyyttytytyttttteuytetyeeetwwwwwtwqwtwwqwwttttttyiytyyewwweqqqqqqqwwwtwwtttwwtwwwwty=7yywttwtwwtwwqw",
"qwqqqqwwwwwwwwwqq0qwq0q00qq0qqwetwttwtwwwweewwqwqqqqqqqqqqqqwqqqwwqqqqwqqwwwttwwqwwqqqqqq0070000qqqwwwwwqqwqqwwq&3qqwqqqqqqqwqqw",
"wwqqqqqqqqqqqwqq00qq00qq0qq00qqqqqqqwwqqqqqqw0qqq9q00qqwqqqqqqqqqwwq0qqqqqqqqqq9qwwqqqqqqqqqq00q0q0qqqqrqqq90qqq&3qq0qqwqqqqqqqw",
"wtwqqqwwwwqqqw000qqqq0qqq0qqwwqqqwtqq089qqwt00qqqqqqqwweq90qweweteqqqwqwwqq8qqq000wwqwwqqqqqqqwwwwwwqqq0999qqwq0%3qqqwtwq90qwwww",
"tttwwttttwwqqwqqq00qqqqqq8qqqwqqwqqqq09qwqqq9900qqqqwwttttttwtttttwwtttttttqwqwqqqwqqqqqwqqqwqqwwweqtqqqq9qqqqq9+6qqewtytttttwwt",
"ttwwwqwqqwqqwwqwq00qqqqqqqqwqwqqqtqqqqqqqqqqq090qqqqqwwwwtwwwtttttwwwwwqqqqqqqwwwwwqqwwtwwwwwrqqwqqwqqwqqqqqqq0q&3qqqwwqwttwwttt",
"qwqqwqqqwwwwwwwttwwqwttwtqqqtwwwwwwtwwwwwtwqqqwqwwqqqqqqqwwqqwwqwqqqwqwqqwwwtwttwyyyeeeewttwwwwwwwwqwwwqwqwwwwqw&6wqqqqqqqqqwwww",
"twttttttwwwtyytwwwwwwwwtqtqttwqqqqqqwqwwqqwtttwtttwtwwwwtwtweewttttttttttwwytyttywettteetttwwwwwwqqqqqqqqqqqqwwt=6twewwwttttwttw",
"yyytyyyyyttyyyttwwtttttttttqqwwwtwwqwwwtttwwwwwwtttttttytytteyyuyytttyytyttyyyyttyyytyyyttytttwewwwwtwqqqqtwwwqe=6ytttyytytyyyty",
"ytyytyytyyyyyytettttttyyytttttqttttttwttttttetyttttttyyytyyyyyyytyyyyyyyyyyyyytyyyyyyyyyyyiyyewtwwwettttttttewwy*7ytttytytyyytyy",
"yyyyyiyyyyyyyyyttyeyyeyyyyttwwtwwettwwtetwtttwwtttttttttttyyuyyyyyyyyyyyyyuuyutyyyuyuyyuyyuyyytteeerwewqwwwwqqww=6ttttyttyyyyyyy",
"ytytyyyyyuyyyyyyyyyyyyyyyutttyttetttwwttttttttttttttyyyytttytttyyyyeyuyuyyyyyyyyyuuiiiiyyyyuyttteueeteeettewwwwt*6ytyyttttttytyt",
"ttyyuiiiiipiiiuuyyyyyyyyyyytyuyytyttttyytttwttttttttttttttttyetteyyyyipuuuuiuuuiiiipipiiuyyyyyyyyyuteuerttttewww*6yttttttttttttt",
"yuyuiiiiipiiiiuyyyyyeyyyyttyyyuytyytttytyttttwwtttttytttytyyuyyyyyuuuiiiuuiiiiuuyyiiiuyyiyuutyyuyyttreeetttttwwt=6tytytttyytyyyy",
"yuyyyipippppppiiyyytetteyytyytttyewewyyywttttwwwtttttytyytttuuyyiyuiiiippppppiiiypiiuuuyyiyyyyyyytytteeeteeweewy*6yttyyyyyttuuuy",
"ipiupipppaapdaaiiiiiyuiuiiiuuuuuuuytuuyuyuuyyyytyytytttttytyuuiiiiiiiippadppdadppapappiiipiipiiiuuuyuyuuuuyyuyey-0ytteettttuyyuu",
"aaaaappaaaasddaspddsaddaapdaaaapdppupddppdpppppipuiiiuuippiiiiuiapdaapiddapdddddaffdffffdddapdapppuduuupppaiiiip=qiiuyuiuiuipuup",
"11:,11,12,,,1111112122221112,11,,,,,,,,2,,,11,,1,11,,,,1,,22140421,,111,1,,,111,22222222,21444444949932324222444#<4442424421,,12"
};
