/* XPM */
static char *result[] = {
/* columns rows colors chars-per-pixel */
"128 128 43 1 ",
"  c #3E2A1D",
". c #442D1F",
"X c #462E21",
"o c #482F22",
"O c #473022",
"+ c #4C3324",
"@ c #513626",
"# c #533827",
"$ c #533728",
"% c #553928",
"& c #5B3D2B",
"* c #5F402E",
"= c #5F4130",
"- c #62412E",
"; c #6D462F",
": c #654431",
"> c #694632",
", c #6D4934",
"< c #724C36",
"1 c #7B4F36",
"2 c #764F38",
"3 c #784F38",
"4 c #7D5037",
"5 c #775039",
"6 c #7C533A",
"7 c #815136",
"8 c #82563D",
"9 c #88573B",
"0 c #86593F",
"q c #89593E",
"w c #905D3F",
"e c #875A40",
"r c #8D5D42",
"t c #905F44",
"y c #8F6044",
"u c #936246",
"i c #976548",
"p c #996749",
"a c #9C694B",
"s c #A16D4E",
"d c #A4704F",
"f c #A67150",
"g c #A97352",
/* pixels */
"--,<<<><><>-:<,,<,,,><>>,<<,>,>>>>>->,>>>>,,,<,,X-,>2<,566606666,,<<5<,<,<;-;,,,<<2<<,<,<<<<<<42<<552<;211<2223366338625666082,,",
"uutuaaaaaaaaiaaasssaitpaaaaaittruiurqtaaaitrrtua%qauaauppppaasaaiyuuaapaaaaapaaassdsssaiuaapaaiuuqquuu0qupiutrrquaiuapupappaaasa",
"uppiuuuiaaaaapiiiitiiiiiutitutttuuurtuuiuuuiuutu$6uriuuiuuyqyyyuiiiiiiiiaaaaaaaaiiaapppiiippuuuyuuuuuyuuuuuuuuuuuuuriuuuuurerruu",
"uupasssaasddsassaassaapasasaaaaaapiiapapiiippipp%8piiiiiipppuuiuuuiaasaaasssaassssassdddsasassaapaapiiiiiiiiuiuipiuupipipppppuuu",
"aasassssddddddssssssssasaaaaaapaaapaaaaaapasaass%qaaaasaaaaaaaaaaassssssdddddddddddddddssssaaaaapppppaaaaaappaaapaaasaasaaaaapaa",
"aassssssddsasfssaaasapaaapaiiipppaaaaaaaapaaaaps=uaaaaasaaaaaasaaaasasssssdssssssssaasaappaaaiiiiipippiipaiippiiaaaaaaaaaaapaasa",
"aaaaaaaaasssaasaaaaaaaapppipiiupipaiaapppiiiiaia:qapapaaaaaaapaaaaaasaaaaasaassssaaasaaaaapapiiiiiiiippiiiiiiiuiiippapaaaaaaaaaa",
"apppsaasaaaaaaaaaiaaaaapaaiiiippiiiapppapaipiiaa>qppaaaapaiiaaiapaiaasasaaaaaaaaasssassasaaapipuiiiiippiipipiiiiuippaaaaaapapaap",
"pppppaaaaaaaaaaaaaapapappippiiiipiiippipappppppa>qaaaaiipiiiiiiaaiiaaaaaasaaaaaaasaaasaaaapapppuuuipiiuiiiuiiiiiiipppaapiiiiiiip",
"ppppaaaaaaasaaaaaaaappapappirrruiiiuiiiipppiiipp:qiiiiiiiiuiuiiiaaiiaaaaaaaaaaasaaaaaaapipaappurqruuuuuuiuuuuiuuiiiiiiiiiiiiuipi",
"ppaaaaasaaaaappiuuiiiiiuuittreruuryyuuuiiyiuuiui-8iuiuuiuuiuuiiiiiaaaaaaaaaaaaapiiiiiiiiiuuuurrrqrrturryutuurutuuuuuuiuiuiiiiuii",
"pppppppaappapiuutrruurrrrrrrryttruyuuryuiyyyyryi-8uuuuuuuuiiiiiipipppiaaapapiiiuuuuuuiuuurrrurttururrruyrrruutrruqyuuuuuuuuuuiii",
"uuuuiiuuuiuuuuuuuuuuuuuuuyrrrretrururuyuyyyrrrry*7rrrrruuuuuuruuuuuuiuuuuuuuuuuuiiiiipiiuuutrreerrrrrturrrurqreqqqrrrrruruuuuuuu",
"ruuruuuipaaaapiuuuutrrrrrrrrtutuyyyrruruyyryyrry&8urerrrwyuqrrrrruuruuipaaaapiauyuuuuutrrrrtrruuurrtrrrqrrruryrrqrrrqrrrruyqqtrr",
"iiuiuipapppppuiuuuttryrryyrrurerreyruuyyrrutryyy*4urrrrrurrrtruuuiuiuiuiipppiuuiuuuuuuururtuurureerrrrruurrrryrrrryyrttuutruruuu",
"piiiuuuppiipippuuuyyuruuruurrrrerrryrrrrrrrrrryy*8uytuttuyuiiuuiiuuuuuuiiiuiiiiiiuuuiuuurruuuyrrrrreryrrqyyrrrqrryuiuuuuuuiiiiii",
"iiuuuuuiuuuuiiuurrrrtttrtttttrrrrrrrerrrereryrry:7tuuutuuuuuuuuuuuuuuuyutuuuuuuiiuuuruuututuuuururrrrrerrrrrerrrrruuiiiiuiiiiuiu",
"uuuuiuuuuuruuurrrrrrerrrrrrrerrrrrrrrrryyyyyuyyu&9iuuiiuiiuuuuuuruuuuuuuutrururruurrrrerrrrrtrrrryrruurytttuuutruuuuuiiiiiuuuuiu",
"tutuuuutuuuuttrreeeereereerrrrttyuuyryuuuuuuuuup:qiuuttuiuuuuuuuuuyruuuyuuuuuutuurrrrrtrrttrutrruuuuuuyruuuuuuutuiiuuuuuiuuuuuuu",
"uuuuuuuuuuuuiuuurrrrtrttirrerruryuyuyupauuuuupip:qptuiuiuuuuutuuuuuuuuuuuuuuuuuuuuuuiiuuuiiiutuuiuuiuuuipppuuuuiuuuuiiuiuuuuuuuu",
"0086886888888886868888e333680e864680rq8668qrryyy&6rrrerqerrerrrreq888868888800088088800808622668665126886223668ee0e0000080008080",
"+@@@@###@@%%##%%$+o@+++ooX+++++OoO+@@#@@%%%%%&*%$&&--&&*&&&&&%%&%##@@@%@@@##+++@@+OOOO++++X.XXOOOO..X.OOoXXoOXXO o++@++++@@#@@##",
"errrryrqruiiuuuutrtiiitrq000eruyrrrqiiuquiiuyupiiiirtrerrerrqrrurerrrtrqruiuyupiurruuuiaputteeqruuuutrtupueriiui@6iryrqqqqqrrrtu",
"trrruruuiuuuuitrrrrrtrtturtteerryiiyuippuruipippuiuutteertuuiutrtrtrtttuiuuyuiurttutuuuuuuuuuiurrttuuiuuippuruip@7iuyrqrruuuuutt",
"tttruutuuruuryyrrrryrtrrrrrruiuuuyyuuuiuiiuuuuuuuuuuiipiiuiuurtuutttuuyuuruurtutuurutuuuiuuutuuiiipuuuutuuuiiuuu@4iuipiiiiuitruu",
"uuuutuuttuuuuuuqryrrrrruuuuuurruuiuiuuuuuiiipuiuuuuuutyuttururytuuuuuuuruuuuuuuuurryuuuuuuuipiiiuuuuiippiuuuiiuu@4iuyyyuurtruryu",
"utuutuuuuuyuuuuurrrruyuuuuuuiuiiuiuuuuipiiiuuiuiiuuuuuuuuutuutuuutuuuruuuuttyuuuiuiuuyuiiiiiiiiapppiiuiuiiiiiiui@4uuuuuuuttuuuuu",
"iuuuuuiiuuuuuuuryyryyuuuiiiiiiiapiippipppppuppiiipiiiuiiuuuuuuuuiuuuuuuiuuuuuuuuuuuuuuuiiiiapaaipaappipaiaapiiip#8aiiiiiiuuuuyuu",
"uuyuuuiuuyuuuyryrrurtutuiuuiuuiappppaaaaaaapappuipppiipiuuuuuuuuuyuuuuiuurruuyryryuuuuuuuuiiiuiiipaaaapaaaaaaiia#8aiiiiiuuuyyyyu",
"uuiiuiiuuyyiiiurryurttruyuryuuuuiipiiiiappiiaaapiiiiuipiuuuuuuuuuiiuiiiuiuuiiiuuruuuuuuiuuuuuuuiiiiiipipaiiiiiua#8aiiiiiuuuuuuuu",
"uuiuuuuiiuuiiiuyyrrurrrrrrrtrrruuuuuiiuippuuupiiuuiuuuiiiuuuuuupuuuuuuiiiuuuiiuuiuiuuuurutruurtuuruiuiuiuiiiiuyu@4iiuiiiuuuuuuii",
"uuuuuuuiurryyyuurrrreerrrrrtrrruyyyyuyyuuuuuuuyuuuuuuuuuuuuuutuuutuiuuuuurryyuuuuuuuurrrruuquuuruuutrruuyruuiuui#5iuuuuuuuuuuuuu",
"ruuuuuuuuruuuuutrrrrrreeerrrerrteeetttrttttuuuututyyyuttrrtrrtttuttuuuuutuutuuuuiuututtrtutttutrqrrrrrryrruuuuuu@1uuuutrtrrruttt",
"rrrtutruuutuuuureeeeereeeeeeeeeee99eeerrrrttttttrrqreq0008808eerrrtuuuttutttuuutttttrrrrrreeqre00rrq0000eqrerrtr@<reee00088880er",
"0qqerrreqererrq0eee9e77ee7e7e7eee7773eeeeeereeerr00e00008860868qeq0eqrererrrrtrqrreeeeq0700e80000qr0008888eee00e+<0e000088888600",
"000erqer0qereeeqe7e97eeeeeeee7e9eeereeeeeeeeeeeee00eee0eeeqqe88q000eeqreeqerreqreqeeqrq0qeeeqe0qqe00q0ee00ee0000o<eeee0qeerqe800",
"qerrrtrrrrrrtrree9eeeereeereeerrrrtttrttttttrrrtruyyurrrerettreqeerrrrrrrrrrrrrrrrrrrqrrrrrrrrrrrurrrryyrrurrrrr@1utrrrrrqerrrre",
"ttrrrttrrrrttrrtreeerrrerereettrtrtrrrttttttttttuyrrrrrqeqqrrrrrrtrrtturrrtttttttrrtrrrrrrrrrqrrrruuruerrrurtttu@1trurrqererrrtr",
"rrrrrrrrrrererreee9eereeeeeerrrrrrrtrrttttttttrtrrrrruyyutruuttrtrtrrtrqreqeerrrrrreqeerrrrrqrerrrrrrrrrruutrtrt#1ttrurrttrutrrr",
"uuuututrrrttttrqereereeerrrrrtrttttttttiatptppttuiiuiiiiiutuuuuuuuuuutttttttrrrtrrrrrrtrrrrrrrtuurttuuuuruiiiiii%8iuiiiiiutupitu",
"iiiuiuiiuuuuuuuyrreerrrrrrttutuuiipiiuaaaaaappataapiaaaapiiriiuiuiiuiuiiuuuuuiuuttryrrrryyryuuuuuiiipipiipaaaapa*qaaaaapppuruiup",
"ipaiiiiiiuuiiuuuttrrrttrutiiuipaaaaaaaaaaasaasssasassaaaaaiytiiapaaaiiiiiiuiiuuutuuuuuuyuyuuuuupppaaasaapaapasas:qssaaaaaai0rpii",
"+O++ooOOoO++@+O+o++@o@$%%%%%%&%&&::>:>:>>>>::>:>:>>,>-*&-&%%%%%%%%%%#@+@+++OOOOOooooOOO++++@@#%%&%%%%&%%&%&%%%%%O@%&%%%%%@@+++++",
"0666666886800088868188888886100eerrrrrerereeeerr%4rrrrrr0q0q0q0000qe0000eq085665665666508008888600ee00000080800808eeee0q0000ee00",
"iuuiiiiiuuuuuurrrqttttttruirtuuuuuuuuyuuuuiuttpp=8iiuuiiiiiiuiiiiuuiiuuuuuuuuuuuuuuutuuuuuuuuuuuuiuuiuuuuuuuiuuuyuiiiuuiupiiuppp",
"uiuuuuuqurruuuurrrrttrtrrrtrruuuuuururyytttttttt-8uuuuuuuuuuuuuuuuuuiuyuurruuutuuyruuturrurruuruuuuuuuurqururrrrrruuuuuuuuuuuuuu",
"uuquyrrrqrrururrqrrrrereerrrruuuurrrrrtytttttttp=7uuuuuuuuuuyuruutryurrrrqrrtuurqryrrrrrrrrrrrurtuurrrrrrruruyrtrryuuuuuuuuutuut",
"yywuuuuruyrrutrrreqrerererrtrrrrryrrrtyttrtttttt*7rqtrruqryyuruuuuryuruuyururrrrrrutrutrrrrrrrrtrrrurryrryrrrrrerrqerrrurrrurruu",
"yuyqrrryyqyqrrerrerteeter0rrrrryyrryyrrreerrrert&1reerttyrrrqrrurruqrrrrurrrerrqryurruyrrrrrrrrtrrrrrrrtrreqerre0eerqrryrrrrrrru",
"yyuqrrryyrr0euqqeeqrqertrqrqrrrrrrrrrreeqrut00et-7rretutq80rrurruyuqqrrtrrrqrreq0qrrrrrrrurrrrrrytrrttreq80rrrr8qerrqyuue00ertrr",
"uuyyuuuruyurrrrqrqqeqrrer0qrryrrurrree8errrr080e&7rtttuuuuuuyuuuuuyruuruuurrrrtr0qyyerrrrrrrrqrrurrurrqe08rqerq69eerruuiuutuyuuu",
"uyyrryyrrrrqrtrrqrertrqrrrrrrrrrrrrrrrrerrreq08e&8rerrttruyyuyuyuyuyrurrrrrrrtrrryywrrtttrrrrrrrrryrrrrrrrrerrrqeqerryrruturyyuu",
"rrrrrqrrquyryyyuurtrttttyrryruyyyrrutrttururrryy*7rrrrerqyyryyywrrqrrrqutrtttttuuuuuwuuuuurruruyrurrttturtrtrurqrtrrererrrrqrrqu",
"uryyuuyuuuyuuuyyrurrtttryyqyyrrrrrrrrrrrrrruyyyu*9urrtttyuyyyyyuuryuyuyuutruuuutuuuuuyuwruuyrrrrrrererqqererrtrrttrrrturyuuuuyuy",
"iuuuuiuuuwuuuuuuurututuuuyryrurrryrrrrturuyryyyi=9uuuuuuiuuuiuuiuuuuuiiuuuuuuuuuiuuuuuuuuuiuuruyrttrtttrrtttyrrrtttuuuuuuuuuiuii",
"iuuuuiiuuiuiuiuwyuuuuuiuuuuuuqyyyuuuuruuuyuuyyyp=9uuuuuuuuuiuuuuiuuuuiuuuuuiiiuuuuuiuiiiiuuiiuyyuyyututtttttrurutuuuuuuuuuuiuuuu",
"uiiuiiuiuupiiuuuuiuuuuuuiuutryyyyuuyyyyyuyruyyuu:8uyyuuyuuuuuuiiiuiiipiuuiiiuuiuiuiiiiiuuuuiuutwruquyyyrryrrrrtrqyuryuutuuuuuuii",
"uuuuuiiuuiiuuiuuuuuuiuuiiuuuyuiuuruyyyuuyyuuyyuu=9iuuuuuuuuuuuuuuuiuuuiuiuuiiuuiiiiiiiaipppiiuuuuuuyuyyyyrurrurruuuuuuuuuuuuuuuu",
"uuiiipppppppppiiiuiiiiuiuiuuuiiiuuuuuuiuuyuruuuu*9uuuuuuuyuyuuuuuuuiipipiiipppppiiiaaaiippiuiuupiiuuuuuuuuuyuuruuyuruuuuyuutuuuu",
"uiiiipapppppppiiiiiuuuuuiuuuuiiuuuuuuuuuuuuuyyyu=9uuuuuuuuuuuuuiiupuippaiaaiappiiiiaiiiuuuiiuuuuiiuuuuyyuutuyrrrruuuuuuuuuuuiuuu",
"iiuiippaaapaaaiiuuuuuuuuuuuuuuiuuyryuuuuuuuuurru=9yuuiuuuuuuuipiiiiiipppaaaaaaaiiiiiiiiiuuuutiuuuuuuyyyuuuyyuryryyuuuuuuiuuuiiii",
"ppppppapassasssppippiiiipipappiaiiiiiiipiuiiuuii:9iuuyyuuuuiiippaiiipaaaasaasssaassaaaaasppspssipiiiiuuiiiiuuiiuuuuuuuuutuuuuppp",
"dadddaaaddasddsssdddsdssssssasaaaaaassaaaasaaaia:raiipaapppapipaassssaaassassssssggdfffddssssssssssaaaasasaaaaaapaiiipppappapaaa",
",,--**-*-*****-----,,,,,;,;>>>>>>>>:;:,>>>>>><25#>5<<<<<<<<,<<5561<<55226521<,,,>,<,<,,,,>;;-****&***---:>--;->->>:;->>:;;---->>",
"&&&-**&&&&%##-&&***-*-;-:;,---*----*------>->>,<21<<22<<22256322;-<265<5<2<;>,:>>,>>>:>->;:>-**&##@#%%&-::-----:.&-->>:->>>,,>;:",
"iuwupspssssapaaassapiuiaaaapiurtuiuyqiaaapuywuiiiaiuaauipppaasaaiuuuaapaaaapaaaasdfdssaiiapaaaiuuwtuiuqqiiuiutrr+0aiaaupaaiaasaa",
"iiiiiiuiiaaaaappiuiiuuiiuiiuuutuuuyyuiiuiiuiuuuwuputuuuuuyrrrrruuiiiiuiiaaaaaaapiiaaaaipiiipipuuuuuiuutuuuuuuuui@4uuiuuiuurrrruu",
"tippssasssssasssaaassaaaaasaapaaappiaaaaiiippippiiiiiippppapiiiiuiiaasaaadssasssssassdssasasasaaiapiiiiappiuuiip#8puiipiiappiiuu",
"spssssssssffsssssssssaassaasaapaaaaiaaaappaaaaasaaaasaaaaaaaaaaaaasassssddddssddddddddssdsaaaaaapiaaiaaaaaaipaas%0sasaasaaaaaaaa",
"psasssasssssssssaaasaaaaaiipiiipiaapaaaapaaaaaaaaaaaaaassaaaaaaaasassssssssdsdssadssasaaaaaaaaiiiiiiaiiiaaiipppa#8aaaaaaaaaaaaaa",
"sappasaapsassaaapapaaaiapiiiiiipiiaapppppippppppiapappapaapaaaaaaaasaaaaaaaaasaadaaaaaasaaapiiiiiiiiiipiiiiiiuui#8ppappaaaaaaaaa",
"ipppaasasaspaaaipaaaaaaaaapipuipiiaippppaapppipppiipapaaapppapppiiiasaasaasaaaaaaaasssasaaaaiiiiiiiiiiaiiiippiip%8aiaaaaaapiaaaa",
"ppiiaaaaaaaaaaaaapappppppippiuupaiiiiipippapapipapppaapppiiiipipppipiaspaaaaaaasaaaaasaaappappiituiiiiuiiuiiiiip#8aaaapppiiiipip",
"apiaaaaaaasaaasaapapappaaapitrruiuuiipipiipiiiiiiiuiiiiiiiiiiiiiaappaaaaasaaaasasaaaaaaappaaaiuyquuuuuuuuiuuiuui@6iiiiiiiiiuuiii",
"ipaaaaasasaaaaiiiiiiiiuuuuutrqrtyyyruuuiuuuuuuuuuuuuuuiiuuiuuiiiiipaaaasaaaaaaiiupiiipiiiyyuyyweqrtruyyryruuuuuu@4iuuiuuuuiiupii",
"ppiiiiaippppiiuuuwyyryuqrrrrrutuuryuuruuuuuuyyyuryuuuuuuuuuiiuiiiipppipapipaiiiuuuuuuuuuyyywryyrurruqyyyrywytrrt@5uuuuuuuuiupuup",
"uuuuiuuuuuiuuuuuuuuuuiuyurrrrrrrqyrtruruurrrrrrrrrqrqryuuuuuyyuuuuuuiuuuuuttuuuuiuiiiiuiiuyywrerrrrrrruryryyrrrr@<trrrruuuuuutuu",
"quutuuiipaaappiuuuuuyrurtrrtuiiuiuuuuuyuuyururrrqrrrrrrqrrrrrrrrtuutuiiipassapauuuuuiuuyuyuuuyuiiuuuuurryryyrrrr+1trrrrrrrrrrert",
"iiiuiuiipappiiiiuuuuuuuuuuuuuuruuuuuuuuuruuuruyurryuyqururrruruuuiuiuuippaiiiiiuuiuiiuuiiuuuuuuuyrururyuurrrurrr+1utrryrurrrutuu",
"piiiuuuapapippiuuuiuiuuuiiuuuuuuuuiuiuruuuyuyrurruuuuuuuuuiiuiiipipuiuupppaiiiaaiuiiiiiiiiiiiuuuuruuuuuuyuuyrurt@1iuuyuuuuuiuuip",
"iiipiiiiiiiiaapipppiiiipapiiuuuuuuuuuuuuutuuuyyyyyuuuuuuuuiuiiiiiiiipiiiiipipaappiiappppppppiuuuyuuyurtryruryuyu@1uiuiuuuiuiiuii",
"uuuuiuuiiaiipipppapippiyuiiuiiuuuuuuuuuuuuuuuuuuuuiiuiiuuiuiuiuyuuiuiiiiiaiaiippaaaaaiippiiiupiuuuuuuuuuuuuuyyyu@6iiuuiuuuuiiuuu",
"ippiuuiaaiuippaaiyiiiuuiiiiiiiuuuuuuuiiiuuuuuiuuiuuyuyuuuiiuiiuiaapiiuipaiuuaaaapiiiipiiiuippiiiuuyuruuuuuuryuyu@4uuuuuyuiuuuiui",
"puipaaiiiiasaaauippuiiiiyiipppiuuuiiiuuuuuuuuwuiyuiiuiiiuuuyaaaaitippppiiiaaaaaiipaaaiipiiippppapuuuuuuuuryyuuyu@6iyuiiuuiuypasa",
"5590680yyyyureeeeeeee8eeeeeereee85665568865546880y660yy06860yyy080rrq8qryyyyrrqq00yrr0r65666666688e0808660ee9889O208ryyee66eee86",
"+oo+++O+%@@%@+$@++$$++++@O+O$OOOooXo.o.oO+OXO+++ O@+@@+@++@++@&%%%%&&%%%****&#@@+@@++#@O.OOOOO+OXO++OOOO++++++++++++++++O@++oOOO",
"aiuuiauuaaaapiaaptiapruuuiuuiirupuuuuuuuuuuiuiii#4piipuuiippiuaaaaiiiaiisssapisaapaiuiaiyuuiaiuiiriuuuuruuutyuuyiuuiiiuuipiiitaa",
"iiapiiiippppappiuppiapupiaaaiaiiiiipapipaiiiiiip#5iyipiaaappiiuiipiaiipiippaapiiiaiiaapaiiaiaaiappuiuiiiiipiiiuuuuuupipaapapiiii",
"ipipiiipaaaapaaaapaappaaaaaaaaaaappppappipaaiapa&4uyippiipaapapipuiaiiiiaaapapaaaaaaaaaapaaaaapippppiuiipiiiiiiiiuyuippiipaappap",
"aaaaapaaaaaaaapaaaaasaaaaaaaaaaaaaaappapappipppa@6iyyuuiuuiiipaasaiaaaiasaaaasapaaaaaaasaaaapaaapaaapaiiiiiiippuiuurtuuiuiiiupaa",
"ppppaaaaaaaadaaaasaaasaaaaaaaaasaaaaaaapiaaaappa%4uuuyuuuiuuuiiippiaaaaaaaassaassaassaaaaaaaaaaaaaaaaaapaippipipuuuuuutuuuuuuuii",
"piipapaadafdaasaasdddasddaasaaaaadaappaaaippaaaa@8puyyyuuiiiuuuuiiiipaaasssssassassddgdsssddssaaaaaaaaaiiappppppiiuuttttiiiuiiuu",
"apaapaaasdsssassaddfadffdddasdaaaaaaaaappaaaapad&8auuuuiippppaiiaapaaaassssdsssdssddddsasddssdsaasaaaaaappippppapaputuiiiippaaip",
"apapaaaaaaaaaaaaaaadasaaadddaasaaaaaaaiippppppaa#8aiiiiiiaaaaaaaapaaapaaaaappiaaapasssssssassssaaaiiiipipuuiiipppppiiiiaaaaaaaaa",
"appaaiiiiappapiapaaasaadaaaaappapaapipiiuuiaiuia#4iuuiiiiippaippaiapipiiaaiiaaiipaaaaaaassasasaappiaiiiiiiuuuiuuuuiuiippiiaaaapp",
"ppapiaiaaaaiaiaaaaaaaaasaaaapaappapaaaiiiiuiiuia@1iuuiuuiuiiiiiiiaaiaipaaaaaiaaaaaaapaapiaaaiiiippiiipiiiuiuuuuuuuuutuituuuiuuii",
"upappuppaaaapaapaaaaaaaaapppppppiiiiiiiiiiuiiuui@4iiiuuipppiiuipiiapiiipaaaaaaapaaaaapappappppiiiiiiuiuiiuiuiuuuuyuiuiuipaiiuuii",
"ppiuppaapiiippaaapapppiiiipippppiiiiuiiuuuuuuyui#6iiiiiippuuuippiiuupaaapiiippaaaapapappiiiiuppiiiuiuuuuuuuyuyuuuuuiiuiiiiuuiipp",
"yyyuaasuruaaapiuippaappapppuuyyuiuuutrruqutuyuui@4uquuuurequiiaiyyyuaaaiyyaappiuiiipapappppppuutyrurrrrrrqrwyyyyurqyuuuutqqiiiai",
"yyuypaapyyaaiuupppiiiiuyyuyyyuuyrrqqurrruuiruiii@5uyuipiurrruuipuuuuiaapyypapuipppppiiiuuututrrruuqrrrrrrqryuuuyyryuiiiiurrruupa",
"iaaaiiaaaiipaaaaapuuwyyyyuuiuyiuuuuuuyuiiiuippiu@6piaaiapiiuurruipapiipaapuaaapaaaapuurrrrriuiiuuuuryyyryuiuuuuuuuiiiaaaiiiuuttu",
"iiyippiaaaaiipiappiaiuiiaaaaaiiuuuuuuuiiuiuuuuui@6uuuuuuuiiiiaiiiiiipipaaaapppaaaaapiaappppaaapiiuuyuuiuuiuuuyuyyuyuuuuuiiiiipii",
"aaappaaiiiaaaaaipipaaaiapiiuuiaiiiiiiiiiiiuuiiui@6piiiiiapiiiapppaappappppaaaaaapiipiipppppiiuuiiiiuiuiuuuuuuuuuuuiiiiuiiaiiiiia",
"iipaaaaaapaaaaaapiiiiiiiuiiiiipiiiiiiiiiuiiuuuip@7iiuuiuiiaiaaaappppaaaaaaaaappaaapiipiuiiuuuiuiiiiuiiuuuuuuuuuuuuuuiuiuiiaiaaaa",
"asaaaaaaaaaaaaaapapiapaiiaiiiiaiippiipppiiiiiiip%8aiupaaaaaaadaadaaaaaasaadaaaaaapaaaapaaapipiiiuiiiuuuiiiuuuiuuiiiiiiiaasaaaaaa",
"ssaaaadsdsffsdsasassasaaapaiaiaapaaiaapauuiuuyui@6iiiiiiiaaaaaaaasaasssasaaffaaaaaaaaaaaaaappppppaiuiiiiiiuuuuuuuiiaiiaaipaaaaaa",
"++@@@@@@%#**%**&&-::->::-----**&%&&%&%@+@++@+++@ O+@@+@+@@@@+@+@@@@+#+##@@$$@@@@+@+@@@%&&&&&&&&&&--------*******#%%%%&%%#@@@@+%@",
"yyyyryyyyyyeeryyttituuutuuyuyuyrryryrryreerrr0qqyrqry0000000e0r0ryyyyyyyryyreyyyyryyrrrrrreererruuruyryuyywqryry*7r0rq00900reeee",
"iippppaipaaaapaaapaaasaaaapapaappaiiapaiiuiiiiaiupiiiuuyuuuiiiiiaiipiaaiaaaaaiaaaaaaappaaaaapppiiiuiiuuuiiuyuyup:qaiiuuuuuuuiuii",
"iyuyuuiuipppappiiiiiuuuiipuuiiiiiiiiuuiuyyuuuuiiuiuuuyyuuuuuuuruuuuyyiiyuiipaaiiuiuuiiuuutuuuuuiuuyuuutuyuyyyyyu=9uuutruuuuuuuyu",
"yyyyyyuyyuuuuiuuturtttrrrrrruuuuuuuuuuuuyuuyuuuuuuyuyyyuyyyyyyrryyyyyyyytuuiuipuruutyyyrrreeerrryuyuuuuuyyyyuuyi*9uuuuuuuruuurry",
"yy00yrrrrryyyyyrererrreq0qreeeuruwuuyyuyyyyytrtryrqyqyrqqyqyqrrrrrrqr0ryrrrtrrrrrrrrrrrereq8eqqeqrrrrtrrwyrqqrrr*4yqrreerqerrrqr",
"rrrrrqrqrrrrrrrrrerreeeqeeqeqeerrerrrtrreerreerreqeqqqqrrrrrrqyqrrrqqerrreerqrqeqyyqrreqr0qqer0qeereewttrreeeree*4qqqrrrrrrrerrr",
"uurerrrrrrrqrr0qeeqreqterrqrttrrrrtrre00rrtt00qrrerreruuq80qryyryurrqrrrrtrqrrqqqqyrerywryyyqrrttttertee889errre*5yrqrurq0eerttr",
"uuruuyuuuuurrrrqeqqeererqerrttrtryrrq00qterr8800rrrruruiuuuyyuuuuuyruuyuuttrrtrrqryyrrrryrrrrrrrtttttreee8rreeee&1rrruuiuuruutuu",
"uturtrrrrrrrrryqeeerrrretqrrrrerrrrrrrrerrrqq080ererrrrtururruuuuuyuryyrrrrrrrrryyywryyyryrrryrrterterrrrrereter&1rrryryruuyrtut",
"rrrrrrrrrrrtyuyytttrttrutrrtttttrruyurruttrtrrrrttrrrererrrrquqwrqrqrrqyryrytutuwuuuuyyyyyuyryyyttrertttrrtttrry*7rrqrqrrrrrrrrr",
"urytyuyyruruuuurttrrrrurrrrrtttqrqrrqrrrrrruuyyutturrrttruuryuuuutyyuuuyuruuuuutuuuuyyuyyuyruqwyttqtrrreerrrrttu:8ururyruruuuyuu",
"iuuuuuiuuuuiuuuutttuuuuuttttttrtryyqyrrytttrryyyututuuuuuuuuuuiiiuuuuiuuuuuuiuuuuuuuuuuiuuiuuyyyttttttttrtrtrrry*8uuuuuuuiuuiuui",
"uuuiuiuuiuiiiuuuttuuiuuuuiutrrttuuuuuuuyttuuuyuuuuuuiuuuuuuiiuuuuuiuuiuiuiuuiiuuiuuiiiiiiuiiuuyurtttttttttttyyyu:8uuuuuuuuuiuuui",
"iiiiuiuuuuiiiuuuuuuuuuuipuuyruryyyuyqurururuyyyyruyruuuuuuuuuuuiiupiiuiuuiiiiuuuiuiiiiiiiuiiiuyyttttutrrruryrrru*7uyuuuuuuuuiuui",
"uuuuuiuiiiiuuiuuuuiiuuuuiiutuuuuyyuyryuuutuuyuuuuuuuuuuuuuuuuuuuuuuuuiiiiiiiuiiiiuipaipiiiiiuuyuuutuuryurruqrutr=9uuuuuuuyuuuuuu",
"uuiiiiiaiippiiiipipuiiiuiiuuuiiiuuuuuuuuuuururuuyruuuuuyuyuuuuuuuuuuipppiiiippiipppppaiiiiupiuiipiuuuuuyuuuyuuru=8utuutuuyutuuuu",
"iiiuiaipappaapiiiuuuuuiuuuuiiuiiiuuuuuuiuuuuruyyuuuuuuuuuuuuiiuupppuppppiaaipppiiippiiiuuiipuuuiuiuuuuurutuutrru*9uuuuuuuuuuuiuu",
"iiiiiiapaaaaappiuuuuuuuuiiuuuuuuuuyruuuuyuuyuwyyuuuuyuuuuuuuiiiiiuppppppaaaaaappiippiiuiiuiuuiiuuuuuryruuttruyru*8uuuuuuuuuupiii",
"iaiiiaaaaadaddsppaapiiiiipppiipppiiuuppiiiiuuuuuuuuuuuuuuuuuiiippppppaaaasaadssaasassaasaapaaappapppiiiiiiiiiiui:9uuuuuuuuuuiiip",
"ssassaassdasddddsddddddssadssasaasaassasssasaaapppppiiiiaapappaaaasssaaasdasddddsggddddddddsadsaaaasappasaaaaaaa>9aiiiiappiaaiaa",
"<<,;<,<,<<,,<<,,<<<<<5<<<<<<<<,<,,,;,,,<;,,,,,<,<,<,;<,,,;2555685<,;,<<<<<,<<,<<<555255<5<<560666666852655522566%<656566542<>,<2"
};
