/* XPM */
static char *result[] = {
/* columns rows colors chars-per-pixel */
"128 128 60 1 ",
"  c #554D3D",
". c #5E5543",
"X c #605745",
"o c #615946",
"O c #665D4A",
"+ c #685F4B",
"@ c #67604C",
"# c #6A624E",
"$ c #6E6651",
"% c #6F6852",
"& c #716651",
"* c #746B55",
"= c #796E56",
"- c #766F59",
"; c #786F58",
": c #777059",
"> c #7C735C",
", c #7F785F",
"< c #7F7660",
"1 c #81775E",
"2 c #82785F",
"3 c #807761",
"4 c #847B63",
"5 c #887F65",
"6 c #8A8166",
"7 c #8D846A",
"8 c #8F886C",
"9 c #91876B",
"0 c #92896D",
"q c #998C6E",
"w c #958C71",
"e c #9A8F71",
"r c #9C9274",
"t c #9E9678",
"y c #A29676",
"u c #A59876",
"i c #A19778",
"p c #A49A7B",
"a c #AB9E7D",
"s c #ADA17E",
"d c #B0A17F",
"f c #AB9F80",
"g c #ADA382",
"h c #B4A584",
"j c #B6A987",
"k c #B8A987",
"l c #B5AB89",
"z c #BAAD8A",
"x c #BDB28E",
"c c #BFB490",
"v c #C0B38F",
"b c #C1B692",
"n c #C3BA95",
"m c #C6BD99",
"M c #C8BF9A",
"N c #C7C09B",
"B c #CAC19D",
"V c #CDC4A0",
"C c #D0C7A2",
"Z c #D1C8A3",
/* pixels */
"2569w96059544995w9997975995955556664677677770779.197009ytttpftrp99q0e0707965599900ww0005w0wwwweeeweeew5ireeeeerrtfwrff9tfrfftw70",
"bzvbMBmBmVVmnMMMVVMmbbnMMMMMMvzvxnbzhvmmnnvvzxnm*sMvBNvnMnMmBNBMnzvnMBMBBBmmnMBBVVVVVVmnmmMmmmmvzzzzvvjkcnbbxxkkvmbvMmxbmnmmmNBB",
"bbnbbbbnnmmmmmnnbbbbccccbvbcxxvvcxxxvvbvnvvvxxzc$unxncvxccxllzxxbnbbncccnMmmmnnnnnmnnbnnbbbbncxxvxxxzvvvxccxcxxcvbxzbccvxxzllzxc",
"vbnmMMMmmMVmMMMMMMMMNNmNMMMMmnnMmncnnnmnbvvnnnnM*pncnvnncnncbbccxvnmNNNMmBBBMBBBMMmBVVVMVMmVmmmmmmmmbbbbnmccbbbbbbbvnbnncnnnbccc",
"mmVNBBBVVVVVBVVVVBMBBBMBMmMmMnmmNmmnnMMMmnmMMMNB*sBMmmmmmmmmmnmmmMBBNBBVVVVVBVVVVVVVVVNVVmBmmmmmnmmnmnmmmmmnbmmmmmmmMmmmmmnmmmmm",
"MmMMBBBBVVMVNVNNMmMMmmnmmnnnbnbnnnmnnmMMmnmmmmmB<lMMmmNMMMmmmmMmmMNBBBBBVNVNBBVBBBBBNNNMnmmnnncnbbbnmmnnnnnnnmbmmmmmmmmmmmmmmmMM",
"mmmmMMMMNMNmNNNMnnmMmmnnnnbnbnbnnnMnnnnnnnnbnnnM4gmnnmnmnnmmmmMMmmmmMMMnmNMMmMMNMBmNNNNmmmnmnnccbbnbnnnbnnnbbbbbbbnmnnmmmnnmmmmm",
"nnnnMNMMmmmNNNmnnmmmmmmnmnnnnbbncnnnmnnnnnnnncnN6hnnmnnMmmcnnnnMnnnmMMMMmNmmmMMMmMMMNNMMmmmmnnnnbnbnbnnbbbnnnnbbbbnnmnmmmnnnnnmm",
"nncmnnMmmMmmnmmmnnMnnnnnnnnmbcbnnbnnnnnnmMmmnmnM<hNcnnnnnccbnnbnnnnnnmmmnNmmmnmmMMMMmMMnnnnMnnnbxcnnnbbbbbcnbbbbnbnmmNmnncbnnnnn",
"nnnnmmmnnMmNMMmMmmnMmnmnmnncxlzcbbbbnbnnbbbbbbbm4gNcnnbbnbbbbbbnnnnnmmnmmNmmmmMMNMMnmMMMnMnMmnczhxxxxxcbbbbcbbbbbbbbbbvbnbbbccnn",
"mcmmmmMNNNmmMnnnccbbbbcccczzljzxxzzxxxcbbbbcbcbn<gccnxcbccbbbcbnnnmmmmmmmNmmmmmnnnnncbcbccxxxzzkhzzzzxzzxzcxvxzvxxcccvbbccbbbbbc",
"mmcnnnmmnmcmncccxxzcxzzlzzzzzzxxxxxxxzxxcxczzzzb<sccxccxccbbbbbbnnnnnnmmnnnmncccxxxcccccczzzzzzzxzzxzzxxzlzxvzllzzxcccvvccbccbcn",
"cccccccccccxxccccxcxccccczzzkzkzzzxvxcxxxzzzzzzc<uzkzzzxcccczcccxccccncccccxcxxcnbncbnncccxzzkkkkkkzzzzzzzxzlkkjhlkzzzzxxccccxcc",
"lcccccccnmmmnncccxxxzkkzzklkzxzxzxzzzzzcxzzxzkzz,pxkkkkkzzzzklzzlxxzcccnnmmmmnncxcxccczzzzlxzkzccxxzzzzzkzzzzzzkhkzzljlllzzzlzzl",
"cccccnnmmnnnccncxxxzzczzxzzzxzjkkkzzxczzzzczzzxv,uxzzzzzzlkzzzcccbcncccnnnmnnccccxccccczxzxxxzzzlhkllzzxxzkzzzkkkkzxzzzxczxzxxcc",
"cmmccccncnnnnnnccxxxzczxzczzzzkjllzzzzzzzkllzkkz:axxxxzxccccbcbbccccxcccnccnccnnbcxccccxzzxcvxzzklkkkzkkzzzzkzllkxcbccccvvbbbbbb",
"nbbbbxxbxbbbbbbbxxzzzzzzbzzxzzzkkzkllhlklhkkzlkx,uxxxxxxxbxbbxcbcxcxxxxxxxcbcbbbnbxxxxxxxxzbcxzzzzkkzkkljzkkjkzkzzcbnbbbbbbbbccb",
"xxxxcbbvxxzxxxzzhllhkkzkkzzjkzlzzzzzzzzxzxxxxxxb4sbxcncxnbcbxxcxxxxxxbcxxzzxxzzzczzzzkkkzzzzzzzzzzxzxxzzzzczcczzxxccbbbbnbbbcccb",
"xxxxxcvvxbzxzczkkhhhkjjkjkkkkxzxzxczzxxxxxxxxxxn4snxcxxxbxxxxxxcxxxxxxxxzbbzxzzzxzzzzzzzkzzzzxzxcxzbcxzzccbccxzcxvbcbxxbbbbxxxcc",
"xxbxcxvvbxvbbbbzzzzzzzzzbkkkkzzzxxxzxvnnnvxxcnnM4snxxnncxxbcxxxbccxxxxbbbvvbbbbbbbvxbbccbbnbvxxxbbbbbbbbnnnbxccbbbbxbbbnvvxvxxcb",
"ssaspaapaafaagapppapaaaayypaggappyahhhfpuaghlljz:ulljjlhjjlhjjlhhhffffffffffffffafffaaaggauerppppireeppppreyippggfffhffffhffffff",
"##&#&**&&&**&**&&+###++oXXOOO#OOoO+#$&##*****:>:*:,,1>>>,:>:::::*&&&&&&#+&&&####+OOOOOOO@Oo...ooOX...oOoX..XoXXO.o@+##@###&&&&**",
"klkzzzzkzbnbzbbxvzvbbbvkhhhhkzzzzkkzbnbjxnnvxnnxnnczzkkkkhlhjkjxkkklzzkkzbbbzbnnxkzbccnnmxzzlhlzcbvczkzbnzhzbbxb@tbzxlhkkhlkklxc",
"zzzzzxzvbbxzbbxzkkkzvkvzvkxzhhkzxbbxxbnmvzxvnnnnbbbzxkhlkxvvcxxxvkzzxxzxbbvzbbczzczxxccxxvvxbbxzkzzxbbccbmnbzbbm$fbxzlhkkxbvvxxz",
"xzxzxxxvxxxxxxzkklzzzzzzkkzzbbbbczcccxccnnccccncccccbnnnxnxxxjxxxxzxxxxxxzcczxxxbzxxxcbbnbcxxxxmnnncxcxccccbbccb$incbbbnbbbcxzcc",
"bvxxxxxxxxxxxxxzzzzzzzzcvbzczxzzccccbcccccnccccxbxcxxxxzxxxxxxxxvvxcxcxxxxccxxcxxzzxxvxxxxbnnnccbcxbnbnbccccbncb$ibxxxxxxxzzzzzc",
"xxxcxxxbxxxxxxxxzzzzzxzcxbcbbbnbcccccbbnnccccnxcbbccccxxxxxxxxxxxxxcxxccczzxxxccvxbbxxxbcnnnncnnnnnbbbbccnbnnbcb$ibxcccxxxxxzccc",
"bbxxxxbnncxcbxxxzxzzxxcbbbbnbbnnnnbcbbmbnnncnnncbbbbbbcnbnccxxxxbcxcxcbbbcccccxxxbccxxbbcncnmnMnbnMnnbnnnnnnncbm$pmnbbbbbvxvcxcx",
"cxxxcxbcxxxxxxzzkzzxxzcbccxcbbbnnnnnnmnMMnNnnnnncnnnncnnxxxcxxxxcxcxccbccxxcxxzzzxxxxcvcccnncnncnmnnmMnMMnMMnnnm$pMbbnnbccxxxxxc",
"ccnbnnbcxxxxncxzzxzzzzzzxxxxxccbnnnnnmnnnncnmNmncncncnnnnxxxxxnvbbbbnbbcbzxbbcxxxxbxcxxbxcxxcxccccnnbnbnnnnnnbbm&pMbbbbnbccxcxbc",
"ccccxnbbnxxxccxxxzzxzzkkkzzzzzzxxxccccccnncxcncncnnccccnxxxnxxbncccxcbvbbxcbbbbcbcbbxcxzxzzzxxxxczccbcccbbbbbxzn$imcbbbbcxcbxcbb",
"xxccxxxcxxzxxxxxzzlzhlklzkzzkzzxxlxxxxxxxcnccxxcxxxxcxcxnvxxxxxvxxcccxcbczlxxxxbcxcxxxxlxxxzxxxzzccxzzcczzbvbbzb$tbcccbxcccxcxcx",
"xxxxbxxxxxxvxvbxvkvkkkvkhkvkhkkvhhkvvvkvvvvbvcxxxxxxzxvzzxkxzvzxxzxvvvxvxxxxxcbbbbvvxvzzxxzzczzklzzkkkzxzzxzvxxb$rbxzxxzzzzzvzxz",
"lzxxxxxzxxzxvxxzhhhhkkhhhhhhhhhhhhhfhkkklkkxxxllzkhljjhddddaddkkzzzzxxzzxczxbxvzxxzllkzkkkhhhjkhhjhhhhhhhhklkzzz#qkklhhhddadddkz",
"hhhhzklkkljkkkhhhdhhfaaddddfffhhddfdffhhhhhkhhkkhhhhdddhdaadaadhhhhjlkllklhkzkkklkhkkkhhgghhhhhhhhhhghfdahhhlhhh+9hhhshhdadddadh",
"ddhhhhkkhlhjklhhhdfffdddhdhhhfhkdhhhfhfhhhhhhhhkhhhhjhhhdjjjhddhhhhhhlkkhhlkkhkkhhhhhhhhhhhhhhhhhlhhhhhhddhhddhh+qkhhhhhlhjjdddh",
"lhlzzzzklzzkkzlkkhfhhkkhhhkhhkkkkvvkvkzzzlllhjlzzxxzxzlzkjkzzzkhhjjzzzzzkkzklkkzlkzkkkklkzzzzzkkzzzzkzzzzzzzzzkz#ybzzzkkkklzzkkk",
"xzzkzxzzzzzzzzzklkhkklkkkkkkhvkvvkvhkkzxvvvxvcxxxzlzzzkkjjhjzkzzzzzkzxzzzzzxzxvzzzkvkllzkkkzkklkzzxzkvkkzzcxxxzc&qzzzzzkhhhkzkzz",
"zzzzzzklklzljkklhhhhhkhhkhhfhhhkhhkhkzzxxxxzxxlklzzzzxxzzzzxvzzzzzzzkzzkkkllkkklkklkkkkzzkzkklkkzkzzzzzzzxxxzzzx&yzzxxzxxzzxxzzz",
"xxxxzxxzzzzzkzkjhkhhhhhkkkhvvvvkvvvvvzvnbvbbvbvbcncbbbbcvnxvbvxxxxxvxzxzzzzzzkllzkllklzkkkzzzkzzczxxxxxxzcbbbbcn*unbbbbbbbxxbvxv",
"bbnbbbnbbbxbcbxzklkkkkkkkzvzbzcbccnnbbnmmmmmmmmbnnmnmnmnnnxzxnbbbbbbbbbbccccccccvvxzzzzzzzxzxvxbbbnbnnbbbnnnnMnN:gMnnmmnnnvkbbbb",
"bmmbbbbbbccbbbcxvkkkkzvkvvbbbbnmMMMMmmmMMMBMmMMmBBBmmBMMmmmkznnmmmmmnbnbccccbnccvvcxxxzxzxvbbbbnnnMMBBMmmMMnMMMB<hVMMMMMMMnhknnn",
"+OooOXooXOO+#O+OOO++#+&&&*&*&--;>3665555555555554566621,>::******-*-*&####OOoooXXXXXXXO+++##$***-**=***---*;****o%--**&&$####O++",
"fippipiapppgggafapafffffpfaupffgglllhjhhhhlghllj:ylllllhhhghgggsfffgfffhfhffptiiiiiiiiifffgfaaupfggfgggsfafgsgsaggggggggfggggggg",
"bbbbnbbnbbbbcbzzkkzzzvxxxxbzzbccbccxxbbbvbbbcbcn4annbnxnxnbbbnnnbcbbnbbvvxvbvvvvvvvxxvvxbxvcvbxvbbbbvbvxcbbbbbvxxxbnbbbbbbnbbbnb",
"bbvbbbzzzkkbxzzzlkkxzzlzkzxzzcccccczxzzzzxzzzzzb4uxxxcxcxnbxxvvvbcccvcczxzzxvxxxxzzxxxxzxzkzzxzxzvcbxzxzzzzzzkkzzlxxccccccbcccbb",
"bzkzzzzzzkkxczzzlkkkkkkhjkkzzzccxzlkkzzzzxxzxxxb3axxxnxxxxxxxxxxczzzxzzjkklxxxxzkkxzlxzkzkkkzzxzzzxzzzzlkzzzxzzzzzxxcccccxbczcxc",
"xxkcbzbzxzzzzzzzhklkkhkhjkzzzzzzzzzzzzxxxlxlhxzx1uklzjkzxzxxxzxxxxzzcxxxxzxzzzzzlxxzzxzxzzkzzzzzzxzxzzzzzzzzzzlklkhkkzkzzzzczzxz",
"zcxzkkzzzzzkkzklkjzkzjjkjjkkzkzzzzzzzzxkjhkzjjhv;yhhhkvvxzzkkzxzzzxzkkxkxkkkkkkkhzxzzxzzzzkzkkzzlzzzzzzzzkjhhkkhhhhjhkzzxzkkkkzz",
"zxzkjzzzzzkhkzhhjhhkhklllhjkzzzkzzxzlhhhjzzchghv1uvhhvvkhsdlkxzzcxzjllkxxxkkkzhhhlzzkkzkzzzkhkzxczzzzzkjhddkkzzdhhkkjzcchhhlkczz",
"bczzxxxxxxzlkzlkjhhkklkkzlllzzzzzzzkhhahzkkkgdhk1ykkzxvvxxxxxxxxcxzzxxxxxxzlkzzkhlxzlkzzzzkklljzzzzzzzkhhdljkkhahjkzzxcbcxzxxxcc",
"czxzxzzzzkzzzzkkjhjlklkkkkkjkklkzzkkkkkkzkklhhdh1yvhkxzzxxxxxxxxxxxxzxzkkkzlzzzzzzxzkzxzzzzzzzzzzzzklzzkkjlkkkhhhhkhzzzzzxczzxxc",
"lzzzlklzkzxzxzxzvzzlvzxxjxzzjxzxzzzzxxxzxxzzzkkv3pzkkkkkjzzjzzzjzjlllkklzzzzzzxxxccxzxxxxxxzzzzxzzzzzzxzkzzzxzklkzkkkkjkkzklzzkz",
"xzzzxxzvxxzxvxxxzzzlzzxzxzjzxxjjkzzzkkkzzzzcbzzb3fbzzzzxxxxxxxxxxzxxvvxxxzxxbxxxccccxxxxxxxxzzzzzzklkllhkkkzzzzzzzvzzxzzxxxxxxcz",
"bbxbxbbbccxxbxxzxzxxxcxvxxjxzxzzzzzzzzxxxzxzzzxb3fvxxxxbxcccxxnnbcccvbvccxccbcbbccccccccxccxxxxxzzzzzxzkzzzzzlkjzzbzxxccccccccbn",
"bbbcbbbvccbnbbbxxvcccvbbcccxxjzxccxcczxcxxxxxxzn4fbxccccnxcxnbxxbcccbbbbcccncbbxccccncnnbbnccxxzxzxxzccxzxxxxzxxbbzbccccxccbccbc",
"vbbbbbbbvbbbbbcxxxxbcxcbncxxzxzxzzcxzxxxxxzxxzxb3abzxxxxvxcbnxbncbbbbnncccnbcccncnccnnccccncbxzxxzzzxxzzzzzkzzjxzxxxxxxcbxccbxcn",
"vxbbvbbbbbbbbbccbbbbcbbbbbxzxxcxxxczzxxxzxxxzxxb3gbvcbbxxxxxxxxcccbccccccnccbbccccnncnmcnnbnncxxbcxzxxxzxxxzzzxkxxxxxbcxxxxxxbcx",
"xcbbnnnnnbnnnnbnbbbbbbbccnccxnnxzcccxbcvcxxxxxxb3abvcxxxxxcxxxxxxxbbbnnnnnnnnnnnnnmnmmnmcnncxcxbbbbcccxxxxvxxxkxzxxxccbxxxxxcxxx",
"bbbbnnnnmmbnnnnnbbcbccccnccccncnbcccxbcbxxxxxxxv4avvvbxxcxcxbbcxbnbcnnnnnnnnnnnnncnnncccccbnxbbbbbbcxczxxxxvxxkxxxxxxcxxxbxcnbcb",
"nbbbbnnnmmmnMmnbbxxcxzxxxcxcccxxczzzvbvxcxxxxxxx3acxccxvbcvvnbbnnbbbcnmnmmmmmmnncnnnncncncccbbbbbvvvxzxxvxzzxzzzxxxxxvvxbbxvnnnc",
"nnbnnnmmMMMMVMMMmnnnnnnnnnmMnnnnnnbbbnnnnbnvxxvn3scxxcxxxxvvnbnnnnnnnmmnMMmMVMMmNNNNNNnNnmnmmMnnnnnnbbbbbvbbbvvvxxcxvvxxxxxvccnn",
"VVMVVMMMVCMVCVBBVVVCCVVVBBBBBBBBBBMMBBBBBBBBBmmB6hNnnmnmBNmmnmnmncBBmmmmVVBVVZVVVZZZVZVZVVBBBBBBBMBBMmMBNNBBNBNmmnNnnmmnNmmmmnMM",
"75543;3>>>>>>>33>44676766676666655546666655660er$6rwww0r009900rrff5f0fw0fw5f0055778777777676411>>>>;1144662226626666256555411466",
"1;;33<-<->-&*>-<>>>,1,4566552111241125445445579wer00rw0wr0ertrre<50ff5ff5f55f555557555<45555<<--*$&*;;;344433335.-53554555576754",
"vvvbnMmmMMMmmMMVBBBMbbnNmmmNmvzzvbbzkbMMmbbxzvbbbBnbNMcnmmmmNNmNbxllmBcbncmmcnBBVVZVVVBbmmmmmmmnvlzvvvkkbnbbvvkv+fMbBmbnMMmMBBBM",
"vnbbbbcbmmmmmnccnnbcvcccvvvxvxxxvvxzxbccvbbbbxzxbncxccccxxzlllxccnnbbbbbbmmmmnmmbnmmmbmnbbbnbbcxvxxxzvvvxcxxvvvb&uvvbbcxxzxkkkxb",
"xbmMMMmmMVNVMMVmnmBBMMMMBNBmmnmmnnnnnnnnbbbnnnnnnbccbnncnnMncnccxcnmmBNNNVNBBNBVVmmmVVVBBBMBmBBmmmmnbnbbnnnbvbnm&unvnbnnnnmbbbbb",
"mmMMMVVVVVVVVVVVBBBBNBMMmmNmmmnnMnMmmMMmmnMMmmmNmmmMMmmmMMnMmmmmmNMMBBBVVVVVBBVBVVVVVBBBBBBmmBBmnnnmmnmmmmmnnmmV&fVmMmmNMmmmMnMM",
"MMBMmVmVMBBNNVNNBmMMMmnMmnnnbnnnnMmnmMMMnnmMmmmmmmmMMmmMMnMnmmmmNNNMBVBBmVBVBBBBBBmVBBBmnmmmnnbnbbnbmnnnnmnbnnbm$fNmmmmNMnmmmmMM",
"mmmmmNmmmNMMMmMMnnnMmnnnnnnvbnbnnnmnnbnmnbnnmnnnnnnnnnnmmmmmMmmMmNmmMmmmmmmmmmBBmBmmNNMMmnmnnbbbbnbnnnnbnbnbbbvm$pMnnnmnmcnMmmMM",
"nnnnmNNNNNMmmmmcnnMMmmMmnnnnnvnnbnnnnmbnmmbnnbnnnnbnmnmnmnncnnnmnbnmNmmMmmmmmmmmmBmBmNMmmmmmnbbbbbnbbnnnbbnmnbvm$pmnmnmmmmnnnnnn",
"nnbnmmmnmmMmnmmmmnmnnnnmnnnmnxbnnnnbnnnnnnmnnnnnnnnnnmnnncccnncnnnbnnmmmmmmmmnmmmmmmmMmmnnmmbmmbxcnnnncbbbbnnbbm$pmnmnnnnccnnncm",
"nnnnmmnmnmMmmMMNMnmMnnnnmmncxlzvbbbbbnnnnbnnbbbnbccnbnbbnnnnccnnmnnnmmmmmmmmmmNNMMmmmMBmmnmmmnxlkzxxcxxbbbccbbbn$pnnbncbncncccnc",
"nnnmmmNNmMMMnMncccnccncxxxxxkllxxzxzxxxcbcbxbbbbcccccccbcccnccnnbnmmmmmmmmmmmmmnnncncncccxxxxlzlhzxzzzxzxzcxxxxb$ibccbcccccccccn",
"nnnnbbmmnnnnncccxzzxxzxlzzkzzxzxxzxxxxzxxxxxzzzzxzzcccccxxcxnccnnnnbnnnmmmbmnbcxxccccccxxzlxzzzlxzzzkzxzlzzxzzzz$ecccccccccnnccm",
"cxccbbccxccxxxxxxbxbxxxxxzlkjzkxzxxxxxxxxzzzzzzljkjzzzkzxxxxxxxxxcccbbccccccxxxxnccccnbcbcxzllllzkzzzzxzzzzzzkkz+evkkzzzxzcccccc",
"zcczccbbnmMMmnnxxxxxzxxzxxkzxcncxxxxxxxxxxxxzzzkjlzklzzzzzzzklxxlcclccbnmmmmmmmcxxcnccxxxzxxclxbbbxxxxzzzzxxzzkz+evzlzzzzzzlllzl",
"cbcbcbbnnnnnnccnbxxxxxxxxxxcnxxxxxxxxbxxxxvxzxxxkzzczzzxxxkxxxxxbbbnbccbbmmccccccccnnbcbccccccccxzzxxxxxczxzzzzz#evzzzzzxzzxxxcc",
"nbnbcccnnnnnnmnnnxbcnbbbnbnxxxxxxcnxbxxxxxxxzzxxzzcccczxxxnxnxxnnnbbbccmmbmcmmmmncnbcnncncnnbcccxxxxxxxxxzzzxzzx#ybvxcxxccccccbc",
"nbnbmcccnnncmmcncnnnnnnnmncnxccccccxxxxxzxbxxxxzxxxxccxxcccnnxnnbbnnnbbnnnncnmnmbnnmnnnnnnnmncbcxxxxxxzzzzxzzxxv$ebbccccccbbbcnn",
"cxcccccmcmnmmnnnmmncnnccccccbccxccxbbbbbxxxvcxbcxnxncncxcnxcxnxxccccbbbbnnnnnnmnmmNmmbbnnbbccnbbbbxxxxvxxbxxxxxv$unbccbcbbcbbbcz",
"nmnbcccmmcccnnmmccnccncccnmcnncxxxcbbbbbbxxvbbxcccxxxxxxccnxxccnnmbbccnmnbcnnmmmnbnbnnnbbcccnbnbbxzxzxbvbcxzzxxb$ybvcxcxcbccbbbb",
"nvbmmmmccmVNNMmcnmnccncnccnmnnnnnbnnbbbbvbnbbxvbxcxxxnnnxbxxmNBNnxnnmnnnnmNVNmmnnnnmmnbnnnclnnmmnbbvxbvzxzxxxxxx#pnvcncccbczmBBB",
"rrffffgllllllglglggggfgggggglggpuypprrippptpiuaaglssgllhsapglllgffllgffllllllgggggllgglfffffffffufggpgapagggspssowhfglllfppgggft",
"OXXo.OO#$#%@@@##O@$$OOOO@@O@@@OOo......Xooo.XoOO o@@#@@@@@@###*=%*---**---<---%@@$@OO#@o.o.....ooo#OOOOoOO+O@@@OO+++@OOO@O$@X..O",
"nnbccmccNVNNmcNmnznNnzcccnccncxcnxcccxxcccccccnc$tNcmcccnnnnncmNmmnbnmbbVBVmmnmmmmnbxnNnlblnclccczcczbcxzccxxxxxbbvbncccbnncccmm",
"bnnmncmcccnnNmnccnncmncmnMmnnnncnnnnmnnnnnnnbncM%tcccNnnnmnnnbxnbbnnbbnbnncmmmmbnmnnmnnmbmmnmmmbnnncbbbnbnnbnnccvbzbnnnmnMmmmccc",
"mcccmcccVcNcNcNmnnmmmnnmmnmmnmnmmnnnnnnnnnnmnnmN%tnxcnnnnnmmnnnnmbnnbbbbmmmmnmmmnmmnmmmmmmmnmmmmnnnnccncncccnnncccxxcmnnnnnmnnnn",
"mmVVmmmmNVcVVNNcmmmmMNMmnmmnmNmnmmnnnnNnnnnnnnnm%tcxxcccxbcnxnmmmmmmmmmmmmmmmVnmNmmmmmmNmmmnmmbmmnmnnnnnnnNcNcnccxxxxcccccnncnmM",
"cmmcmmmmNmNcNVNmmmmnNMMmNNmMNNMMBNNNNNnnnmmmmnnN%tccxxxxcnxxnxnnnnbnmmmmmmmmmmmmNmmNBNmmmmmNmmmmMNmmMNNnnnNccNcnccxxcxcccbcccncn",
"mccmmcmNVmVVVcVVmVVVVNNVBBNMMMmMNNNmnnNNnnnnmmnB$sncxxxxccnnxbxxbnnnmmmmVmVVVmNVNVNVVVVBBBVVmVmNMnmmnnnnnnnnNcNcnncxxxlcbcnccccc",
"mmcNmcVmVVVVmVVVNVVVmVVVBBVNBNBMmMMmNNnnnNmnmnNB%sNcxxccnnnnnmnnmnnmmnmmVmVmmVVVVNVVVVBBVVVVVVNNNNNNMNMnNncNcNnNNnncccccnccmMMnn",
"mcmmmmcVcVcmccVcMNNVmMMVBVVVNBBMnmmmnnnbnnnnnnNB$smccnnnnmmnmmnNnmmmmnmmmmmmbmmmNmmNNNBBNmNBNmmmNNccncnnnncccncNnnNcccNmmmmMnnnm",
"mcmnmccccNVcVccccmmmNVNNmmNMmnnnnmnnnNnbxcnnnbnN$umccnnncnnmnnnnnnnnbnbcmbmbnmnbnnmmmmmmNmBmNmmmnnnNncccccccccccccccccmccmmmmnnn",
"mnmnNcmNcVcNcNcVmmnmmcmMmmmnnmmnnnmnnnnnbbnxbvbn$rnxxccxxnccbcbnnmnmmnnmmmmmnnmmmmmNmmnnmmmmmnnnnncnnnnnNcccccxcxxccccccccccccnc",
"ccnncccmMNMMnmmnnmmnnNmmnmnnnnnnnncnnnncnnxnnxcn$unvnxncnnnnvxbnbnnncnnnMNMmnmmmnmMNnmMnmnnnnbnncnnvbnxbvbvcxbbxxxxbbcbbnnnbbcbn",
"nnccmmMmncccnnmMmnnnmnncbnnnnnnnnnccccncxxxxxxxn$unbcnnnnnxxxnnnnnxbnnmNnccccmmNnmnnnnnnncnnnnncncbxxbxxxxbxxxvxvbxnbnnnnnvxbbnn",
"zxzcmmMclnmmmnccnnMnmnNnnnnnnxxxxxxcxzzxxxxxxxcc$rxkxxxxzllxnnNbzzxxNNMxlcmNmnccnccnMnMnnnnncccxxxzzzzxkklkxxzxzzzzzzxxxlhlcnnMn",
"cccxcmMmlxnMcccmnncnnccxxxxlzxxlzlxlxxljxccxxnnn#rvxxnnnxkzlxxnmbxxxcmNnzcNNccccnmNnncnccxzxxllxcxllllzzllzxbxxxxxzxbnmnxzkzxcnn",
"nmmMccmNMccnmmmmNnxxxlxzxxxcxxnxxxcxxxccccxcnncn#tmnnNmnnncxxzlcnmnnccNNMccnmmmmNNnncxxlllzcccncxbxzzxxzxxbxxxnxxxnnnnnmncncxzzx",
"ccccmmcmMNMnnnnmnnnnnncnNNNNnnnxccccccmncncnccxn$uvxccxcxnnnnmncbbbnnnnNMMmnnnmmNmmnnnnnnmnMNMncnxxxxxxvxncxxxxxxxxxbccccncnnnnn",
"mmmnmnmncnnmmnnnnNnNnmnncnnccnnnnccncccnccncncnn$unbnnnnnnnnnnnnnMMnnmmcnnmmmmmcnnnnnnnnnnnnccccbnncbcbbxcxbxcxcxcnbnnbnNnncnnnn",
"ncnnmmmmmmmMMnmnncnccncnccccncnncnNcnNnccncccccn$pmcxcccnnnnnMMnnnnnmmmmnmmmNcmmnnnncnnccncxccnnxnbxnnbxcbxcxxxccccxcxccnnMnnnMn",
"VBMmMMmNBmNNmmmNNnnNnnNcnNcNccnnnnncnnmcncncbbbn$pNbcnnNnNNnNNNNMNNmmmmmNNNNNNmmNmNnnnmnnnnnnnncnnnxnccccnccxbbbcnccbnnnNmNNNNmN",
"NNMMNNNNBBVVVVBNNNNNNNNNNnNnNNNNnmnmMMNcccncbxvn$unbncnnnNnNNNmmMBmNNVVNNNVNNNNNmmNNNNNNMMMnnnnnnmnbcccNNccxbbxvcnnnnnnMnnNNmmmm",
"$@####$$$%-;::>>>,,426,6,,,,,>>=**---%$@@$#@#O## o#####$#$######$$##########$$#$#@@$$@%:-----::*:,>1<<41,,,>,1,:***:*--&$##@##@@",
"glllllllllllgllllxxxxzxzxxzzxxzlllllhlllggllghghlllglggdggggghggglllllllllzjglllllllllllllhjlgllzxzxzlxllzlhlllz:tlhhggggghhgggh",
"cNbmnnmnmNMMmnmmnNNNNNNNnNnNcNNnmmbmmmmncccnnbnnnnnbncxxcbbnbbbbnnnmcNNcNNmNnnmNmnnNNNnNMmnnnmnnNcxnnxxnnnxjxxvn4gmnbbbvvbvnccmc",
"cccxcbbxccnnmnnbcncccnvncncncnccbnnbbbbccxxcvbbnccccxxxxbxxcbxxxccxcccccxnnnnnnbbnbxccxxvbbvvvbbcxxxnxxxxxxxxxxv4gnxbzzvxxxbcccc",
"xclzzzbxcccccbccxxxxzzzxkkzzxccccccbxcccxxcxvvbvcxxcxxxxxxzxxxjxzzzkxcccxxxbbbnxxxxxxxxzlkkhhhlzxxxxxxxxxxxxxxxn,sxxcxxxxxzxxzlx",
"zlllklzzlxlxxzxljjjlkkkkddldllzcxzxzzzzxxlxzkvkkxjjjjkjjhkjkkkjkzzlhllllkxkkxxkxhxkllzjhhhhhhhhhhzlljxzkjjjzhjjx>uxjkkkkhllkklll",
"zzzkjjjjzkkkzkkhjjjzhhjjhjlhhhkkjjzzzzkjhhlzkhkkkhkkhkklkkzklkkkzzkkjjhkkjjkjjhjjzzjjzkkklkkjhhhhjllkkkzkhhhhkkk:ykhhkkzkkkklkkz",
"xxzjjzzzzzzhlzhhdhhkhhjkjhjkkzzzzkzzjhhhkzzzhhhkkhklhzxxjghkzxzzzczljzzzzzjhjzhhhhzzjzzllkkkjjzxzkzzkklhffhkkkkh>uzklzxzjhhkkxzz",
"xxxzxxxxcxckkzzlkhhjkjjjjlhjzzzzzzzjjhghzklzfdhhkkjlzxcbxxxzzxccxczzcxxxxxzjkzlljjxljjlzzzkkjzzzxzzzzzkkhhkkhkkh=ukzzxcbccxxxzcc",
"xxzzxzzzzkkzkzlljhjjjlklkzkxkzkkzzzzjjkkklkkhhfhkhkkkzzzxzxxzxzcxczxzzzzzzzzzzzzlxxzzzxxzzkxzzzzzzkzkzzkkhkllkhk;ukkkzzzzzxzzxcz",
"zzzllkkkzzzzxxxxxzzzzzzxzzzzzxzzzzxxzzbzxzxlkklkzxlkkjjzlkzzzzzkzzzkzlkzzzzzvzxxcccczczcxxxzzzzzzzzzzzzzvvkvzzzz3akkkklkzkzzzzzz",
"xzxxccxxzxxcccxxxzzzzzxxzklzxzzkkkzkzkkzkzzxxvxxxxzxzzzzzvzxzzccxzzxxcczxxzcvvvxccccczxcxxxxzzzzzzjjkzkkhhkhzzzb1avzzzzzxzczxxcz",
"bbvcccbcccxccccxzxzxccxccxzxzxzzzzzkzzzzvxzzxxzxxxxxxxxcxbbbccbbbccccbccbcccbbbxcccccccccccccxxxzxzzzzzkzzvkzzzv3avxbcxccbcccbcb",
"vcbxcbcbbcbbccxxxxccccccbccczzzxxbbxxccxxxxxxxxxxvxvccbbxxbbbcbbcccccbbbbccbbbxbccccccmcvbbbbxzxxzzvxxvzvvzvxzzb3abvbcbcccccbcbb",
"bbbbbbbcccnnccccxxcccccnbcxzzzxzxzbxzzzxxxxxxzxxxxxxxccxbbbbbbcbbcncbbbbcbbnbbbccccmcmccmcmccxxxzxzzxzlzzzzzlkkx,abxxxcxcxcbbccc",
"cccxcbbbcccccnccccncccccbncxcbcxzzczzxxxxzxxxxxxxcxccvcxzbzbzbccccccbbbbbbbccbbbmcNcmcmmcccccxxcbvxxxxzxzxxxzxzx1abxbbxcxccbcccc",
"xcbbbnnnnnnnncnnnnncnccccbccxnncxcbzccbcxxvxxxxxxxxxxcxxbzbzbvzcccccnnnbnbnnbbbnmccmmNmcmccmcccmbbbxvbvxxccxxzzc,pcxxxxxzxczcxcx",
"bnbbnnnnnnnnmnncncccxccccccccbbncbbcccccxxxzxxxzxxxcccxxzbbbbbbbcnnbbnnnnmnnmnmbccmmcccccccmccccbbbvxxzxxxxxxzzc1abxxbxxcccxbccc",
"bbbbbbmnMMmnNmmnxxccxxxxvvxnccccbzxzxcccxxcxxxzzxvxxxcccbzbzbnbbbbbnnbnnmmmmMmmnccmcccccmcccccccccxxxxlvcxzzxxzb3avxxbvcvbxvbbnb",
"mnnbnmmnBBMMBBNNnnmnnnnnnnmNnnnnnnbbbnbbbnnbvbxbvvvvxcxxbvxbbbnbnmnnnmmmMMMMVMMMNNVNVNmmNmmNcmmmmnnnbbbbbbbbbbxb4sbxvxxxxxvvnbnm",
"MVVVBMMBBBBBVCBVBVVVVVVBBBBBBBBBMMMmVVVBBBMMMMmmmmmmnmnmnmmmmnmmMBVBBMMBBVBVVVVVVZZZZZZZVVVVmMVMVmmmmmmMMMMMMMMB5hmnmnnmmmnmMnmM",
"w99799w7w080000000w0ewew000w0907899588998999799999w959w599wertppe0788w99w970w00wwwwwwwwwwwwtfrfrrfeffewfirrrerrp%9pyrryyrrr07990"
};
