/* XPM */
static char *cbc6fa175c8940aaaa873f33382c292ck4PmngGe2Hc1lfth[] = {
/* columns rows colors chars-per-pixel */
"80 80 155 2 ",
"   c #2D261E",
".  c #2C281F",
"X  c #30271E",
"o  c #2D2721",
"O  c #2F2921",
"+  c #302720",
"@  c #342C24",
"#  c #392F26",
"$  c #352F29",
"%  c #392F29",
"&  c #343027",
"*  c #393027",
"=  c #373029",
"-  c #3C332A",
";  c #3F382E",
":  c #42362D",
">  c #43392F",
",  c #423730",
"<  c #453B32",
"1  c #4A3E34",
"2  c #493E38",
"3  c #503F36",
"4  c #444035",
"5  c #4D4136",
"6  c #4E433A",
"7  c #534236",
"8  c #53453B",
"9  c #58473D",
"0  c #55493E",
"q  c #5B4A3E",
"w  c #604D3F",
"e  c #514640",
"r  c #5A4740",
"t  c #554A41",
"y  c #5C4D42",
"u  c #5E5145",
"i  c #5D5249",
"p  c #604F44",
"a  c #624F48",
"s  c #625246",
"d  c #65554A",
"f  c #68574C",
"g  c #66594D",
"h  c #6B5A4D",
"j  c #705E4F",
"k  c #6A5750",
"l  c #665A51",
"z  c #6D5D52",
"x  c #715F53",
"c  c #71604E",
"v  c #6E6155",
"b  c #6E6259",
"n  c #736255",
"m  c #796656",
"M  c #7C6957",
"N  c #756559",
"B  c #79665A",
"V  c #76695C",
"C  c #7B6A5C",
"Z  c #756860",
"A  c #766960",
"S  c #766C62",
"D  c #776960",
"F  c #786B62",
"G  c #7C6B61",
"H  c #7F6B60",
"J  c #786C60",
"K  c #7A6C61",
"L  c #796C63",
"P  c #7D6D60",
"I  c #7E6C60",
"U  c #7F6D61",
"Y  c #7C6E61",
"T  c #7F6F60",
"R  c #7E6E61",
"E  c #7D6C62",
"W  c #7C6E63",
"Q  c #7F6F62",
"!  c #7A6D64",
"~  c #7B6D64",
"^  c #7F6E64",
"/  c #7E6D61",
"(  c #7E6F68",
")  c #7D7067",
"_  c #7E7164",
"`  c #7F7168",
"'  c #816B56",
"]  c #806D5E",
"[  c #816E5E",
"{  c #84705E",
"}  c #816E60",
"|  c #816F61",
" . c #826F60",
".. c #806E62",
"X. c #816F63",
"o. c #806F65",
"O. c #836F64",
"+. c #816E62",
"@. c #817060",
"#. c #807063",
"$. c #827062",
"%. c #827263",
"&. c #847163",
"*. c #817164",
"=. c #827064",
"-. c #837165",
";. c #827265",
":. c #837364",
">. c #817066",
",. c #837167",
"<. c #817366",
"1. c #837366",
"2. c #857365",
"3. c #857264",
"4. c #857367",
"5. c #837666",
"6. c #847465",
"7. c #857565",
"8. c #857566",
"9. c #847467",
"0. c #867466",
"q. c #877567",
"w. c #867667",
"e. c #837265",
"r. c #887566",
"t. c #837268",
"y. c #877368",
"u. c #857568",
"i. c #877569",
"p. c #867669",
"a. c #85746A",
"s. c #86756B",
"d. c #87776A",
"f. c #857569",
"g. c #897769",
"h. c #89776B",
"j. c #89766A",
"k. c #86786B",
"l. c #8B7B6E",
"z. c #8E7B6D",
"x. c #8A7A6C",
"c. c #877A71",
"v. c #8C7B71",
"b. c #8E7E71",
"n. c #8F7E74",
"m. c #8D7D71",
"M. c #8E7F78",
"N. c #907F75",
"B. c #907E71",
"V. c #8F8174",
"C. c #8E8074",
"Z. c #938376",
"A. c #918175",
"S. c #958578",
"D. c #A08F85",
/* pixels */
"# @ < z V V V V N V V n N z y 2 ; = = @ @ @ @ 5 d b Z ~ J b * 6 V z b b z z g y t 6 6 8 8 8 6 t t t t 6 # < b S ~ Z J J ~ _ _ ~ V n z z l l d d i y t t 6 5 , @ ",
"O t a.o.=.#.o.=.8.8.=.=.8.8.=.=.8.P ~ C < # z =.8.#.8.a.a.n.t s N z B V N M C N C C m B M B C M N N m N 9 N V.v.b.Z.S.N.b.x.=.P C V M C C C C C C C M N V N b 6 ",
"t X.B C #.2.8.g.g.g.a.a.a.a.8.s.a.8.2.z.g 6 2.P P P P P C C 0 u J M C C C C C C C P P C C P N V N M m N u z M M N n n N N n C M C C M P P C C C C N N N N N z 9 ",
"n M #.t.8.8.8.2.8.8.5.=.9.a.a.a.=.#.=.a.v 6 P C P C G C C X.y g ^ G C C P X.[ M C M C C N N N N m n n N y h M C C C C C P C C C C M M C C C V V N N N N n n n 8 ",
"m X.P =.X.#.=.=.2.=.=.=.=.=.=.=.=.#.#.8.n 0 C M M N M B B B y g C m V C C C C C C B B N B B N n m n n n y d M N N M C C C C C C C C C C B C N N N N m n n n n 1 ",
"n C #.P P =.^ P X.P P #.P =.=.#.P X.C 3.z y n m n m N n n n 0 g C N V C N N M C n N N m N n n n n n z z y d M N N N N N C C N N B M N N N N N N n m n n n v z < ",
"z M C C J C P C C C X._ C #.P P X.P C P z 0 n z n x z z n n t g M m m N B m m B n n N x n n n z z z z z y s m n n m m N N N N n N N N m m n n n n n n x z z z , ",
"z N N C C C C C P C C C N M M C P M C C h 8 h h h f g f f g 0 g m n N m n x n n n m n n z n z x z k k z q u n n n z z z h h h g h h z n m n n n n z z z z z h > ",
"g N B N V C B m x z x z z z z v N C M B g 8 h s s u s d s s 8 g n n n n x n n z n z z h h z h j h z f h 8 y n k f s u s d s d f f h d f k h z n z z z z h h f : ",
"s n n v z z f h f h h h h k l g h z n B d 5 s y t y y p y y 7 y z z h h g f f f s s s s s s s s s d f h 8 8 d y y y s s s s s s d f d f f s h h z k k h h h s - ",
"y g d f g f g g f f f d f f f f f s d z u < q t q q 0 q 0 0 1 0 a s y y y y y y p y y y y s t t q t q y 5 8 u y y y p s y y s p u u u s s f f s s p f g f g t # ",
"y f d g f f f f f f f f f s s f f f s f y < 9 8 8 8 9 9 8 9 > 8 y y y y p p s p y y y y t y y t y y t y < 5 f t y t y y t q p y u u u y s s y s s y u s y s 9 # ",
": 9 9 0 y q q q q y y y s y q t y t t y < @ < < < : : - - < # O # # @ # % : < 8 8 9 0 8 8 8 8 6 1 < < < @ @ 0 0 0 t y q t q y t t t q q q 9 8 9 y q 9 6 5 2 *   ",
"5 8 8 e y t y 0 0 8 < - @ & < 8 8 8 9 y y i d g k z z z z l b b z z k g i t < @ @ * ; , 2 8 9 8 t y u y d i i f u : # * : 0 8 8 t y y u i t t 6 @ # - 6 6 6 6 6 ",
"#.X.X.=.o.[ M m B M P g.t < B B C M C C C C C C C X.X.C ^ ^ #._ =.t.a.P =.g.x.< s n h m C M C C #.g.g.g.B.B.b.g.g.#.< @ n =.#.5.g.b.A.Z.b.g.=.a.z   d C N n B C ",
"m N M M M M m m n j h m f 0 N n N N N N M C M C C [ C C C C V C M C N n z f f t M 2.X.2.#.#.3.X.#.[ C C V m n f f n x 5 #.8.=.8.a.8.g.a.#.=.C B C < s h h x h n ",
"B C C C C [ C C [ { C [ u 0 m n n n n N B B C C C M m C C C C C C C N V N n u y C X.X.3.3.3.#.#.8.8.#.3.2.C C M M m h q C #.=.8.2.8.8.a.a.a.2.=.C 2 f N m m m B ",
"M N B M M M C M C C M C f 0 n n z n n N N m N N m N N N C C B N V N n n n x g 0 C C C [ #.X.#.C 3.#.C X.C M m M M C m u C P _ =.2.=.=.=.=.=.P _ C 8 z n n n B n ",
"M B m m B M C M M M B C s 0 z z x n n n n n n n m m n m N N N m N m n n n z s 8 C C C C C C [ [ C M C X.C C B m m M n u B P C P P #.P P P P C C P 8 h x n n n n ",
"m m m m B B m M M M M M f 0 z z z z z z n n n n N n n m n n n n m n x z h h y 6 M C C C C B M C [ M C M M M M M m n n s N C M C P P C P P C C B C 0 f h x n n n ",
"n x n n m n m n m M m M s 8 h h h k z z z h x x z n n n z x x x z z n z h z 9 2 m B M m M M M B M M M m m m M m n n z y N C C M C C C C C C C C C y h h z h h h ",
"x x n n n n n n m n f f q 8 f f g h h h h n z z h n z z z z x z x z z h f f 8 > m m n n B m m m m M m m n n m h f f f q n N V M C N M C C M N n n q d h h h h h ",
"x x x n n n j h s p t y q 8 d d f g d f f h h k k h k z z z z f f s y t 9 q 8 > h n m m m m m m B m m m z h f s s s s 0 z m N m n N M C N z f d f 8 s f h f h z ",
"f s f s s s y y y p y q 8 2 y u s f f g g f f h h g h h s p y 9 9 q 9 9 8 9 8 > q s h h h n n n j x h f s s s s s s s 0 g n n n N n n h f d s i f 8 p s s s f s ",
"y y y y y y y y q t 9 q 8 2 8 1 8 q 0 0 q y y t q q q 9 7 6 5 8 8 9 8 9 9 9 8 * q p q q s s y y s s q y s p y p p p s 6 d f f g d s u s s y p y f 5 p p y y y y ",
"q q q 9 8 9 8 9 9 8 7 q : : 8 6 7 8 8 8 2 7 7 1 7 8 8 8 8 8 9 8 1 2 2 6 7 1 < # 8 s p p s 9 q y y y q s u p p y q y q @ t s u u u p y u s s y s u # 5 q q y q y ",
"< t u i u u u y s y t 6 6 < , ; - - * - - : : ; - * * # # # # , 6 8 6 6 1 < ; # # - : : > < 5 < < 2 < < : ; < 6 8 t 6 < 6 t t t 0 t 8 9 t t t 0 , $ # : : > - - ",
"V o.=.=.t.J N n P a.a.t.=.=.J V z u 5 > > # @ @ ; , < 6 t d b J J M m n x n n h d * @ 6 l z z v V ^ J J t * N n z m V 8.=.t.a.s.k.k.a.a.a.=.8._ #.#.J C N n f * ",
"x x n m M C X.#.#.2.8.2.g.8.a.h.p.g.8.n h ^ 6 4 N x C P o.P P C C C C C N M n n M 1 < M N N n m m n n n d 5 h h z N N M C =.a.8.s.g.g.x.x.x.x.z.x.l.z.x.8.a.8.6 ",
"m #.=.=.8.2.2.g.a.g.g.8.p.g.g.g.g.a.8.X.f h u 8 n z z m N C C P C C N N C N n x n 8 1 m n N C C C C B C z 1 C =.#.=.8.g.g.a.a.g.g.g.x.x.g.a.x.g.g.8.a.a.a.=.=.t ",
"n C P 3.3.=.=.=.#.2.g.8.a.a.g.a.=.a.#.=._ h 5 y =.C P C M C J C B N N n n n z z n t 8 n z n x n B N B C m 6 C G P P X.2.=.o.2.a.a.a.a.g.a.=.a.a.g.a.8.2.=.o.=.u ",
"n C X.#.X.P X.=.P =.2.8.t.=.#.=.#.X.C J P P 6 s G N M C M B N N M B n z h n z h h t 0 x z n n n N N N C z 8 C J C C X.#._ =.t.5.=.8.8.=.=.=.8.2.8.=.X.P _ P C u ",
"n C M C C C P P P #.=.=.=.P 2.2.X.X.C M P P q p C N N N B B n n n n z x z h k f h y 8 h h z n z n N n N h 8 N M C C P P P P _ =.=.#.=.=.#.=.=.=.=.o.P X.#.C C u ",
"z B C C C M C X.X.C C X.#.#.X.X.C C C C C C 0 y N n n n n n n n z z z z k k g d f t 8 h g h k g z n z n f 8 N B C C C P C P P P C C P P #.#.P _ P C C P C C C u ",
"h n n N C C M C C C C C C C C C C C M N B C 8 y n n n n n x n z z z k f f f f s s 8 8 f f h f k z h f x s 9 m N N m M C C C C P P P C C P C C P C M P C V N N u ",
"s n h h z n m N M C C C C C C C C C m z z h < t x x h h z x z z g h h f f f s s s 9 1 s s s h f f h h z y 9 m n n m N N C C N C P C C C C C C M N M M V N n n y ",
"y h h k h z h h z x n m m m n n z z f g s s : 8 f f f h f d d f f f f f s f s p y 7 , 9 y p f f d f h s 0 8 z x n n n m m N n z n n n N C C C M N M N n n z n y ",
"t h f f h g s f f d f f g g f f f d s d d s * 2 s p u y s y y q p s y y y t 9 8 8 5 < 8 7 q t 9 0 y q 0 8 < p s s s s s g g g f f h f h z v n z x z z z z h z 8 ",
"8 g f f h h h h f g h g f f f s s y y y y q - : y y p y t y y y 9 q 8 8 8 8 8 5 8 : - 6 8 8 9 8 9 9 8 0 8 - y p p y s f f g f h h f h z h k h k z z h k z h n < ",
"# < 1 1 2 2 6 1 5 5 < < 1 < < < 2 < : : : - @ @ ; : - # ; < > : : : < < < > : : : # # % > < , < < < < ; @   * 2 6 1 2 2 2 6 6 5 6 6 8 8 8 t 9 t 9 0 8 8 6 6 : @ ",
"s d f g k z z k h k d u t 5 > @ @ 2 t d d d f s s i t 8 - @ , i k n n V V V V V N N n z z l z g s u y t t t 2 @ O O * 2 5 8 8 6 5 < , - @   o - 1 < < 5 1 7 9 y ",
"M M [ M [ [ [ M ' M M M m M M h 8 N n N M X.#.8.8.a.=.v.t - n x n N N N C M C P C N C C P P X.X.C X.X.#.X.C P u @ @ h M m m m m N V n n V 2 # j C ] M C [ [ C M ",
"g.8.8.2.2.X.[ X.[ C M m m n n h 8 n C P =.a.8.2.2.g.a.g.8 < z n N n m M C B C C C C P C C P P P X.C M M C m C N # < n z n n n n h h h f n i > [  .3.#.#.2.8.8.8.",
"[ 3.3.3. . .[ [ ] C M M M M M h 8 V V C P P 2.X.a.=.a.x.6 8 V N n m B m C B m C N N V V N B P C C C C B C C N M : 2 m z n n h x n z x z n 6 < M [ C [ [ X.X.3.3.",
"X.{ r.[ [ [ [ [ C M B M M m m f 8 m N C J P X.X.=.P =.g.6 u N n n n B N n N M N V C N C C M M C C N N N C n n N < 5 n n n h h z h h z f h 5 > M M M C [ #.C [ X.",
"[ X.X.[ C M { M M M B m m n m h 1 n N N N C X.C C P =.=.8 f n x n n n N z n B m B N m N C N N B N n N n N x x m 8 2 x j x h h h z h h h z 5 ; B M C B C C [ C [ ",
"[ C C C M C M M M M m m m n n h < k n n n N C N B C X.C 8 f z z n x n n n n n n N N N N N N N N n N m n n n n N t 5 j h h h h f f f f f h 5 - x m m M M M M C C ",
"C [ M M M M M M M m m n x x c f : d n n n n B M M C C n < d k z z z z n z n n n n N N n n m n b m n z z x b z n y 5 h h h h f f f h f s f < * h B m B B B M M M ",
"M M n n n x n x n n n c n j h f : y z z z x n N m z h f , u k h h h h z h z n b n x x m m n z x n x z z z z z h 8 < h h h h f f f f f f f > * s n n m n n m M M ",
"h s d s s p s p s f n x h h h s * 0 z h h z n z d d d q : s h f h z h h h z h z z h h h h f h f k h x x z z z z 5 > f f f f f f s s s s s - # 9 x n n h x n x h ",
"s s s s s s y q w q y s f h h p % 8 f h h z z p y p y q * q f h f f k f f f s y y y q y y y i p s p f h h z h f < - s f s s y y t y q q 0 * @ 7 s x h s d s s s ",
"p p s p q y y q q q q q q q p 8 # 2 p d d d y y y y s 0 # 8 9 9 q r 9 8 9 q q t y y y p y y y y y y y s p s g s : - y s s u u y y y q q q * O < t p y q s s y y ",
"7 7 7 8 8 7 8 7 8 7 7 1 1 1 > @   # < < 2 5 8 8 1 < , #   - < 1 6 1 < 1 1 1 2 5 5 < 1 5 1 5 8 8 8 8 8 9 7 8 0 1 # X > 5 5 1 < 1 5 5 < < :     @ 3 9 q 9 8 8 8 7 ",
"> < < > ; # O . $ l b g d y 8 6 1 2 , < , , , > ; * ; , 5 8 8 * @ * > : < 6 6 6 6 0 t 0 6 : @ o .   . . # @ # * * , < 8 t t t y y t t t t t 9 6 2 - # O .     @ ",
"m G b N V N z 0 < J M C =.x.g.s.9.a.a.t._ ^ P P #.P #.=.a.z.Z.y @ n C V C M C J P =.a.8.a.C z i 0 6 8 6 @ > ^ t.9.a.n.C.l.b.b.b.v.s.=.a.5.a.8._ _ C k y t y i , ",
"B 2.X.C B m M n : b M N C P X.X.=.=.a.a.a.g.z.g.l.b.z.v.g.g.=.8 > C C P #.M C #._ P P P C M N M P =.8.g.6 5 =.C P P ^ =.t.=.#.g.z.z.l.l.l.b.b.l.b.b.z.8.P C P y ",
"N P C P C V N d > C P P =.#.2.a.g.a.g.g.a.x.x.g.x.x.x.a.a.x.l.7 , C C P C C 3.C C P =.=.P P C C B n B C t 2 g.g.g.l.b.b.C.b.b.Z.A.Z.B.b.b.l.x.x.z.x.a.x.a.=.=.9 ",
"n C M C C M C f : N C M C P =.#.=.2.8.g.a.x.g.g.a.a.s.h.a.h.g.6 2 M C C C C C C C C X.X.P P B C C B M P u 5 g.=.a.g.a.x.x.l.l.l.x.l.x.x.l.x.z.x.x.p.a.a.8.=.=.t ",
"m C M B N N B s - N C N C P X.C =.=.2.2.a.g.g.x.8.a.g.a.a.=.a.8 6 C B M C C M C P C C C C C C C M N M C d 5 #.=.8.a.=.g.x.g.x.x.x.x.x.g.x.x.a.a.g.g.8.2.C C 2.y ",
"n C B N n n n u - n M N C C C P P #.#.=.a.2.#.8.C C a.8.g.8.2.2 6 B m N N N N M M C C M N B B M N N m C d < =.=.=.=.2.a.a.g.x.a.g.x.x.g.8.#.=.8.a.a.=.2.#.C X.t ",
"h N n N n n N y - n B m N C C P J P #.=.X.=.X.C o._ #.8.X.=.=.> 5 B n n n n m N N N M B M N n N N n n N s < P P P =.=.#.8.8.8.2.2.8.a.2.=.P X.2.#.=.P C C M C t ",
"d N N n n n n t # f N N C V M C C C P P P P C =.#.=.#.^ P =.C ; 2 n n b n n n N n N m n N n n n n n n n u ; z C =.#.=.=.=.8.=.=.=.=.a.=.=.=.P X.P P P X.P C M t ",
"y f z n n z n 8 @ y n n N N N N N C P C C P C X.#.2.X.C n z f * > h z z x n n n x z z z z z z z n n z n y @ s h N P P C C C C ^ o.#.t.=.=.=.X.=.G M V m n N B t ",
"q s s d f h z 5 @ 8 f n n n N N N M N N C C M C M C N h f f p # * s h z k h f g g f f f d d s s d h h z 5 O 6 g s g g f f h h h z n N P P M n z k f g h g g h 8 ",
"8 s s p q t y 2 @ 8 s f s f h h k h f h h h f f d f d s s s y @ @ 0 h f s f f s s s s s s y y y y y y f 2   : f s s p d g f f f g g d g z h s d g g g f g g f 5 ",
"< p s y y q q > @ 1 s g s y u s s s p p y s s f d d d d f s 6 @ # 5 p y y p q y u y y s d y s u y y y y * O - d g f g f s s f f g h g g f f d s s s d f d d p : ",
"@ # - - * * # O O # ; - 8 t t y 0 6 2 5 5 < < : * # # ; : *   @ * , 8 t u t y < - * * * * * ; , < < < ; @ @ + # * * * * * * * * - : , - - , > < < : > : > > - # ",
"b z l d u 8 2 : - * @ < N V ^ a.x.v.Z.V.M.M.c.a.J V y @ * y V J =._ P J n k n < @ 5 y y d l b V J Z ~ ^ ~ Z V k d d i y y u 0 6 ; O o < b t.o.=._ ( Z J ~ V N V ",
"=.X.2.=.#.X.=.M m V y 5 h h f h h n C ^ ` k.b.n.Z.Z.D.y y A.^ n n n N C N M M , 5 z h h z z z n b n N V N M V n n n n x x n n C ^ u * C P P C C C P #.P #.=.P =.",
"=.#.#.=.X.X.#.P C J z 8 x z b n n n n z z n n n z z P d t h f m =.X.=.=.#.P X.< 8 z h z n n N N C C C C C C C P C P P P P C C b N z < C P P P X.#.a.8.=.=.8.2.=.",
"=.P P P P P C C M N h 6 z z z x n n n m m N N N N n N t 8 M =.#.C P C C C C G < 8 z h z x n n N B n N N B C C C C C C C C P C C P g 5 C P C C =.P 2.X.P X.#.=.#.",
"P P P C C C C C n M h 6 z h h z z n n n n m m n N n B 9 y =.J C M C C C B N B 2 0 h h z h z z n n N n N N N V M C N C C C C M M V k 6 P N M P C C P C P P C P ^ ",
"P C N C M N C N n N f < h f h z z z z z z n n n n n N 8 q X.M N M C B M N N N 2 9 h f f z z x h n n n n N N N B N N N N C N m n N k 8 M N M C V C V C C J P C C ",
"G C m N N n N m n m y < f g f h h h z z z n x n n n N 6 y C N M V N N N N n B 2 8 f s s h k h h z n z n n n n m n N N n N N n z N g 0 M N V N C M B M M C C C V ",
"M C N N N n n x z n 0 - g f g h h k h z z h z z z z n < t C n N N N n n m b n < 5 d s d f f h h z n z n x x n n n n n n z n z z n s 8 N N N m N M N N C N n N M ",
"N m m n n n n n z n 2 # q s g f f g g h h k z z h x n , 9 m n n b z x x n x x < 5 s y s s f f f h k h h z z z h h n n z z z z k z y 2 z h z z n N n N n n m n n ",
"m m N n n z k s y y : # 8 8 s h h g h h h h h h h h f * 8 n n n n n n z h f h < 1 q y y s s d f f g f f h k h f s s p y q t t 9 9 5 ; k g g g f h z z n m n n n ",
"f h g g f p q 9 9 9 ; @ 8 3 3 8 8 t y y s f f f y 0 s * 6 p s g h f s s y y y < 2 q y y y y s s f f d d p y q 9 9 9 9 9 9 8 8 8 8 1 # s f f s s s s s s d f s h ",
"y y t t t t t r 9 0 - O < 5 5 1 2 < 1 8 8 1 8 9 9 s u @ 5 9 q q 9 y r r q y q - : 3 7 7 3 7 8 9 t 9 9 8 9 9 9 8 8 8 8 9 9 9 8 8 t 1   8 g u y y s s p s s s y y ",
"8 8 8 8 8 8 6 6 6 2 = $ * < , < < 2 5 8 6 8 8 8 t y < # * 5 8 6 5 8 5 5 5 2 < = * * ; > > < 2 2 5 2 2 5 5 5 6 5 5 5 1 5 5 5 5 5 5 > # ; 9 8 9 0 t y y t t 8 8 8 "
};
