/* XPM */
static char *_3667a8f04714a3596f0398ef14ad63ae5LUwMirEI1kFGCQ[] = {
/* columns rows colors chars-per-pixel */
"80 80 157 2 ",
"   c #2F1E2B",
".  c #321F2D",
"X  c #34212E",
"o  c #362331",
"O  c #3B2534",
"+  c #3E2836",
"@  c #3E2738",
"#  c #3F2839",
"$  c #402837",
"%  c #432B3C",
"&  c #482D3F",
"*  c #462D41",
"=  c #492F42",
"-  c #4C3145",
";  c #4F3449",
":  c #513447",
">  c #53364B",
",  c #58374D",
"<  c #56384E",
"1  c #59394F",
"2  c #563951",
"3  c #5C3C54",
"4  c #5E3F59",
"5  c #603E56",
"6  c #613F58",
"7  c #5F405A",
"8  c #624157",
"9  c #64425C",
"0  c #68455F",
"q  c #664561",
"w  c #6A4661",
"e  c #6D4965",
"r  c #6E4B68",
"t  c #704C66",
"y  c #724E6A",
"u  c #76516E",
"i  c #79526F",
"p  c #765171",
"a  c #7B5574",
"s  c #7F5877",
"d  c #7C5778",
"f  c #7F5979",
"g  c #805977",
"h  c #815C7F",
"j  c #825D7F",
"k  c #835C7C",
"l  c #845C7C",
"z  c #845D7C",
"x  c #855D7C",
"c  c #845D7D",
"v  c #855D7D",
"b  c #855F7C",
"n  c #855E7D",
"m  c #865E7D",
"M  c #845C7E",
"N  c #845D7E",
"B  c #845E7E",
"V  c #855E7E",
"C  c #855E7F",
"Z  c #855F7F",
"A  c #865E7E",
"S  c #865F7E",
"D  c #865E7F",
"F  c #875F7F",
"G  c #835C7C",
"H  c #885F7F",
"J  c #885F7F",
"K  c #87607F",
"L  c #89607E",
"P  c #855F81",
"I  c #865F80",
"U  c #875F80",
"Y  c #845F82",
"T  c #875F82",
"R  c #865F80",
"E  c #876080",
"W  c #876081",
"Q  c #866082",
"!  c #866083",
"~  c #876184",
"^  c #876081",
"/  c #886080",
"(  c #896081",
")  c #886181",
"_  c #8A6181",
"`  c #8A6281",
"'  c #886082",
"]  c #886182",
"[  c #896182",
"{  c #886083",
"}  c #896083",
"|  c #886183",
" . c #8A6183",
".. c #896283",
"X. c #896282",
"o. c #8B6283",
"O. c #8A6383",
"+. c #8C6383",
"@. c #886284",
"#. c #8B6284",
"$. c #8A6384",
"%. c #8A6285",
"&. c #8B6386",
"*. c #8A6387",
"=. c #8C6384",
"-. c #8C6385",
";. c #8B6485",
":. c #8D6485",
">. c #8C6484",
",. c #8D6486",
"<. c #8C6587",
"1. c #8D6587",
"2. c #8E6586",
"3. c #8E6587",
"4. c #8F6687",
"5. c #8B6384",
"6. c #8E6589",
"7. c #8D6689",
"8. c #8E6688",
"9. c #8F6689",
"0. c #8F6789",
"q. c #8E668A",
"w. c #8E6689",
"e. c #8F688C",
"r. c #906787",
"t. c #926887",
"y. c #906788",
"u. c #90678A",
"i. c #91678B",
"p. c #906789",
"a. c #906889",
"s. c #90688A",
"d. c #91688A",
"f. c #91688B",
"g. c #90698A",
"h. c #92698B",
"j. c #90688C",
"k. c #91698D",
"l. c #92698C",
"z. c #936A8D",
"x. c #946B8D",
"c. c #946B8E",
"v. c #92698C",
"b. c #976E92",
"n. c #976F94",
"m. c #966D91",
"M. c #986F92",
"N. c #986F93",
"B. c #9A7195",
"V. c #9B7297",
"C. c #9A7195",
"Z. c #9C7398",
"A. c #9C7498",
"S. c #9F769B",
"D. c #9C7499",
"F. c #A1789D",
"G. c #AB82A9",
/* pixels */
"$ O - p G k k f G G G d f p 9 > * # # O O O O < r a Y ~ P a $ 3 f a a a a p t q 4 3 2 2 3 2 3 7 7 4 7 2 @ ; f P W k P ~ ~ &.&.~ k d p p y y r e e q 9 4 3 2 - O ",
"o 8 j.&.>.>.>.q.h.h.q.q.q.h.q.q.h.&.~ b ; @ p q.q.>.h.j.j.V.8 e G p G k G b H s P b G G b G b k G G g d 3 f A.n.B.A.F.Z.B.m.q./ b k k b b b b b b b k G G f a 2 ",
"8 -.G / >.q.h.h.x.x.j.j.j.j.y.j.j.j.>.M.t < y./ / / &.&.W P 8 w W b / W P b / b W / / P b / G G G G G G w p b b G a s G G a b b b b b / &.P b P k G G G G G p 3 ",
"a b ;.q.q.h.h.y.h.h.h.q.h.h.h.h.q.;.>.i.p 2 / / / W P W / &.9 y &./ / W / / / b b b b b G G G f s a a G 0 u b W b b b W W b W k b k k b P P k k G G G G a a a 2 ",
"g -./ >.-.>.q.>.>.q.>.q.q.q.q.q.>.>.>.q.p 8 b b b G k G G k 9 t W G k b P b b b b k G G G G G a s a a s 9 e k G G k b b b b b b b b b b k b G G f d s a a a a < ",
"a / >./ / >.&.&.-.&./ ;.&.>.>.;.>.-./ >.p 9 a s a s G a a s 8 t b G k b G G k b s G G s G a a a a p p a 9 e G G G G G G k b G G G k G G G G G G a s a a a p p > ",
"p k b b P P / P P W &.&.P -./ / &./ W / p 4 a p p a p p p a 9 t b g s G G s s G a a f a a a a p a p p a 9 e g a a s s G G G G a G G G s G a a a a a a a a p u - ",
"u G G b b / / / / b b k G b b / &.b b b t 2 u u y t r r t t 3 t G a f s a a a a a s a a p a p p p u y p 8 w a a a p p p u t t t t y p a s a a a p p p p p p t - ",
"t G G G k b G s a p p p p p p a G b G k t 3 y e w w e e e e 2 t s a a s p a a p p p p u u p y p u u t u 3 9 a y t e w e e w e r r t e r y u p a p u p u u u r - ",
"e d a a p u t t t i u y t y y t t p a G e < w 9 8 9 9 0 9 w 3 9 u p u u y t t e e w w w w e e e e e e t 3 3 e 9 9 9 0 e w e w e e e e e e e t t u y y t u u w & ",
"w t e t r e t t t t r e t t r t t w e p w > 9 6 6 8 3 8 3 4 < 8 w w w 9 9 0 9 0 0 0 q 9 9 0 8 8 8 6 8 9 < 2 q 9 9 9 w w 9 0 0 w w w w e e t e w e w e t e t 8 # ",
"0 t e t t e e t t e e e e e e e e t e t 9 - 5 3 3 2 3 3 3 5 - 3 q 9 9 q w 0 w w 9 9 9 9 8 0 9 9 9 9 8 9 > < e 8 9 9 9 0 9 6 0 0 w w w 9 e w 9 e w 9 w w 9 w 6 @ ",
"- 3 3 3 9 9 6 8 8 9 8 9 w 9 8 8 9 8 8 0 : O : - - - = & & - @ o @ $ @ @ $ & > 2 2 3 5 3 2 2 2 < < : > - O O 3 4 4 9 9 8 9 8 9 8 8 8 6 9 5 3 3 5 9 9 3 2 < > $ . ",
"< 3 3 3 8 9 8 4 8 3 ; & O # ; 3 3 3 4 9 9 q e r p p p p p p a a p p p r q 9 - O O % * - > 2 3 3 9 9 e 9 e e e r q = @ $ = 3 2 3 7 q 9 q q 9 9 3 O @ & 2 2 2 2 3 ",
";.-.-.>.>./ G g G b &.j.8 ; k G b b H b b b W P W / -./ &.&.;.;.>.q.y.&.q.j.m.> 0 a i s b b b b >.j.j.c.B.V.B.x.h.;.; O a q.>.q.x.B.A.A.B.x.q.j.p X r P f s G b ",
"g G k b b b G G a i i g t 4 G a G f G G b b b b H / W b P H k b b b G a p t e 9 b >.-.y.>.>.>.&.>./ L b G G a y t a a > >.h.q.h.j.h.x.j.>.>.b k P ; e u y p p a ",
"G b b b b / / / / >./ / w 4 s a a a a G k G b b H b G b P b b b b b G G G a w 9 b / -.>.>.>.>.>.q.h.>.>.y./ / b b s u 8 b >.>.q.y.h.j.h.h.y.q.>.P > t G g G g G ",
"G G G b b G b b b L G / e 8 a p p a a G G s G G G G G G b b G G G G a a s a t 8 b b b / >.+.>./ >.>./ / / b g G G b g 9 b / &.q.q.q.q.q.>.>./ &.P 2 p a a a G g ",
"b G G G G G H b b b G L t 4 p p a a a a a a a a g g f G G G G a G s a a a p e 3 b / / / / H / / b b / / b b G g G G a 9 k / / &.&.;./ / / / W P / 3 t p a a a s ",
"G G g g G G G G G b G H t 3 p p i p p p a a a s G a s g a a a a s a a p u t 9 2 b b L / b G b H / H H b b b b b G a a e G W b W / &.P / / P b k b 8 t i p a a a ",
"a a a a s a s s G G G l e 2 u t y p p p p i p p p a a a p a a a p p p u u y 3 > G G b G b b b G b b b s g G b G a g p 9 G b b b P b b / P b P P b 9 y i p u u u ",
"p a a a a a a s g p t t 9 2 t r t y y y u p p u i p p p p p p u p p u t t r 2 - s G a a G g G g g G G g a a g i y y t 8 a G G b b G G b P k G a a 6 e u u u u u ",
"a a p a a a i t w 0 9 9 5 3 e e e r e t t y y y u y u y p p p t t e 9 9 5 8 2 - y a G g s G G G b g g G p u y e 0 e e 8 u s s s a G k b G u r e t 3 w t y y u p ",
"t t t t t e 9 9 9 0 9 9 3 > 9 w e r t t t t t y t t t y e w 9 6 6 8 3 3 3 6 2 - 9 e i i u a a a p p i t t e e e e w e 3 t p p a f a a u t e w w r 2 w e w e e e ",
"0 0 0 9 9 9 9 9 9 8 5 9 2 > 3 < 3 8 8 3 8 9 9 8 8 6 5 5 1 < 1 2 3 3 2 3 3 3 2 % 8 0 9 8 w 0 9 0 e w 9 9 w 0 0 0 0 0 t 2 e r t r e e w w e 9 w 9 e > 0 0 9 0 9 9 ",
"9 9 5 5 3 3 3 3 5 3 3 5 - & 2 < 1 2 2 2 > 1 1 < 1 2 3 3 2 2 2 2 < > > < 1 < > @ 3 e 9 0 0 5 9 9 9 9 9 0 9 0 0 9 9 9 8 O 8 w w w w w 9 w w w 9 e q @ > 9 9 9 9 9 ",
"- 4 q w q q q q e q 8 2 < > = * & % % % % * = * & $ $ # @ $ # - 2 3 2 2 < - = $ + % = = - > < : > > - - = * > 2 3 9 2 > 2 7 4 7 3 3 3 3 4 4 8 4 - # @ % = - & & ",
"G &.q.q.q.P G a / y.j.q.q.>.P f p w < - - # o O * = ; 2 4 r a P &.b g a p a a y e $ O 2 y p a a G ~ W P 9 $ f a p g Y h.q.q.j.j.j.j.j.j.e.>.q.;.;.;.W b G a t $ ",
"a p a g b b &.>.>.>.h.q.j.h.j.j.j.c.h.a u &.2 ; G a b &.&./ W b b b b b G k a a b < : b G G a s s a a a e < i u p G G b / >.h.h.j.x.x.m.m.m.m.m.m.C.m.m.h.h.h.3 ",
"s ;.>.q.h.y.y.x.j.c.c.h.j.c.c.c.j.j.h.-.t y q 2 a p p s G P W / b P G G b G a a a 3 < g a G b b b b k / i < W q.>.q.h.j.j.j.h.c.x.x.m.m.x.j.m.x.m.h.j.h.h.>.>.8 ",
"a W / >.q.>.q.q.>.q.x.h.j.j.x.h.q.h.>.>.;.t < 9 >.P / P b b b k k G G a a a p p a 9 2 g p a p a G G G / g 2 P P / &.-.>.>.-.y.h.h.j.j.x.h.q.j.j.j.j.h.>.q.&.q.q ",
"a b / >./ &.&.>.&.q.y.h.q.>.>.q.>.-.W P / / 2 w P G k b b G G G b G a p u a u y u 9 3 p p a a a G G G b p 2 b P W W -.>.&.>.q.q.q.h.h.q.>.>.h.y.h.q./ / ;./ b w ",
"a b b b P W / &.&.;.>.>.>./ >.h.-.-.P G / / 8 w b G G G k G a a s a u p p y y t u 9 3 u u p a p a G G G u 3 G b b b &./ / &.&.>.>.;.q.q.;.q.q.>.>.&./ / ;.b b e ",
"p G b b b b b / / / P &.>.>.>./ / W P b b b 3 q G a a a s a a a p p p u y y t e t 8 3 y t y y t p p p s y 3 G G b b P / W / / &.P P &.&.;.;.W &./ b b W P P / e ",
"y a p f b b b b / / b b W P P W b b b G G b 3 9 s a p p p p p p p p y t y t e e e 3 2 t e t e y u y y a e 3 s G G s k b P b b / / / / / / W P / P k / b k G G q ",
"e p u u p p f G b b b b b b b b b b s p p u - 8 p p i y p p i y t y t r t e e e e 3 < e w e t t t y u p 9 3 g a a s G G P b G b &.P P b P P P k G k k G G p a 9 ",
"9 u y y y u y y p p a G s s a a p u r t e w = 2 t t r y t e r r e t t t e t e 0 9 3 - 5 9 w e e e y u w 3 2 i a a p a f s G a p a a a G b b b k G k G a a u a 9 ",
"8 y t t t t e t y e r t r r t r e e e e e w $ > w w w 9 w 0 9 9 0 w 0 9 9 9 5 3 3 < - 3 2 6 8 5 8 9 9 4 3 - w e e w e e r r r t r y t u p p a p a p u u p u p 2 ",
"2 y t t y y u t t t t t t t t w w 9 w 9 9 9 & = 9 9 w 9 8 9 9 9 5 6 3 3 3 3 2 < 2 = % < 3 2 3 2 3 5 3 8 2 % 0 w 0 9 w r r t t u y r y p y y y y p u u u p u p - ",
"@ ; < < > > < > < < > - : > : > > ; = = = % O O = = % @ * > - = & - > - - - - - & @ O $ - ; - - - - - * O X $ > < < > > > 2 < < < < 2 3 3 8 3 8 3 3 3 3 3 2 = O ",
"w e t t y p u y u u e 9 4 2 - O O > 9 r r r r e e q 9 3 & O - q y a d f f G G f f f a a p y u t e q 9 4 4 4 > o X o $ > < 3 3 2 < ; - & O X X $ > : > < > 1 3 9 ",
"b L +.H L L / H L b G G G l G y 3 G a G k &.>.h.h.q.q.N.8 & a a a G G G b k P / P G b W / / -./ b / / >./ b &.w O @ i b G G g G G G s s G > $ i H H b / / / H b ",
"j.h.h.y.y.+.+.+.+.L b G G a a y 3 a b / >.y.h.>.y.j.j.j.3 > p a f a G b b G b b b P / / / / / / &.W k b b G b G # ; s p a a a p i i i t a w - / +.>.>.>.y.h.h.h.",
"+.y.>.>.>.+./ +./ H b b G G G i 3 k k b / &.>.-.q.q.h.c.2 2 G G a s k G b G g b G G k b G k / W b b b k b b G k = > G p a a u p p p p p p 2 : b / H / / +.+.>.>.",
"/ >.t.+./ / / / H b G G l g G u 3 s G b W / / -.q./ >.c.3 w G s a a G G a G k G k k G b b k k P b G G G b a a G ; < a p a p u p u i u y u < - b b b / / >./ / / ",
"+./ / / H b >.b b G G G g a s u > a G G G b / b H / >.>.3 t s p a s a G p a G G G G s G k G G k G a G a G p p s 2 > p i p u u y u u y t i < * G b b G b / / H / ",
"/ L / L H L b G G G G g g a a i - y a a d G b G G W -.b 2 t p p a a a a a a s s G G G G f G G G a G s a a a a G 8 < i y i u u u y t t t u > & a G G b b b G / H ",
"b / H H b H b G G s g g a p p y = e a a a a k G k b b a > e p p u u p p p p a a a G G a s G a a s a p p a a p a 9 < u u u y y t t t t e t - $ u G G G G G b b b ",
"b b g g a a a a a a g a a i i t & 9 p p u a s G s p u e = w y y u u u p u i a a a p p G s a p a a p p u p p p i 3 > y t u u t t t t t e e - $ e a a g a a g b b ",
"t e e e e 0 w 0 w t a p y i i e $ 3 p u u p a p e e e 9 = w y t u u y u u p u p p u y u y t t t y i p p p p u u < - t t y t t t e w e e w & @ 5 a a a u p a p u ",
"e e e w 0 w 9 9 0 9 9 e y y y 0 $ 2 t t t i p w w w 0 8 $ 9 t y t t y e e t w 9 9 9 8 9 0 9 w w e w t t y p t t - & w e t e 0 0 8 8 8 9 8 % O , e p i e e e e e ",
"0 0 0 0 9 9 9 9 9 9 9 8 9 9 0 3 O > w e e e 9 9 9 9 e 3 @ 2 3 3 8 6 5 2 3 6 8 6 9 9 9 w 9 9 9 9 q 9 0 w w w t w & % 9 e e 0 9 9 9 9 8 8 9 $ o > 8 w 9 9 w e 9 0 ",
"1 3 3 3 3 1 3 3 3 1 1 > > : - O X @ - - > < 3 3 < - = @ X % : < < < > > < < > < < > > < > < 2 2 2 3 2 3 1 3 4 < O X - < > > > < < > > : & X   @ < 3 6 3 3 3 3 1 ",
"- ; - - * @ X X # y a r e 9 3 2 < > - ; - = - - * % * - < 3 3 $ O % - = - 2 3 2 2 3 8 3 3 = O o X X X X # O O $ $ - ; 3 8 8 7 9 9 9 4 4 7 7 3 2 > & # X X X X O ",
"s P a f G G p 3 ; P k P q.c.j.j.e.j.q.q.;.&.&./ ;.&.>.>.j.m.A.9 o s / G b b b P / q.h.h.h.P p e 3 3 3 3 O - &.q.q.j.B.B.m.B.B.B.B.j.q.j.q.j.h.>.&.k y q 9 9 e - ",
"k y.&.b G s k a = a b G b / &.&.>.>.h.j.h.x.m.c.C.B.M.m.m.h.>.3 - / b &.>.b P >.;.&./ &./ b G k / >.h.x.2 < >.P / / &.q.q.>.>.x.m.m.B.C.B.B.B.C.B.B.m.h./ W &.q ",
"G / P / P k G e - b / / >.;.y.h.j.j.x.x.j.m.m.m.m.m.m.j.j.m.B.1 - b b / W W >./ b &.>.>.&.&.b b G a G b 4 > x.x.m.M.B.B.B.B.B.A.V.A.B.B.B.M.c.m.m.m.h.m.j.q.q.4 ",
"a / b b b k b r = G b k W / >.>.q.q.h.x.j.c.c.x.h.j.j.j.h.m.c.2 > b b b P W / b b b / &./ / G P P k b &.q < j.q.h.x.j.m.m.C.M.M.m.M.m.m.M.m.M.m.m.j.h.j.h.q.q.9 ",
"s / b k G G G e & G b G P &.&./ >.q.q.y.j.j.j.c.h.j.x.j.j.q.j.2 < b G k b b b P / P b P b b b b k G G b e > >.>.h.y.>.m.m.x.m.m.m.m.m.x.m.m.h.j.x.j.h.q./ / q.9 ",
"a b G G a p a w & a k G b P P / &.;.;.>.h.y.>.h./ b h.h.j.h.y.> 2 G s G G G G k b b b b G G k k G G g b e > >.q.q.q.y.j.j.x.m.j.x.m.m.j.h.>.>.h.h.h.q.y.>./ -.9 ",
"u G f g s a G 9 % p G s G b b / W / ;.>.-.>.-./ &.&.>.y.-.>.>.- < l a a a a s G G G b k k G a G G a a G e ; / / / >.>.>.h.h.h.q.y.h.h.q.q.&.-.q.;.>./ / / b b 8 ",
"e G G a a p a 8 $ t G G b k k b P P / / / / b q.>.>.;.&./ >.P * > a a a a a a s s G g s G a a a a a p a w * p P q.;.>.q.q.q.q.>.>.q.q.>.q.q./ -.&./ &.-./ b b 8 ",
"9 r u a p p a 2 O 9 p a G G G G G b / b P / P &.;.>.-.W s u e $ - y i p p a a p p p u u u u p p a p u a 9 O e y G &./ b b W W &.&.;.q.q.q.>.-.q.P k G s a G k 8 ",
"6 e w e r t p 2 O 2 t p a a G G G k G G P b k b b b G t e t w @ % e t p y t t t t t t e e e e w e u u u 2 X 2 t w t t e r t y y u a G / &.k a p y t t t t t y 3 ",
"3 e e 0 6 8 w > O 2 w t e r u y y u r t y t e t e r e e w e 9 O @ 3 t t t t e e e w e e w 9 w 9 9 9 9 t > X = t e e w e t e t e r t e t p t e e t t t t t r y < ",
"> 0 e 9 9 8 9 - o < e r w 0 w e e e w w 0 e t e e r e e t e 2 O @ < 0 9 9 0 9 q w 9 0 e e 0 e w 9 9 9 9 % X % e t r t t e e t e r t t t t t e w w w e e e e w = ",
"O $ & & % $ # o o O & & 2 9 9 9 3 2 > < > ; - = $ # # * = $ X O $ - 3 7 q 9 9 - & $ $ $ $ % * - - > > * O O X @ $ $ $ % $ $ $ $ & = = & & - - - - = - = - - * $ ",
"d p y e q 3 > - & $ o - G G &.j.m.n.A.V.V.V.m.e.~ f q O $ q f W q.&./ P a u a ; O < 9 9 r u a k P Y ~ &.~ Y f u r r e 9 q q 4 2 * o o > a q.q.q.;.*.Y P &.k G f ",
"q.-.q.q.;.-.>.k G k 9 < u y t u u a / &.q.m.B.B.Z.A.G.9 8 V.&.a a a G k G k k - < u y u p p p a a s G G G b k a p p p p p p a b &.w % b &./ W b W &.;./ ;.>./ >.",
"q.>.>.q./ -.>./ b P p 2 a p a a a a a p p a a p p p &.r 9 u r s >.-.;.>.;./ &.> 2 u y p s a f G b b b b P / W / / / &./ / P b a f u ; b &.&.&.-.>.q.h.q.q.h.q.q.",
";.&./ / / / P P k G u 2 p p p p a a a g G G G G G G G 9 3 k >.>./ / W P P b / > 2 p u p a a a G G a G G G b b P b P W P W W P P / t < / / b W >./ q.-.&.&.;.>.;.",
"/ / / W W W b b s b y < p u y p p p a a a f s a G a G 3 9 >.P b b / b P k G G > 3 y u u u p p p a f a G G G k k b G b b b b k b k y 3 W G b / / b / P &.&.P / &.",
"/ W G b k G b G a G r - y y y p p p p p p a a a a a G 3 8 &.b G b b G b G G G > 3 y y t u p p u p a a a G G G G G G G G b G G a G y 3 b G k b k b G b W P / W W ",
"P b s G G a G s a s 9 - t t t y u u u p p a a p a a G 2 9 P G k G G G G G a G > 2 t e e t y y y p a p a a a a s a G f p G G a p s t 3 b G k G b b k b b b P W k ",
"k b G G G a a a p a 3 & t t t t y y y u p i i p p p a > 9 b a G G G a a s a s > < e w e e t y u p a p p a a a a a a a a p a p p a e 3 f d f G G k G G b G a G k ",
"G s s a a a f a p a > # 8 e t t t y t y y y p u u p a = 3 g a a a p a a a a p - < w 0 e e t t t y y y y u u p u u a a u p u p y p 9 > u y p p a G a G a a s a a ",
"s s G a a p y e 9 9 = @ 2 3 e t t t u u u u u y u i t $ 3 a a a a p a p u t t - > 9 9 w w w e r t t r y u y y e w e w 9 8 8 8 3 6 < - y t t t e t p p p s a a G ",
"t t t t e w 6 4 3 5 = @ 2 , < 3 3 9 9 9 e e t e 0 3 e % 2 w e t t t e w 9 9 9 - > 6 9 9 9 9 w e t e e e w 9 8 6 3 3 3 3 3 3 2 2 3 > @ e r e e w e w w e e r e t ",
"0 9 8 8 8 8 6 6 3 3 & X ; < < > > > > 2 2 > 2 5 3 0 w O < 5 8 6 6 9 6 6 9 9 9 & - < 3 3 < 1 3 3 6 6 3 3 3 3 5 3 3 3 3 3 3 3 3 2 6 > X 3 t w 9 0 w w w w w w 9 0 ",
"3 3 3 3 3 2 2 2 2 > # # $ - - - > > 2 3 2 3 3 3 8 9 ; O & > 2 < 1 2 1 < < > - # # % * - - - > > < > < < < < < < < < < < < < 1 < < - @ * 3 3 3 3 4 9 9 4 4 3 3 3 "
};
