/* XPM */
static char *_868faf7dca0490c8cb47aed0ead6986IeCmW6c6w9Wy68he[] = {
/* columns rows colors chars-per-pixel */
"80 80 152 2 ",
"   c #171C23",
".  c #1A1E24",
"X  c #171E28",
"o  c #1B1E28",
"O  c #1B2126",
"+  c #1E232B",
"@  c #1F282D",
"#  c #1F2630",
"$  c #21262D",
"%  c #23292E",
"&  c #212731",
"*  c #242B34",
"=  c #292E36",
"-  c #272E38",
";  c #292F39",
":  c #273036",
">  c #2B3136",
",  c #273039",
"<  c #2C333C",
"1  c #2F383E",
"2  c #31363E",
"3  c #32393F",
"4  c #2F3640",
"5  c #2F3841",
"6  c #313641",
"7  c #343B43",
"8  c #393E46",
"9  c #373E48",
"0  c #3A3E49",
"q  c #374047",
"w  c #3A4146",
"e  c #374049",
"r  c #3C434B",
"t  c #3F484F",
"y  c #3E4650",
"u  c #3F4851",
"i  c #41464D",
"p  c #43484E",
"a  c #414651",
"s  c #444B54",
"d  c #494E55",
"f  c #474E58",
"g  c #494F59",
"h  c #475057",
"j  c #4C5157",
"k  c #475059",
"l  c #4C535C",
"z  c #4F585F",
"x  c #51555D",
"c  c #53585E",
"v  c #4E5660",
"b  c #4E5862",
"n  c #515662",
"m  c #535A65",
"M  c #595C66",
"N  c #555F69",
"B  c #545E68",
"V  c #575E68",
"C  c #565F68",
"Z  c #565E69",
"A  c #575F6A",
"S  c #565D68",
"D  c #565E69",
"F  c #5B5D69",
"G  c #5A5E69",
"H  c #585E6A",
"J  c #595F6B",
"K  c #5B5F6A",
"L  c #595E6A",
"P  c #576069",
"I  c #56606A",
"U  c #57616B",
"Y  c #55626B",
"T  c #576069",
"R  c #58616A",
"E  c #59626B",
"W  c #5C606B",
"Q  c #59616C",
"!  c #5B616D",
"~  c #59636C",
"^  c #59636D",
"/  c #5B626C",
"(  c #5A636C",
")  c #5A626D",
"_  c #59616E",
"`  c #5B636E",
"'  c #5E606C",
"]  c #5C636D",
"[  c #5F636E",
"{  c #5B646D",
"}  c #5A646E",
"|  c #5B656F",
" . c #5D646E",
".. c #5C656E",
"X. c #5C646F",
"o. c #5E656F",
"O. c #5D666F",
"+. c #5C626C",
"@. c #5F686F",
"#. c #5A6470",
"$. c #5D6570",
"%. c #5C6471",
"&. c #5C6670",
"*. c #5D6771",
"=. c #5E6770",
"-. c #5D6572",
";. c #5F6772",
":. c #5E6673",
">. c #5E6575",
",. c #5E6571",
"<. c #5F6871",
"1. c #5F6872",
"2. c #60626E",
"3. c #60646F",
"4. c #60676F",
"5. c #60636E",
"6. c #616570",
"7. c #636571",
"8. c #606771",
"9. c #626671",
"0. c #646672",
"q. c #626672",
"w. c #606972",
"e. c #616A73",
"r. c #626B72",
"t. c #646873",
"y. c #616974",
"u. c #626874",
"i. c #606A74",
"p. c #636A74",
"a. c #636977",
"s. c #636B76",
"d. c #656974",
"f. c #666874",
"g. c #666A75",
"h. c #626C76",
"j. c #656C76",
"k. c #646D76",
"l. c #646C77",
"z. c #646B75",
"x. c #696B77",
"c. c #646778",
"v. c #626F78",
"b. c #676E78",
"n. c #666D79",
"m. c #696E7B",
"M. c #64707E",
"N. c #6A727D",
"B. c #6A717C",
"V. c #6A7080",
"C. c #707682",
"Z. c #717581",
/* pixels */
"< 7 w 8 r a a 9 &   & 9 q r r t t w t t 2 . .   < d a d d l l a t 8 + @ > < 7 7 9 w t a a t w w 7 < = . $ 9 w w r r r y r r r q q 7 < < > = $ O O . . . . O $ % ",
"/ 8.O./ 4.e.e.<.R a > t l m b m / b s w 6 < t < * f / *.p.l.h.v.N.C.9 7 b z S b m P S S / U S { S l t @ 7 f s s f k v k k v b b m b b b b v k & O = 2 w a z n S ",
"] p.8.e.e.*.*.*.p.p.S r 4 9 a a < & = r b { { / l 9 0 j m S S F p.n > f b b m b b m m m S / n a 9 6 9 > w f k l k f k k b l b b l l l b B b S 7 0 d./ O.O.O.O.O.",
"t.b.p.p.l.l.l.p.p.@.<.*.n 3 $ + < l { *.O.S S { / / z r t l n n n < > b z S S S m F F / n r 7 < 4 7 7 6 r d y d d s d l v v b b b m b m m m S d i 8.' 5.] ' 4.8.",
"d.d.0.d.t.8.d.S g g s a a r & j *.] / O.{ S R O./ S P S l 0 7 s n * y >.#.*.*.*.*.%./ F S 8 9 7 7 < 7 < w y u s a a s s f k l l b b m S B P m b a F F F ' ] 5.5.",
"5.8.x.8.' ] 8.M r 0 0 8 8 6 7 *.*.*.O.*.O.*./ / / F S m m m t = 2 + n V.u.>.%.*.F S S n / f < 7 4 < < > 9 y y u a u a a s s d d d l g l l 7 < = 0 F M M M M M ' ",
"' ' ' ' ' ' ] F s 0 r 0 8 6 0 F ] 8.8.p./ m m J P / / P S S S b 0 O n >.%.J S J M m m b b b 7 < < < < ; 7 y w t y u t y a a s s k k f f g < & # 7 m m m m M M M ",
"M M M M M ' ] ] l 0 r r 0 6 r S m F ] 8.g 7 9 9 q w r r a a r t d > v %.S n m n n n l l g z y < 6 < < & $ 9 r w r r w y u y a a a s s f z r & * < x z x n m m m ",
"c m M m m M m F j 0 r r 8 6 r b n m S / w 9 w 9 7 7 7 7 7 6 < < < ; b / n b b l l l l l f f s 7 < < ; ; 9 $ < q w q q r r r t u u d s a f s * * = j j j x x x c ",
"x x x x c x x n l a r 9 8 = r l l b m n 8 7 9 9 7 6 6 8 9 5 7 < < > g m z l l l l f d s s s s q < < = S / * O = 9 q 9 q w r r r t u t s s d < # % s d d j j d x ",
"g j d j j j j j x s 8 8 8 = 0 d l l n s 7 7 7 9 7 7 4 6 7 < < > < = f v l l g f s s a a t u t 9 < * t #.m w 7 & < q q r 0 9 9 q r t y y u f 7 # + r s d s d d d ",
"j z j j l d j l n l 0 0 8 $ w d d z n r 7 7 7 7 6 < < 4 4 < < > , * s l l d d d a t w w w w r 9 , $ f k a i r 7 O = < 9 7 5 q r r r r r u k 7 # $ 8 d d d d j d ",
"s p p i s a w w 8 r < & $ O 7 t a f d 7 7 5 < < < 4 4 < < < 4 > ; * a f a t y y r w t q 7 < > ; > % < % $ $ + $ > = = & & @ @ & = 2 2 4 7 < = @ O = i 8 r i p p ",
"+ = = = < < 6 > < < * & & + $ 2 t d t 4 7 < < < 4 5 < < > = * = & O t l a u t w 9 7 < & = 9 s z B S m b 9 + . 9 S m S m m z a O a ] S m S n z l d a t 9 < < % O ",
"; / m S m S #.*.p.*.O.O.O.R l r < 7 6 < - = * & & & = = = = < 7 = @ > 6 ; 2 7 % O   + w l m m m m S O.f 7 > O s m b S / O.*.l.w m d.*./ / P R / / R R P m l d * ",
"2 M F ] F ] / O.*.*.*.<.p.l.b.B.h.l = . $ < 2 w s l m m / *.p.h.M.h.m = . m p./ m 7 < z d d l l l z n l < 4 + t n F F / *.*.a 6 M d.m r w t y r a t t u r 0 w < ",
"7 m m S F ] 8.8.p.d.l.p.p.O.S b s y 8 @ r d z m P / P / *.<.#.*.m s 9 < & 8.%.n m r 9 f d l f d l z l z 9 4 $ 8 n n m m 0.l > 2 M 8.g 8 0 0 8 8 6 8 8 6 6 6 6 < ",
"9 n z m m F ] ] 8.d.d.m.] 0 r 0 8 0 0 = 7 9 9 w t y d d l b b m 7 = ; ; & ] n = - & 9 a s d d d g l f z t < & 2 d z z m ] s < 7 m ] r 8 0 8 8 8 8 8 8 8 7 6 6 < ",
"t b l b b m F ] ] 8.8.m.F 8 r r r 0 0 ; > 9 9 w r t a s f l l m y < < > & m g < < ; w y t t a d s s d z d < = < a l l z F s > 7 n S 9 7 8 7 8 6 6 8 6 6 6 4 4 < ",
"t l k l z n m m S 6.8.n.S 9 0 0 0 8 8 6 > 7 7 q r w t s s f f l s < > ; & j g ; ; = t t t r w a a s d d d 7 > < a a d l m s > 2 n b 7 7 9 7 7 6 6 6 6 6 4 4 < < ",
"w a d d d l l b m J *.8.n 7 8 8 8 7 7 7 = < < 3 7 w t r t a d l f > < < & s s - - = 8 9 9 w w r y a a a s 8 5 < q t a d n a ; 2 n f 6 7 7 6 7 6 4 7 8 7 6 < > - ",
"7 r a d d f g l n m m K m 7 8 8 7 6 6 6 > 7 7 < 7 9 q 9 r t d d l 5 > > & i a * * = 7 7 9 9 9 9 0 a t y a r > = 7 8 w a l a - < n t < 7 7 7 4 < < 4 < < < > < ; ",
"< 8 w r t s d g l z n S b 8 6 6 6 7 2 6 2 = < 1 < < 7 7 q t s a f 9 = - & 8 t < * * 3 3 7 7 q q w w w u y a < = 9 8 w i d a * < l 9 < 7 7 < 4 < 4 < < < > < ; > ",
"< 3 9 q w a a s f z z m n 4 6 4 2 2 2 < < & > < > < < 7 9 q a u f w > = & 7 9 < * * 7 < < 3 9 9 9 9 q r y a 7 $ 7 7 8 i d a * & d 6 6 < < < < < < 4 < > > > ; = ",
"< 7 3 7 7 q t i s k l x l 4 4 < 2 7 < ; < * * 1 < 1 < 9 7 7 w r u 9 * - * < 8 * + < q < 3 9 1 3 7 q 7 9 w w < O 3 9 q a s s = O = = > < < < < < < < < < ; ; - * ",
"= 7 7 3 7 7 8 t a a d z l 8 < < < < < < & & = @ * > < 7 < 1 7 w s w & & @ + * & O & < < 9 < < < < < > > = $ @ o $ * < 2 q r O . . O . . + + $ $ % % & @ $ $ O . ",
"$ & = < 2 7 9 r i s a d z 8 > > < ; * ; q z F r = $ O O > q 7 < < - @ = 7 7 w t i 9 > $ + + = < 2 9 9 r r w w w 9 9 7 3 < < = = % O $ 3 8 < O O $ 3 r r 8 7 < = ",
"z a w < = % ; 2 w r a s g 7 * * @ = 0 f m R / ] n 7 O > m ] *.a O 7 s l z n S b n P d $ $ t t t y s s s d d l l d l l z l l l l l > 8 ' / n & * F x l f l l j b ",
"m m m m m d t > O $ $ $ = = $ $ O $ = 6 7 7 2 > * $ $ > M d.F ; 7 S n n z n b b m t - ; $ a a a d d d f d d l f f l l l l l l l a & p l l 0 $ < m.d.8.m l f z n ",
"n n n S P m S F 7 + = w a f l l g d f a a a s d f l z r > j l $ a l v n m F m F b ; - < $ 7 s a a s a g l l l l z z z n n m m s * & d j i < * < c.8.u.d.8./ m n ",
"] S S R / R S S s * z l k l z z z n n z m m S P m n b b f = % & d g g l l m m m S 8 > < * > t w y a t d l k f l l v b m m m F 9 & < d j s 6 * < ] F ] ] 8.8.d.8.",
"d.d.b.p.*.l s w < < n n z l z z b b z l z n n S m n b m P b & < f f d s d z b z m s < > - = w w w t t a t a g f g g z m b m m < & 3 d s p 6 ; < S m F m ] ] F ] ",
"%.8.d.n.m.g < 7 4 > g z z l b m n n n z m m S P S S S g r 4 @ 7 a i t a k d g l b m 7 = - # 2 w 8 r t r t s s d f f l z z n b - * 8 d p s 7 ; < n z n n S m m F ",
"F ] 8.u.c.c.0 7 7 > t d l z b z z z z n m M M F S / ] 6 ; * $ 0 8 w r a a a d f l b f = * # = 7 9 0 q w t t a k k d l z l n d * & 8 d p d 8 * < l f g l b m m F ",
"M F F ] 8.b.b < 6 , w a a s s l k l z l l n n m m / m > < * > 9 7 w t w i a a s d f b r # & O 2 7 7 7 w w r a s s a s l l z t * & r p i p 8 * = d a l l l l l n ",
"n m M m K ] u.8 < ; 7 t r t t a a d d d l l l l n F l * ; & < 3 2 9 9 q r t i a s d l b > @ # = 3 3 7 9 9 r y t t a s d f b 9 @ & i i i p r ; = t i a s d a d z ",
"l b n m S F 8.f ; * = w q q w r t a i s f d l l l n r * - O > 2 < 2 9 r w r a a a d s s d & + + < 7 8 9 9 q w r u r u a d l 7 + & i i i i i ; & 8 t t t t i a l ",
"l g l b m m m m < @ + q 9 8 8 q r r t i s s d d g b r & * @ > 4 < 2 7 < 7 9 w r t a d a f s * . = 9 7 7 3 7 q r t w w y a f 4 + = i r i i i 2 $ 7 9 8 w r t a a ",
"d d l z n S S *.r   O = 8 0 w q w 9 w r t a l s d b r @ O O > 7 < < 3 3 < 7 q q r t u t y 9 & O + < < 2 3 7 q q 9 w w a s d > O % 8 r i r i 7 O & 3 7 9 r w t d ",
"8 9 w r 9 9 9 7 < = $ O % = < 2 2 3 7 7 7 7 9 w 9 7 & . O o O $ + % = = : > = > : = = % & $ O . . O % & = < < 3 9 7 7 7 7 7 = $ $ $ $ & % % $ $ $ $ & = > < < 9 ",
"O 7 w w r t a a s l l l d a a t r w 9 6 < < & . . $ r l m m n z l l f s a t 9 7 2 = & j m F 0 2 n z n n n n n n l l z l l f d s t 7 &   = n n P O.S m l a 7 % . ",
"2 l l d k l l l b z n m n S / S S P P S m S n < O R b.l.l.O.] R S m b g g d a a a < $ s S b < m ] R R R / S F R F b z l f a r 9 7 < < O n C.N.N.h.*.F n g t 6 $ ",
"r l l l l k l z b b b n n m S S S m S m S S / z 2 K 5.x.5.a a a a 0 0 r 0 6 2 < > - @ 2 d < 8 m m ] ] ' F l l d s t w 8 7 7 4 4 < < < = F m.d.s a t 9 6 2 6 6 = ",
"9 l k f l l f l l z n n m S S S S P m S P n f 7 2 c M ] ] a i s a r a r r 0 6 6 < > & & 3 * d x n m ' 8.g r 0 0 r 0 0 8 8 7 4 < < < > < ' d.m 8 0 8 8 8 7 6 6 > ",
"9 s k a a s s f g s g j x n m m S / ] m r 8 < ; < d j M ] g s s a r r r 8 6 7 < < < = & + 7 p g l x m F s 0 8 0 0 0 8 8 9 7 < < < < - 2 F ] d 8 0 8 8 8 7 6 < - ",
"9 w w r r w a a i d d s j l x n n M ] n < 6 8 < ; s d x M l s i i i 0 0 6 6 6 4 4 < = * & i r s d g n m r 0 8 8 8 8 8 7 8 < < < < > * 6 F ] 0 8 8 8 6 6 6 < < - ",
"2 7 7 9 8 r w r r t t a d f j z l x m n 4 < < - * d j d x g r r a r 9 8 8 6 4 < 4 > ; * > p p p s d n l 8 0 0 7 8 7 7 4 4 < < < ; - * 6 M m 8 6 6 6 6 6 < < < ; ",
"< q 9 7 9 w w 8 0 w r i t u s d k l b n 6 > < ; o < w d x d 0 r r 8 8 7 7 2 < < < ; < * 2 s i r i d l s 8 8 7 9 7 7 7 4 7 4 < > = ; & 7 m s 6 8 6 6 4 < < < > - ",
"< q 7 7 w q 9 8 8 8 w w t t t a d g l n 7 - < & 0 d s a r 0 0 0 0 8 8 6 6 < < > < - = * 9 i q r i s l w 7 8 8 8 4 6 4 4 7 7 < > ; < & w n 8 6 7 < 4 < > = ; ; = ",
"* 7 3 7 7 7 7 7 7 8 t q 9 q w t i d l z 9 ; & 2 m R b.p.s = 9 9 0 0 6 6 < 4 > - ; = * & 7 r w r r a g 9 7 7 4 6 < < < < 4 < - ; - = @ r f > 6 4 4 < < ; = - - = ",
"% 7 3 3 7 7 7 3 7 7 w 8 7 9 8 8 r a s f r & & t l m R r 7 8 - 8 7 6 6 < < 6 < - = = & O 7 r w w q t r 7 7 7 4 < < < < < 4 > - - * = O t t > < < < < < ; = = = * ",
"+ 3 9 9 7 7 7 7 9 7 7 7 7 8 8 8 r t a h d & = w a l g 7 6 6 ; & 7 8 4 4 < < < * - - & + = w r w w a 8 4 < < 6 7 < 4 < 4 < ; ; = = = O 8 9 < < < < ; ; = = = * & ",
"$ & < > > = > > < 3 7 7 3 7 < < > = > & $ . > 7 r d 9 < < < ; . @ & * & * * & & = @ $ & $ & = > < 7 > ; > < > > * - = & * * $ + @ o o . $ & & # & & = & & = = & ",
"m n l k s i 9 7 < $ O + < < < < < 7 7 7 7 7 7 7 7 9 2 * + $ % < < > 9 9 w i d d d l z l l d s a r w 7 < $ + 7 r i s d s < . < i f l f d l l g a r $ O < b m S m ",
"O.<.R R R R m l l 0 O < k b b z n m m S S m S m m l n n 7 > s f k l m l z b b n b m S n m P S m m m n S 8 = m S R R / l.d $ n R ] 8.O.p.l.l.l.O.<.9 . x e.*.O.*.",
"p.e.R P n k t w 7 6 - d z z b z z z b n b b n z m m l 0 = r m j z z l l m z l m m m m S S S S S S b k y = 8 j n P / *.n 6 * l n R m z b l s i 0 6 & < n m O.e.h.",
"s a r 0 8 8 6 6 6 7 = a n b n m S m m m n m S S l w < = & 9 n l l l x m m m S S n S R / R m g a w < > ; & i d j n ] m < < = s x m s 7 6 6 2 ; ; < $ 8 x n M ] l ",
"8 0 0 8 8 7 7 6 6 4 = w l z n S M ] / %.] 8.S 0 4 = ; > & 9 l d d f l l l l n n x m F ] ] l ; > < ; > ; > r p d j M a ; 6 ; i j x g 7 8 8 6 6 < < & p j x M m 0 ",
"9 0 9 9 7 7 4 4 < > ; 7 g l z z n m F / *.m.l < 6 ; < < * 7 a d d d d d l l l z m n n m F n 4 < < > ; - > r r a d m 8 ; 2 * 8 d j j 8 6 6 6 < ; = < d d j m j 8 ",
"9 9 9 7 4 < < < < > ; < s d g l l n m m F 8.r < ; * = ; * 7 t t a t i a d a d f l l n m m n 7 < < > ; * < w q a d j 6 < < = 8 s s j 8 6 6 < ; ; * 7 l l z m s 8 ",
"7 7 6 6 7 < < < < < > = t s d f l l b m m F 9 = - * = - & < w 9 w t t w r t i a d l z b b m 0 - > > - & < q q r a a > ; ; * 3 i i d 8 < < ; ; ; * w a d z n 8 2 ",
"4 6 4 < < 4 < > < > - ; r i y s d g l b m m ; - < - * * @ < q 9 7 9 w q q w t t a d g f l b i = - - * + < q 8 8 a 0 - ; = * < i r p r < < < ; = = w a f z f < 2 ",
"4 < < < < > > ; ; = * & 7 w r t a d l l b f * ; > < - & @ < 7 7 8 9 9 7 7 q w w t t a a f l s - - * * i q 2 q 8 i 4 = ; * * = i r i r < < < ; * < r a f l w < < ",
"< 4 < < > ; - = - * * @ > 9 q w i a d d b r & * = & & # + > 7 7 9 9 7 7 7 7 7 9 w t a a a f f < & < p s d 8 < 7 9 = * & & * & r w r r < > ; * & ; i t g l 4 < < ",
"< 5 < < - ; = * - * * $ % 3 9 w t s y s l > & * * & & & O % 7 7 9 8 8 q 9 w 9 7 8 8 w a s s f < > d s p s s = 2 7 * & & * & $ 8 r r t > ; - ; & O 0 f l a ; 4 < ",
"> = , * & # # # # @ @ O . $ > 1 9 q r a t & * & O O o . O . & < < 6 < < 2 7 7 < = & & < < $ O . = 8 8 q 8 7 = . & @ & & @ X   % 2 8 w = & & + o   . ; s 6 * * - ",
"& w s d f d l l l l l d l d a d y < % $ & & 6 7 3 7 9 8 t r r a a r q 9 7 = . 2 w 2 = . + 2 7 8 r i s i r 8 7 7 2 2 $ O = i s s > . > < 2 3 < < 2 < = = = = & % ",
"s N.b.b.B.p.h.e.*.<.*.S S P m b b l k 7 O i n m S P / / *.*.e.*.*.*.*.*.<.S @ m N.l.O.= d l.p.m.l.l.d.l.e.O.' M m j 8 O p S S a & < n b n n z n b z j f l d a & ",
"a n *.l.b.l.B.e.*.e./ S { S b l k s s 4 & i p s g l z m S S O./ *./ P O.S 9 @ p ] z 8 = l M ' 8.d.m n x g s s r 8 6 8 ; < s d 6 + l m n n n n z z z l s y r 7 = ",
"i g z S l l l f s a r r 0 9 7 4 < < > = = i i i i p p p s g b n m m l n a * & 8 ' d < < x m M 0.K 0 r 0 8 8 8 8 7 7 6 6 = r d < < z n M 4.8.F r w 9 7 6 4 4 4 = ",
"r d j a 6 7 6 6 6 < 2 2 < < < < < ; ; ; < i w i r i p i p s s s d d g l d ; & 3 c g < 2 j x n ] x 0 r 0 0 0 0 8 7 6 6 6 < < p ; 0 l n S R 8.i 7 7 8 7 4 < < < = ",
"r d l r 6 8 7 7 6 8 6 6 6 4 < ; > > < * < t r r r r w w i a i a a d g f d ; & < n d < 8 d d x M a r r 0 0 8 8 8 7 6 4 < 6 * 3 < a g l m J n 6 8 6 4 < < < > < - ",
"w a s 7 4 < 6 6 < 4 4 < < < < > < = = & 2 w t w w r w w r r r t t p i d f 4 & = j d < 7 s s c j 0 r r 0 8 8 8 8 8 6 2 < 2 < @ > s g l m S 8 4 4 < < < < < < > = ",
"w i t < < < 6 < < < < < ; > - = = * * & 3 w q q q r w q w q w r t r t t d 7 & * i s ; 7 s s j i 8 w 0 8 9 9 8 7 6 6 6 ; < < $ 7 s f l F s < < 4 5 < < > > > ; * ",
"9 a r > < > < < < > > > > ; = = = & & & 3 7 9 7 8 8 w q q 8 8 w q w r w a 9 * * 8 a * 8 i p l w 9 r 8 8 9 7 8 6 6 < < < ; ; * r s d v l < 4 < < < > > > ; * = = ",
"7 t 7 ; > > > > ; > = - = = = * * & & % 3 7 7 7 7 8 r 8 7 8 8 8 7 7 7 q r w * @ 7 a & 8 p p s 8 8 8 8 7 6 6 6 < < < < < - * > t a f b 7 > < > > > ; - - * = * # ",
"2 r < ; = ; ; = - - = * * - - = * & * & 3 7 7 7 3 q 7 7 7 7 8 7 7 9 9 q 8 w = + < r $ 7 i i 0 7 7 6 6 6 2 6 < < ; < < ; ; & 7 a a l 9 ; < > - - - - = * * = & & ",
"& 8 = * = ; ; * - = = * * - = - & # & & 7 7 7 7 3 < 7 9 7 3 3 7 7 9 1 7 9 9 > # - w # r r q 8 6 8 6 6 6 4 4 4 < < > ; ; - & 8 y g a = > ; = = * - * = * * * # & ",
"O = * * * * * * * * & & # & & @ @ + + $ 7 < 2 7 7 3 3 7 7 3 7 3 3 7 7 < 7 9 > + & = @ 7 r 7 < 2 6 6 < < < < < < - : ; * & $ w a a < * = = * & & * * & & & = @ @ ",
"$ $ & & & & & * * * * * * = & & $ & $ $ % % = > < > < < > > 2 > > < > * * = * $ $ O $ $ < < < < > ; = > < > = = = = & & $ $ * 6 > = > * = * & & & - ; & & $ $ $ "
};
