/* XPM */
static char *_5e29e5212414c8dbd483c397e092eb78GNRLPGvXfnee0Rq[] = {
/* columns rows colors chars-per-pixel */
"80 80 151 2 ",
"   c #23272A",
".  c #25292D",
"X  c #282C2F",
"o  c #272C31",
"O  c #2A2E32",
"+  c #2D3236",
"@  c #2F3338",
"#  c #31363A",
"$  c #34393E",
"%  c #363B41",
"&  c #393E44",
"*  c #3B4146",
"=  c #3E434A",
"-  c #41464D",
";  c #43484F",
":  c #424750",
">  c #454B52",
",  c #494E56",
"<  c #474E59",
"1  c #494F58",
"2  c #4B5057",
"3  c #4D535B",
"4  c #50565F",
"5  c #52585F",
"6  c #4F5660",
"7  c #515760",
"8  c #545B64",
"9  c #585F67",
"0  c #575E68",
"q  c #585F69",
"w  c #5B636C",
"e  c #5F6670",
"r  c #5F6874",
"t  c #60676F",
"y  c #606770",
"u  c #656E77",
"i  c #666F77",
"p  c #646D77",
"a  c #636A74",
"s  c #626B78",
"d  c #636B78",
"f  c #636C78",
"g  c #636C79",
"h  c #646C78",
"j  c #646D78",
"k  c #656D78",
"l  c #656D79",
"z  c #666D79",
"x  c #656E78",
"c  c #656E79",
"v  c #666E78",
"b  c #666F78",
"n  c #676F78",
"m  c #666E79",
"M  c #666F79",
"N  c #676F79",
"B  c #646D7A",
"V  c #666E7A",
"C  c #666F7A",
"Z  c #676F7A",
"A  c #666F7C",
"S  c #666E79",
"D  c #686F79",
"F  c #687077",
"G  c #677079",
"H  c #67707A",
"J  c #67707B",
"K  c #67707C",
"L  c #67707D",
"P  c #67707A",
"I  c #68707A",
"U  c #68707B",
"Y  c #69707B",
"T  c #68717B",
"R  c #69717B",
"E  c #68707C",
"W  c #68717C",
"Q  c #69717C",
"!  c #69717D",
"~  c #6A717C",
"^  c #69727C",
"/  c #69727D",
"(  c #6A727C",
")  c #6A737C",
"_  c #6A727D",
"`  c #6A737D",
"'  c #68717E",
"]  c #69717E",
"[  c #69727E",
"{  c #6A727E",
"}  c #6A737E",
"|  c #6B737E",
" . c #6B737F",
".. c #6B747E",
"X. c #6B747F",
"o. c #6C747F",
"O. c #6C757F",
"+. c #6A727D",
"@. c #6B7481",
"#. c #6C7480",
"$. c #6C7580",
"%. c #6D7580",
"&. c #6D7581",
"*. c #6D7681",
"=. c #6E7681",
"-. c #6E7781",
";. c #6D7582",
":. c #6E7682",
">. c #6E7782",
",. c #6F7782",
"<. c #6E7683",
"1. c #6E7783",
"2. c #6F7783",
"3. c #6F7784",
"4. c #6D7681",
"5. c #6F7882",
"6. c #6F7883",
"7. c #6F7883",
"8. c #707883",
"9. c #707983",
"0. c #707884",
"q. c #707984",
"w. c #717984",
"e. c #717985",
"r. c #707A84",
"t. c #717A84",
"y. c #717A85",
"u. c #727A85",
"i. c #727B85",
"p. c #707986",
"a. c #717A87",
"s. c #727A86",
"d. c #727B86",
"f. c #737C87",
"g. c #717A85",
"h. c #737C88",
"j. c #747C88",
"k. c #747D89",
"l. c #77808C",
"z. c #77808D",
"x. c #77808C",
"c. c #78808C",
"v. c #79838F",
"b. c #79828E",
"n. c #7A8391",
"m. c #7B8492",
"M. c #7B8592",
"N. c #7B8592",
"B. c #7E8894",
"V. c #808A97",
"C. c #8B94A2",
/* pixels */
"+ O & w s k p a a s a e a w 2 = # + + O O O O = 8 e g / J e + : a w w e w w 8 3 , : ; - : - : , , , , - O & r A K k A K / @.@./ g e w w 0 8 8 8 6 3 2 , : = % O ",
". , p.#.#.#.#.#.p.p.6.6.8.p.6.#.p./ / k & + w #.8.#.p.p.h.n., 7 a w a p a p R a J k a a k a k p a a a a > a M.z.c.B.V.M.c.z.6./ k p p k k k k k k k p a a a w - ",
", #.p R #.#.p.p.f.j.h.p.p.h.p.p.p.p.#.c.8 = 8./ / / X.X.R J , 3 K p / / J k R k / / / J k / a a a p a a 3 w p p a a a a a a k k k k k X.X.R k J k a a a a a w > ",
"w p #.3.8.8.p.8.p.p.p.6.p.p.p.p.#.#.#.p.w ; / R / / / / / / 2 8 / / / / / O./ p J p k k p a a a a a a a 3 w p R k k k / / k / p k p p k k k p p p a a a a e e - ",
"a #./ #.O.#.#.#.#.6.#.6.6.#.6.#.#.#.#.8.w , k k p p p a p p 3 8 / a p k J k k k k p a a a a p a a w e a 3 8 p p p p k k k k k k k k k k p k p a a a a a e e w = ",
"e R O./ / #./ / O.X./ #.X.#.#.#.#.#./ #.w 2 a a a a a e w a , 8 k a p k a a p k a a a a a a e e w w w w 3 8 p a p a p a p k p p a p p a a a a a a a e w w w w * ",
"w p k k J J / k R / X.X.R #./ X./ / / X.w , w w w w w w w e 1 8 k a a a a a a a a a a w e a w w w w w w 2 3 a e a a a a a a a e a p a a a a a y e e e w w w w & ",
"w a a k k / / R / k k p a p k / / k k R 8 ; w w 8 8 8 8 8 8 > 8 a e a a e w e e a a e w w e w w w w q w , 3 a e w w w w w 8 8 8 8 8 w e a w w e w w w w w w 8 % ",
"8 a a a k k a a w w w w w w w w a k p p 8 > 9 7 3 3 7 7 4 7 ; 8 a e w a w e w w w w w 9 w w 8 w w w 8 w > 2 e q 8 7 3 7 8 4 8 8 8 8 8 8 q w w e w w w w w w 8 % ",
"8 e w w w w 8 8 8 w w 0 8 0 0 8 8 w e p 8 = 3 3 , 2 2 3 3 3 ; 2 w w q w 8 8 8 8 7 3 3 3 3 3 4 4 7 8 8 8 > : 8 2 3 3 3 4 3 3 4 3 8 8 8 8 8 8 8 8 w 0 q 8 q w 3 # ",
"3 8 8 8 8 8 8 8 8 8 8 8 8 8 8 8 8 4 8 w 3 * , , , , > , > , = , 3 3 3 3 3 3 2 3 3 3 3 3 3 3 , , , , , 3 = - 3 2 3 2 3 3 3 3 3 3 3 3 3 4 7 8 8 3 7 3 8 8 8 8 , + ",
"3 8 8 8 8 8 8 8 8 8 8 8 8 4 8 8 8 8 8 8 3 & > > : ; > > : > & ; 3 2 2 3 3 3 7 3 3 2 2 2 1 3 2 , 2 1 , 2 * = 8 , 2 1 2 3 1 , 3 3 3 3 3 3 4 4 3 7 3 3 3 3 3 3 , + ",
"% > > > 2 , , , , 2 , 2 3 2 , , , , , 3 & O & & & % $ # # & + . O + O + + # * : : > > : - - - = = & * % O X > , , 1 3 2 2 , 2 , , , , , , > > > 2 , > = - = @   ",
"= : : : , 1 , , , > * # O + & ; ; ; > 3 2 3 8 8 0 w w w w w e e w w 0 8 3 1 & O O # $ % = - > > 2 3 3 2 8 6 6 8 3 $ + @ % > - : , 3 2 3 3 2 2 : O + # = - - - : ",
"O.O.#.#.#./ p a p k / p., & p p k k R k k k R J R / O./ / / #.#.#.#.p.X.#.p.j.* 3 w w a k p k R #.f.p.j.c.M.v.f.p.O.& O e 6.#.6.j.c.M.M.c.j.6.h.w   8 R a a p k ",
"a a p p p p p a y w w a 8 , a w a a a a k R k R R X.R k J R p k p k a w w 8 8 1 k #.O.8.#.#.6./ #./ R J a a w 8 8 y w = #.p.6.p.h.p.f.p.#.#.R p J * 8 w 8 w w w ",
"p k k k D / / / X.O./ / 3 , a y w a y p p p k k R k a k R k k k k k a a a e 3 2 k / O.#.#.#.#.#.8.p.#.6.8./ R D k a w , k #.#.8.p.p.p.p.p.p.#.#.k = 8 a a a a p ",
"p a p k k p k k k R p R 8 , y w w w e a a a a a a a a a k k a a a p e a a w 8 , R k R X.#.O.#.R #.O./ / R p a p p R a 3 k / @.8.#.#.6.#.#.#./ X.J - w w w t p a ",
"p p a a a p R k D R p R 8 , w w w w w e w a a e a a a a a a a a a a a w e w 3 : k R R R R R / / R R / / R k p a a p y 3 p / X.X.X.#./ / / / / J / > 8 w w w y a ",
"a a a a a p p p p p p D 8 > w w w w w w e w a a a e a a a a e e a e w w w 8 2 - p R R / R a p R / R R p k k k k a w w 3 a R p / / X.R / / J k p k , 8 w w w e w ",
"w w t w a y a a a p p p 5 ; w 8 0 q w w w w w w w y y w w w w w w w w w w q > * a a p a p k k p k k p a a a F a w a w 3 a k k k J k R / J k J J k 2 8 w w w w w ",
"w w w t a w y a a w 8 8 , - 8 8 8 8 8 8 w w w w w w w w w w w w w w w 8 8 8 - % a a y y a a a a a p a a y y a w 8 9 8 2 w a p p k a p J J p a w w , 8 w w w w w ",
"w w w w w y w 8 4 3 2 3 > ; 8 8 8 8 8 8 8 8 8 q q 8 q q w w w 8 8 4 2 1 > , ; & 9 w a a a a p a p a a a w 9 8 8 4 4 4 , w a a a a a p k p w 8 8 8 ; 3 8 8 8 w w ",
"8 8 8 5 8 8 2 2 3 3 , 2 > = 3 3 8 8 8 8 8 8 8 8 8 8 8 8 4 3 2 , > , > > > , - & , 8 w w w w y w w w w 8 5 4 4 4 4 3 8 > 8 w w w a a w w 8 8 3 3 8 ; 3 3 3 8 8 8 ",
"3 3 3 3 2 2 2 2 2 , > , - = : = ; , , > , 2 2 , , , , > - - - : > > : > > > - # , 3 2 , 3 3 3 3 4 3 2 3 3 3 3 3 3 3 8 - 8 8 8 8 8 3 3 3 3 3 3 2 8 = 3 3 3 3 3 3 ",
"3 2 , , > > > > > > ; > % # ; - - - - - = - ; = - - > > : : : - = * * - - = * + > 5 3 3 3 > 2 3 3 3 , 3 3 3 3 3 3 3 , O , 3 3 3 3 3 2 3 3 4 3 8 3 + = , 2 3 2 2 ",
"& , 3 3 3 3 3 3 7 3 , - = * % $ # # @ # # $ % $ # @ + + + + + % - : ; - = & $ + + # $ $ % * = & * * & & $ $ * ; : 1 - * - < , , > > > > , , , , % + + # $ % # $ ",
"a #.#.#.3.D p a / p.p.3.#.#.A a w 3 = % % + . O $ % & - , 8 e A / p a e w a w 8 8 @ X - 0 w w w a / K k 1 @ a e w a k p.#.3.h.h.p.h.p.p.p.#.3.#.#.O./ k a e 8 @ ",
"w w w a k k  .#.#.#.p.#.j.p.h.h.h.j.p.e w / = * a w k / #./ / k k k k k p p e e p = & k a a e a a e e y 8 = w w w a a k / #.p.p.h.j.j.j.j.j.j.j.z.c.j.z.p.p.p.: ",
"a #.#.6.p.8.p.f.f.j.j.p.f.j.j.j.p.h.p.O.8 0 3 - w w w a p R / / k J p a k a e w w > = a y a k k k k p / w = / #.#.6.p.p.p.p.p.j.j.j.j.z.j.h.j.h.j.p.h.p.p.#.#., ",
"e / / #.#.#.#.8.#.#.j.p.p.p.j.p.6.p.#.#.#.8 - 2 #.R / R k k k p p p p e w a w w w 1 - a w e w e p p a / a - J k / / #.#.#.#.p.p.p.p.f.j.p.6.p.h.p.p.p.#.6.#.6.3 ",
"w k / #./ / O.#.X.#.8.p.3.#.#.#.#.O.R k / / - 3 k a p k p a a a p a e w w w w 0 w 1 > w w w y e a a a k w ; k k / / O.#.@.#.3.#.p.p.p.#.#.#.p.p.p.6./ / #./ k 3 ",
"w k p k J / / / X.O.#.#.#./ #.8.#.O.R p / / , 3 k a a a p a a a a e w w w 0 q 8 q 2 : w w w w w w a a a w > p k k k X./ / / @.#.#.#.#.#.#.#.#.#.#.#./ / #.k k 3 ",
"w a k k k k k / / / R / #.#.#./ / / k k k R > 3 a w a a a w e w w w w w q 0 8 8 8 , : 0 8 0 q 8 w w w a 8 : p p k k R / / / / / R J X.X.#.#./ X./ k k / J J / 3 ",
"q e w a k k k k R R J R / R J R k R J a a D : 3 e w w w w w w w w w q 8 8 8 8 4 4 > : 8 8 8 8 q q 0 8 w 3 > a a a a p k J k k / / / / / / / J / J p / k k p p 3 ",
"8 w q w w w a a p k k k k k k k k k a w w w & , w w w 8 w w w q 8 8 8 8 8 8 7 4 4 > = 4 3 8 8 8 8 8 q w 2 > a e a a a p k k p k / J k k J J J p p p p p a w y 3 ",
"2 0 8 q 0 w 0 0 w w e a a a a w w q 8 8 8 4 $ - 8 8 8 8 8 8 8 8 8 8 8 8 8 8 4 3 2 ; % > 3 3 8 8 8 8 w 4 > - w w w w a a a a a w e a a p k k k p a p a e e w w 2 ",
", 8 8 8 8 8 8 8 8 8 8 8 8 8 8 8 8 8 7 8 8 3 + * 3 3 3 2 3 3 2 , 3 3 3 3 2 , > > > = & > - , , > , 2 2 , > & 3 7 4 3 7 7 8 8 8 8 8 8 8 w w w w w w w w w w w w - ",
"- 8 8 8 8 8 q 8 8 8 8 8 8 8 8 4 3 3 3 3 2 , # $ 2 2 3 2 , 2 2 3 > , > : : > ; = - $ # - > - > : > > > , : # 3 3 3 3 3 8 8 8 8 w 0 8 0 w 8 q q q w w w w w 9 w % ",
"+ & = = = = = = = = * & & * * * * & $ $ $ # O O $ $ # + $ * % $ $ % * & & & % % # O O @ % & % & & & & $ O . + * = = = = = = = = = = - ; > , > , > > > > : - $ o ",
"3 8 8 8 0 w w 0 9 0 8 3 , = % O O = 2 8 8 8 8 7 7 3 1 : # O & 3 0 e e a a a a a a a e w w 0 w 8 7 3 2 , , , = . . . + * = > : ; = & % # O . . # * & = = * - > 3 ",
"k R O.R ) R / D R k p p a p p 8 : a e a p / #.p.p.3.#.c., # e w e a a a k p J / R a k / / / #./ k / / #./ k X.3 O + w p p a a a p a a e a * + w R R D R / / R k ",
"p.p.p.8.8.O.O.O. .R D p a a w 9 : e k / #.p.p.#.p.p.h.p.; * w e a w a k k a k k k J / / / / / / / / p p k a k p + & a w y w y w w w w 8 w 3 & / O.#.#.#.8.p.p.p.",
" .8.#.#.#.O./ O.R R D p p p p w : p p k / X.6.#.3.6.p.j.= : a a e a p a D a a k p a p k a p / / k k k p k k p p $ = a w w w w w w w w w w - & D / R / O.O.O.#.#.",
"/ O.8./ / / / / R p p p p a a 9 : a a k J / / O.#.X.#.j.: 3 a a e e a a e a p a k p p k k p p J k a a a k e e p * = y w w w w w w w w 8 w = % D k k R / #.R / / ",
"O./ / / R k O.D p p p p a a a w = w a a p k / k R / #.#.> 8 a w y a e a w a a a a p a a k a a p a y a a a w w a - = w w w w w 9 w 0 0 8 w = $ a p k a R R / R / ",
"R R / R R R R p p p a a a y y w & 0 e a e a k a a J / k - 8 w w y w e a w w a a a a a a a a p a a a a w a e w a , = w 8 w w q 8 8 8 8 8 w = # w a a p R k p R R ",
"D R k D k D k p p a a t w w w 9 $ 8 w e w e p p p k k a * 8 w w w w w w w w w w a a a w a a e e a e w w w e w w 2 = w w w 9 8 8 8 8 8 8 8 & + w p a p p p p k k ",
"k F a y t w w w w w a t w w w 8 # 2 w w w w a a a w w 8 % 3 q 9 w q q w w w e w a w w a a e w w e w w w w w w w > * 9 8 w 9 8 8 8 8 8 8 8 % + 4 y y a w w a p p ",
"9 8 8 4 4 3 3 3 3 8 w w 9 w w 5 # > w w w w e w 7 8 7 , $ 3 8 8 w w 0 w w w w w w w 8 w q 8 8 8 q w w w w w w w = % 8 8 8 8 8 8 4 3 8 8 3 # + > w y w w w y w w ",
"4 4 4 3 3 3 3 2 3 2 3 8 8 9 9 3 @ - 8 8 8 w w 3 3 3 3 , # , 8 0 8 8 0 8 8 8 3 2 2 2 , 3 3 3 3 3 3 3 8 8 8 w 8 8 & $ 3 8 8 4 3 3 , , , 2 , # O - 4 w w 8 8 4 4 4 ",
"3 3 4 3 2 2 3 , 2 3 2 , 2 2 3 > O = 3 7 8 8 3 2 3 2 4 > O - > > , , > ; > , , , 2 2 2 3 3 3 2 2 3 3 3 3 3 3 8 3 $ # 3 7 4 3 3 3 2 2 , , , @ X * , 3 3 2 3 4 3 3 ",
"- ; ; ; > ; ; ; ; - - * * * & O   O & & * = > > = & % O   # & = = = & = = = = = - * * = * = - - - > - > - > , = O . % = = = * = = = * * $     O = > , > ; > > - ",
"% & & % $ O . . + 0 e 8 8 2 : = = = % & % % % % $ # # % = > : # O @ $ $ & = : - - > , > : $ O . . . . . + O O + @ % & : , , , 2 2 2 , , , , > = * # + . . . . O ",
"a / w a a a w > & k p J #.j.p.h.p.p.p.3.@.X.X./ #./ #.#.p.j.B.2 o a R a k p k k / #.p.p.p.J w 6 > : : : O % #.3.3.p.n.M.z.c.c.c.c.h.6.p.3.p.p.#.@.k 0 3 2 2 6 % ",
"p p./ R a a p e $ w k p k / / X.#.#.p.h.p.j.j.j.c.v.z.k.j.p.#.> $ / k X.#.k R #.X.@./ / R k p p / #.p.f.= = #.J / / / #.3.#.#.j.j.j.c.c.c.c.c.c.c.c.k.p./ / / 3 ",
"a / R / J k a 8 % k / / #.#.p.p.p.h.h.h.h.j.j.j.j.j.j.h.h.j.c.- % k k / R / 6./ k X.#.#.X.X.k k a e a k , = h.j.j.z.c.c.v.v.v.M.M.M.n.c.v.z.j.z.z.j.p.j.p.#.#.> ",
"a / k k k p k 8 $ p k p / / #.#.6.#.p.h.h.j.j.f.p.h.h.h.p.j.j.- * k k k J / / k k J / / / / a J R p k X.3 = p.6.p.j.p.j.j.c.z.z.z.z.j.k.z.z.z.j.j.h.p.p.p.6.6.1 ",
"a R k p p a a 7 # a k p k / / R #.#.#.p.p.j.f.j.p.p.f.h.h.6.p.- = k a p k k p R / J k R k k k k p p p k 8 = #.#.p.p.#.j.j.j.l.z.j.z.j.j.l.j.p.p.j.h.p.#./ / #.2 ",
"w J p a a w y 3 # a p a k J R / X.#.#.#.p.p.#.p./ R p.p.f.p.8.* - a a a p a p p k k k k p a p p p p a k 8 * #.#.6.6.p.p.h.h.j.f.j.j.j.p.p.#.#.p.p.p.#.8.#.R O.1 ",
"w p a a a w a 2 # w a a p k k / / / #.#.#.#.O./ #.X.#.8.O.#.#.$ = p y w w e a a a a p a p a y a a a e a 3 & / / / #.#.#.f.p.p.#.8.p.p.#.#./ #.#.#.#.X./ / p D , ",
"8 a a e e w y , + 8 a a k k p k k J / / / / k #.#.#.#./ / #.J $ * e w w w w e a a a a y a a a e e w w a 3 $ w k #.#.#.6.6.8.6.#.#.#.6.#.6.#./ #.O./ X.#./ k p , ",
"2 8 w w w w e ; O 2 w a a a p a p k / k R / J / O.#.#.J a w 8 + % 8 w w w a w w w w w w w w w w e w w e 2 O 7 0 a / / J k / / / #.#.3.6.#.#.#.#./ p a a e a p , ",
", 8 3 8 8 8 w - O ; 8 w w e a a a p a p J k p k p k p 8 8 8 3 O # 4 8 w q 8 8 8 8 8 8 8 8 8 4 4 8 w w w - . - 8 3 8 8 8 8 8 0 0 q e p / X.p e w q 8 8 8 8 8 0 : ",
"> 4 4 3 , , 3 * O ; 4 8 8 8 w 0 q w 8 8 8 8 8 8 8 8 8 7 3 4 2 O O > 8 8 8 8 8 7 4 3 3 8 4 2 3 3 3 2 3 8 *   $ 8 7 3 3 8 8 8 8 8 8 8 8 8 w 8 8 8 8 8 8 8 8 8 8 = ",
"* 3 4 2 2 , 2 % o = 4 8 3 3 3 4 4 7 3 3 3 8 8 8 7 8 8 8 8 8 = O O = 3 2 3 3 2 3 3 2 3 8 8 3 3 3 3 2 2 3 # . # 8 8 8 8 8 8 8 8 8 8 8 8 8 8 8 8 3 4 4 8 8 8 8 3 $ ",
"O + $ # @ @ + o o O # # - 1 1 2 > = = = = & & $ # + + $ $ + . O @ % : , 3 1 2 & # @ @ @ + # $ % & * * $ O O . O + + @ # @ @ + @ # $ % # # % % & & $ % $ % % $ + ",
"e w 8 8 3 : = % # @ . & p a / p.k.z.B.M.M.n.k.p.K a 2 O + 3 a / #.@./ k e q e * O = 2 2 8 0 e g A k / #./ k a 0 8 8 6 2 3 3 > = $ . . * e 3.#.#.@.@.k A / k a a ",
"#.#.#.6.#.#.#.p a k 2 = w 8 8 w w y / / #.j.n.n.B.M.C.2 , M./ e w e a p p p p % = w 0 w w w w e w a a a p k p e w w w w w w a k / 3 # k / / / k / / #./ #.#./ #.",
"6.#.#.#./ O.#./ k k w - w w e w w w w w w e e w w w X.8 1 0 8 a #.#.#.#.O./ / * ; w 0 w a e a p k k k k J / / / / / X./ / / k w a w & k X.X.X.O.#.3.p.#.#.p.#.6.",
"#.X./ / / / J J p a w - w w w w w e e a a a a a a a a 1 : p #.#./ / / R J k / * ; w w w w w w a a e a a a k k J k J / J / / J J X.8 = / / k / #.X.6.O.X./ O.#.#.",
"/ / / / / / k k a k 8 = w w 8 w w w w w e a a e a e p > 2 #.k k p / k J p p a = > 0 w w q w w w e a y a a a k p k p k k k k p p k q : / p k / / J / J X./ J / / ",
"/ / p k p a k a a p 8 & 8 8 8 w w w w w w w a w e w p > , / p p p k p p p a p = > 8 8 8 w w w w w y e y a a a a p p p a k a a a a q : R a p k p k a k / k / / / ",
"/ k a p a a a a a a 3 % 8 8 8 0 w 0 w w w w w w e e a = 2 R a p h a a p a a a * - 8 5 8 8 q 0 8 w e w e w e a a e a a w a a e w a 8 > k a p p k k p k k k J R p ",
"p k a a a e e w w y > # 8 8 8 8 0 q 0 w w w w w w w y * 1 k y a a a e e a e a * = 8 4 8 8 8 8 w w w w w w w e e e e e a w e w w e 7 ; a y a a a p a p k a e a p ",
"a a a a e e a w w w = + , 8 8 8 8 8 8 8 8 q w w w w w % > a e w e w w w e w w & - 3 3 7 7 8 8 8 8 q 0 8 w w w w w e w w w w w q w 2 = w 0 w w e a e a e e a e e ",
"a a a a e w 0 3 3 3 $ + - > 7 8 8 8 w 8 w w w 8 w w 8 @ : w e e w w w w q 8 8 & * , , 3 3 3 8 8 8 8 8 8 w q 8 8 3 7 3 2 , , , > , = $ q 8 8 8 8 8 w w w a a w a ",
"8 8 8 8 8 3 , > > > $ O - - = > > 1 3 2 8 8 8 8 3 > 8 @ = 3 7 8 8 8 7 3 3 1 3 & * , 2 2 2 3 4 7 8 8 8 8 3 2 , , > > > > > : - - > * + 8 8 8 7 3 7 3 4 7 8 8 7 8 ",
"3 2 , , , , , , > > # . & = = * * * = - - = ; > > 3 3 O = > , , , , , , , 2 , # $ = ; ; = - > > , , > > > > > > > > > > > > : - , = . > 8 3 2 3 4 3 3 3 4 3 3 3 ",
"> > : > ; - - = - = @ + @ & % & * * = : - ; : > , 2 & O # = - = - ; - = = = & + @ # $ % % & * = = * = = = = = = - = = = = = - = = % + $ > : > > , 3 2 , , > > > "
};
